<?xml version="1.0" encoding="utf-8"?>
<!-- Generator: Adobe Illustrator 27.0.0, SVG Export Plug-In . SVG Version: 6.00 Build 0)  -->
<svg version="1.1" id="Шар_1" xmlns="http://www.w3.org/2000/svg" xmlns:xlink="http://www.w3.org/1999/xlink" x="0px" y="0px"
	 viewBox="0 0 100.3 90" style="enable-background:new 0 0 100.3 90;" xml:space="preserve">
<style type="text/css">
	.st0{fill:#A5A5A5;}
</style>
<g>
	<g>
		<path class="st0" d="M99.6,51.4c-0.1-3.3-1.4-6.5-2.5-9.1c-1.4-3.4-3.5-8.6-5.5-14.3c-2.1-5.8-5.7-8.8-8.4-10.2
			c-2.2-1.2-4.7-1.8-7.3-1.8H62.5v0h-2.3v35.4h-4.4V39.2l0,0l0,0v0h0L16.2,1.4C15.3,0.5,14,0,12.8,0c-1.4,0-2.7,0.5-3.7,1.6
			c-3.1,3.3-3.3,8.5-0.4,12.1l0.8,1v15.6c0,0.1,0,0.1,0,0.2c0,1.2,1.2,1.6,2.2,2.2c1.6,1,2.4,1.7,2.4,3.7c0,1.9-1.6,3.5-3.5,3.5
			s-3.5-1.6-3.5-3.5c0-1.2-1-2.2-2.2-2.2s-2.2,1-2.2,2.2c0,4.4,3.5,7.9,7.9,7.9s7.9-3.5,7.9-7.9c0-3.7-2-6.8-4.8-7.7v-8.8l19.5,24.4
			v7.1H4.4c-2.1,0-3.7,1.7-3.7,3.7v17c0,4.9,4,8.9,8.9,8.9h5c2.1,5.3,6.6,9,11.9,9c5.3,0,9.9-3.7,11.9-9h22.9c2,5.3,6.6,9,11.9,9
			s9.9-3.7,11.9-9h5.7c4.9,0,8.9-4,8.9-8.9L99.6,51.4z M11.9,7.1c-0.5-0.6-0.5-1.4,0-2c0.3-0.4,0.8-0.6,1.3-0.6
			c0.4,0,0.8,0.2,1.1,0.5l37.2,35.7v10.7h-14l-0.1-11.7l0,0l0,0L11.9,7.1z M35.9,72.6c0,3.6-2,6.7-5,8.4c-1.4,0.7-2.9,1.2-4.5,1.2
			s-3.2-0.4-4.5-1.2c-3-1.6-5-4.8-5-8.4v0c0-5.3,4.2-9.5,9.5-9.5C31.7,63.1,35.9,67.4,35.9,72.6L35.9,72.6z M82.7,72.6
			c0,3.6-2,6.7-5,8.4c-1.4,0.7-2.9,1.2-4.5,1.2c-1.6,0-3.2-0.4-4.5-1.2c-3-1.6-5-4.8-5-8.4v0c0-5.3,4.2-9.5,9.5-9.5
			C78.4,63.1,82.7,67.4,82.7,72.6L82.7,72.6z M94.1,72.6h-7.9c-0.9-7.5-6.3-13.2-13-13.2c-6.6,0-12.1,5.8-13,13.2H39.4
			c-0.9-7.5-6.3-13.2-13-13.2c-6.6,0-12.1,5.8-13,13.2h-7c-0.7,0-1.3-0.6-1.3-1.3V56.5c0-0.7,0.6-1.3,1.3-1.3h45h4.3h4.4h4.7h0v-3.8
			h0v-31h11c1.9,0,3.7,0.4,5.2,1.3c2.9,1.6,5.1,4.2,6.4,7.9c2.1,5.8,4.2,11.1,5.6,14.5c1,2.5,2.2,5.2,2.2,7.8v5.6l0.2,13.9
			C95.4,72.1,94.8,72.6,94.1,72.6z"/>
		<path class="st0" d="M73.2,24.3c0,0,0,13.4,0,17.6c0,2.4,1.9,4.2,3.5,5.3c1.2,0.9,2.7,1.3,4.2,1.3h8.6c0,0-6.3-15.3-8.7-20
			C78.5,23.8,73.2,24.3,73.2,24.3z"/>
	</g>
</g>
</svg>
