<svg width="30.000000" height="30.000000" viewBox="0 0 30 30" fill="none" xmlns="http://www.w3.org/2000/svg" xmlns:xlink="http://www.w3.org/1999/xlink">
	<desc>
			Created with Pixso.
	</desc>
	<defs>
		<clipPath id="clip3_42">
			<rect id="Basket" rx="-0.500000" width="29.000000" height="29.000000" transform="translate(0.500000 0.500000)" fill="white" fill-opacity="0"/>
		</clipPath>
	</defs>
	<rect id="Basket" rx="-0.500000" width="29.000000" height="29.000000" transform="translate(0.500000 0.500000)" fill="#FFFFFF" fill-opacity="0"/>
	<g clip-path="url(#clip3_42)">
		<path id="Vector" d="M26.25 7.5L22.5 7.5C21.98 7.5 21.56 7.92 21.56 8.43C21.56 8.95 21.98 9.37 22.5 9.37L26.25 9.37C26.76 9.37 27.18 9.79 27.18 10.31L27.18 12.18C27.18 12.7 26.76 13.12 26.25 13.12L3.75 13.12C3.23 13.12 2.81 12.7 2.81 12.18L2.81 10.31C2.81 9.79 3.23 9.37 3.75 9.37L7.5 9.37C8.01 9.37 8.43 8.95 8.43 8.43C8.43 7.92 8.01 7.5 7.5 7.5L3.75 7.5C2.19 7.5 0.93 8.76 0.93 10.31L0.93 12.18C0.93 13.44 1.77 14.49 2.9 14.85L4.44 26.38C4.64 27.88 5.98 29.06 7.5 29.06L22.5 29.06C24.01 29.06 25.35 27.88 25.55 26.39L27.08 14.85C28.22 14.49 29.06 13.44 29.06 12.18L29.06 10.31C29.06 8.76 27.8 7.5 26.25 7.5ZM23.69 26.14C23.61 26.69 23.06 27.18 22.5 27.18L7.5 27.18C6.93 27.18 6.38 26.69 6.3 26.14L4.82 15L25.17 15L23.69 26.14Z" fill="#21201E" fill-opacity="1.000000" fill-rule="nonzero"/>
		<path id="Vector" d="M9.02 12.12C9.14 12.16 9.25 12.18 9.37 12.18C9.74 12.18 10.09 11.96 10.24 11.59L13.99 2.22C14.18 1.74 13.95 1.19 13.47 1C12.98 0.81 12.44 1.04 12.25 1.52L8.5 10.9C8.31 11.38 8.54 11.92 9.02 12.12ZM19.75 11.59C19.9 11.96 20.25 12.18 20.62 12.18C20.74 12.18 20.85 12.16 20.97 12.12C21.45 11.92 21.68 11.38 21.49 10.9L17.74 1.52C17.55 1.04 17 0.81 16.52 1C16.04 1.19 15.81 1.74 16 2.22L19.75 11.59ZM14.99 24.37C15.51 24.37 15.93 23.95 15.93 23.43L15.93 18.75C15.93 18.23 15.51 17.81 14.99 17.81C14.48 17.81 14.06 18.23 14.06 18.75L14.06 23.43C14.06 23.95 14.48 24.37 14.99 24.37ZM19.68 24.37C20.2 24.37 20.62 23.95 20.62 23.43L20.62 18.75C20.62 18.23 20.2 17.81 19.68 17.81C19.17 17.81 18.74 18.23 18.74 18.75L18.74 23.43C18.74 23.95 19.17 24.37 19.68 24.37ZM10.31 24.37C10.83 24.37 11.24 23.95 11.24 23.43L11.24 18.75C11.24 18.23 10.83 17.81 10.31 17.81C9.79 17.81 9.37 18.23 9.37 18.75L9.37 23.43C9.37 23.95 9.79 24.37 10.31 24.37Z" fill="#21201E" fill-opacity="1.000000" fill-rule="nonzero"/>
	</g>
</svg>
