<svg width="25.000000" height="25.000000" viewBox="0 0 25 25" fill="none" xmlns="http://www.w3.org/2000/svg" xmlns:xlink="http://www.w3.org/1999/xlink">
	<desc>
			Created with Pixso.
	</desc>
	<defs/>
	<path id="fb" d="M5 0L20 0C22.7617 0 25 2.23853 25 5L25 20C25 22.7615 22.7617 25 20 25L14.8477 25L14.8477 16.7434L17.6816 16.7434L18.2148 13.0753L14.8477 13.0753L14.8477 10.3522L14.8486 10.3513C14.8486 9.70056 15.376 9.17236 16.0264 9.17236L18.2158 9.17236L18.2158 6L14.8652 6C14.8594 6 14.8545 6.00171 14.8486 6.00171L14.8486 6C12.7812 6 11.1055 7.67639 11.1055 9.74353L11.1055 13.0753L8 13.0753L8 16.7434L11.1055 16.7434L11.1055 25L5 25C2.23828 25 0 22.7615 0 20L0 5C0 2.23853 2.23828 0 5 0Z" clip-rule="evenodd" fill="#F9B50A" fill-opacity="1.000000" fill-rule="evenodd"/>
</svg>
