<?xml version="1.0" encoding="utf-8"?>
<!-- Generator: Adobe Illustrator 27.0.0, SVG Export Plug-In . SVG Version: 6.00 Build 0)  -->
<svg version="1.1" id="Шар_1" xmlns="http://www.w3.org/2000/svg" xmlns:xlink="http://www.w3.org/1999/xlink" x="0px" y="0px"
	 viewBox="0 0 95 90" style="enable-background:new 0 0 95 90;" xml:space="preserve">
<style type="text/css">
	.st0{fill:#A5A5A5;}
</style>
<g>
	<path class="st0" d="M21.7,56.9c-4.1,0.8-6.9,4.7-6.1,8.9c0.8,4.1,4.7,6.9,8.9,6.1c4.1-0.8,6.9-4.7,6.1-8.9
		C29.8,58.8,25.9,56.1,21.7,56.9z M24,68.9c-2,0.4-3.9-0.9-4.2-2.9c-0.4-2,0.9-3.9,2.9-4.3c2-0.4,3.9,0.9,4.2,2.9
		C27.2,66.6,25.9,68.5,24,68.9z"/>
	<path class="st0" d="M45.1,56.5l-2.9-5c-0.1-0.2-0.2-0.3-0.4-0.3c0,0,0,0-0.1,0c-0.2-0.1-0.4,0-0.6,0.1l0,0l-1.8,1.1
		c-0.1,0-0.2,0.1-0.3,0.1c-0.3,0.1-0.5,0.3-0.8,0.3c-0.1,0-0.1,0-0.2,0.1l-0.1,0c-0.1,0-0.3,0.1-0.4,0.1l-0.1,0
		c-1.3,0.1-2-0.8-2-0.7c-0.3-0.2-0.5-0.5-0.8-0.7c0,0-1-0.6-1.1-1.9l1.4-3.9c0.1-0.2,0.1-0.4,0-0.6c-0.1-0.2-0.3-0.3-0.4-0.4
		l-5.4-1.9l0,0c-0.2-0.1-0.4-0.1-0.6,0c0,0-0.1,0-0.1,0.1c-0.2,0.1-0.3,0.2-0.3,0.4l-0.7,2c0,0.1-0.1,0.2-0.1,0.3
		c-0.5,1.2-1.2,1.7-1.8,1.9c-0.1,0-0.1,0.1-0.2,0.1c0,0,0,0,0,0c-0.2,0-0.3,0.1-0.4,0.1c0,0-0.1,0-0.1,0c-0.2,0-0.4,0-0.4,0
		c-0.4,0-0.7,0-1.1,0c0,0-1.1,0.2-2.1-0.8l-1.4-3.9c-0.1-0.2-0.2-0.4-0.4-0.4c-0.1,0-0.1,0-0.1-0.1c-0.2,0-0.3,0-0.5,0l-0.2,0.1
		l-5.2,2c-0.2,0.1-0.4,0.2-0.5,0.4s-0.1,0.4,0,0.6l0.7,2c0,0.1,0.1,0.2,0.1,0.3c0.8,2.5-0.9,3.4-0.9,3.5c-0.3,0.2-0.6,0.5-0.8,0.7
		c0,0,0,0-0.1,0.1c-0.1,0-0.1,0.1-0.1,0.1c-0.2,0.1-0.4,0.3-0.8,0.4c-0.1,0-0.1,0-0.2,0.1c-0.1,0-0.3,0.1-0.4,0.1c0,0-0.1,0-0.1,0
		c-0.1,0-0.2,0-0.4,0l-3.6-2c0,0-0.1,0-0.1,0c-0.2-0.1-0.3-0.1-0.5,0c-0.1,0-0.2,0.1-0.2,0.1C5,50.8,5,50.9,4.9,51L2,56.1
		c-0.1,0.2-0.1,0.4-0.1,0.6C2,56.9,2.2,57,2.3,57.1l1.9,1c0.1,0.1,0.2,0.1,0.2,0.2c2.3,1.4,1.5,3.2,1.5,3.2
		c-0.1,0.5-0.2,1.1-0.3,1.6c-0.1,0.4-0.4,1-1,1.5l-4,0.8c-0.2,0-0.4,0.1-0.5,0.3C0,65.9,0,66.1,0,66.3L1.1,72c0,0.2,0.1,0.4,0.3,0.5
		c0.2,0.1,0.4,0.2,0.6,0.1l2.1-0.4c0.1,0,0.2,0,0.3,0c2.6-0.4,3.2,1.5,3.2,1.5c0.3,0.5,0.5,1,0.8,1.5c0.2,0.4,0.3,1,0.1,1.7L6,80
		c-0.1,0.2-0.2,0.4-0.2,0.6c0,0.2,0.1,0.4,0.3,0.5l4.5,3.7c0.1,0.1,0.2,0.1,0.3,0.2c0.1,0,0.2,0,0.2,0c0.2,0,0.3-0.1,0.5-0.2
		c0,0,0.1-0.1,0.1-0.1l1.3-1.6c0.1-0.1,0.1-0.1,0.2-0.2c0.5-0.6,1.1-0.9,1.6-1.1c0,0,0.1,0,0.1,0c0.1,0,0.3-0.1,0.4-0.1
		c0.1,0,0.1,0,0.2,0c0.7,0,1.1,0.3,1.1,0.3c0.5,0.2,1,0.4,1.6,0.6c0.4,0.2,0.9,0.5,1.2,1.2l0,4.1c0,0.2,0.1,0.4,0.2,0.6
		c0.1,0.2,0.3,0.2,0.5,0.2l5.6,0l0.2,0c0.2,0,0.3-0.1,0.5-0.1c0,0,0.1-0.1,0.1-0.1c0.2-0.2,0.2-0.4,0.2-0.6l0-2.1c0-0.1,0-0.2,0-0.3
		c0.1-2.7,2-2.9,2-2.9c0.5-0.2,1-0.3,1.4-0.5c0,0,0,0,0.1,0c0,0,0,0,0,0c0.1,0,0.2-0.1,0.4-0.1l0,0c0.1,0,0.2,0,0.3,0
		c0.3,0,0.7,0.1,1.1,0.2l2.7,3.1c0.1,0.1,0.3,0.2,0.4,0.3c0,0,0.1,0,0.1,0c0.2,0,0.4,0,0.6-0.2l0,0l4.4-3.8c0.1-0.1,0.3-0.3,0.3-0.5
		c0-0.2-0.1-0.4-0.2-0.6L39,78.7c-0.1-0.1-0.1-0.2-0.2-0.2c-1.6-2.1-0.3-3.5-0.4-3.6c0.2-0.3,0.4-0.6,0.6-1c0,0,0,0,0.1-0.1
		c0-0.1,0.1-0.1,0.1-0.2c0.2-0.3,0.5-0.7,1.1-1c0,0,0.1,0,0.1,0c0.1,0,0.2-0.1,0.3-0.1l0.1,0l0.2,0l3.7,0.6l0.1,0
		c0.2,0,0.4,0,0.6-0.1c0,0,0,0,0,0c0.2-0.1,0.2-0.3,0.3-0.5l1-5.7c0-0.2,0-0.4-0.1-0.6c-0.1-0.2-0.3-0.3-0.5-0.3l-2.1-0.4
		c-0.1,0-0.2,0-0.3-0.1C41,64.9,41.1,63,41.1,63c0-0.3-0.1-0.6-0.1-0.9l0-0.2c0,0-0.4-1.1,0.4-2.2l3.5-2.1c0.2-0.1,0.3-0.3,0.4-0.5
		C45.2,56.9,45.2,56.6,45.1,56.5z M25.8,79c-8.1,1.5-15.9-3.9-17.4-12s3.8-15.9,11.9-17.4c8.1-1.5,15.9,3.9,17.4,12
		S33.9,77.5,25.8,79z"/>
	<path class="st0" d="M46.1,14.5c-4.1,0.8-6.9,4.7-6.1,8.9c0.8,4.1,4.7,6.9,8.9,6.1c4.1-0.8,6.9-4.7,6.1-8.9
		C54.2,16.5,50.2,13.7,46.1,14.5z M48.3,26.5c-2,0.4-3.9-0.9-4.2-2.9c-0.4-2,0.9-3.9,2.9-4.3c2-0.4,3.9,0.9,4.2,2.9
		C51.6,24.2,50.3,26.1,48.3,26.5z"/>
	<path class="st0" d="M69.4,14.1l-2.9-5c-0.1-0.2-0.2-0.3-0.4-0.3c0,0,0,0-0.1,0c-0.2-0.1-0.4,0-0.6,0.1l0,0l-1.8,1.1
		c-0.1,0-0.2,0.1-0.3,0.1c-0.3,0.1-0.5,0.3-0.8,0.3c-0.1,0-0.1,0-0.2,0.1l-0.1,0c-0.1,0-0.3,0.1-0.4,0.1l-0.1,0
		c-1.3,0.1-2-0.8-2-0.7c-0.3-0.2-0.5-0.5-0.8-0.7c0,0-1-0.6-1.1-1.9l1.4-3.9c0.1-0.2,0.1-0.4,0-0.6c-0.1-0.2-0.3-0.3-0.4-0.4
		l-5.4-1.9l0,0c-0.2-0.1-0.4-0.1-0.6,0c0,0-0.1,0-0.1,0.1c-0.2,0.1-0.3,0.2-0.3,0.4l-0.7,2c0,0.1-0.1,0.2-0.1,0.3
		c-0.5,1.2-1.2,1.7-1.8,1.9c-0.1,0-0.1,0.1-0.2,0.1c0,0,0,0,0,0c-0.2,0-0.3,0.1-0.4,0.1c0,0-0.1,0-0.1,0c-0.2,0-0.4,0-0.4,0
		c-0.4,0-0.7,0-1.1,0c0,0-1.1,0.2-2.1-0.8l-1.4-3.9c-0.1-0.2-0.2-0.4-0.4-0.4c-0.1,0-0.1,0-0.1-0.1c-0.2,0-0.3,0-0.5,0l-0.2,0.1
		l-5.2,2c-0.2,0.1-0.4,0.2-0.5,0.4c-0.1,0.2-0.1,0.4,0,0.6l0.7,2c0,0.1,0.1,0.2,0.1,0.3c0.8,2.5-0.9,3.4-0.9,3.5
		c-0.3,0.2-0.6,0.5-0.8,0.7c0,0,0,0-0.1,0.1c-0.1,0-0.1,0.1-0.1,0.1c-0.2,0.1-0.4,0.3-0.8,0.4c-0.1,0-0.1,0-0.2,0.1
		c-0.1,0-0.3,0.1-0.4,0.1c0,0-0.1,0-0.1,0c-0.1,0-0.2,0-0.4,0l-3.6-2c0,0-0.1,0-0.1,0c-0.2-0.1-0.3-0.1-0.5,0
		c-0.1,0-0.2,0.1-0.2,0.1c-0.1,0.1-0.2,0.2-0.3,0.3l-2.8,5.1c-0.1,0.2-0.1,0.4-0.1,0.6c0.1,0.2,0.2,0.4,0.4,0.5l1.9,1
		c0.1,0.1,0.2,0.1,0.2,0.2c2.3,1.4,1.5,3.2,1.5,3.2c-0.1,0.5-0.2,1.1-0.3,1.6c-0.1,0.4-0.4,1-1,1.5L25,23c-0.2,0-0.4,0.1-0.5,0.3
		c-0.1,0.2-0.2,0.4-0.1,0.6l1.1,5.7c0,0.2,0.1,0.4,0.3,0.5c0.2,0.1,0.4,0.2,0.6,0.1l2.1-0.4c0.1,0,0.2,0,0.3,0
		c2.6-0.4,3.2,1.5,3.2,1.5c0.3,0.5,0.5,1,0.8,1.5c0.2,0.4,0.3,1,0.1,1.7l-2.6,3.2c-0.1,0.2-0.2,0.4-0.2,0.6c0,0.2,0.1,0.4,0.3,0.5
		l4.5,3.7c0.1,0.1,0.2,0.1,0.3,0.2c0.1,0,0.2,0,0.2,0c0.2,0,0.3-0.1,0.5-0.2c0,0,0.1-0.1,0.1-0.1l1.3-1.6c0.1-0.1,0.1-0.1,0.2-0.2
		c0.5-0.6,1.1-0.9,1.6-1.1c0,0,0.1,0,0.1,0c0.1,0,0.3-0.1,0.4-0.1c0.1,0,0.1,0,0.2,0c0.7,0,1.1,0.3,1.1,0.3c0.5,0.2,1,0.4,1.6,0.6
		c0.4,0.2,0.9,0.5,1.2,1.2l0,4.1c0,0.2,0.1,0.4,0.2,0.6c0.1,0.2,0.3,0.2,0.5,0.2l5.6,0l0.2,0c0.2,0,0.3-0.1,0.5-0.1
		c0,0,0.1-0.1,0.1-0.1c0.2-0.2,0.2-0.4,0.2-0.6l0-2.1c0-0.1,0-0.2,0-0.3c0.1-2.7,2-2.9,2-2.9c0.5-0.2,1-0.3,1.4-0.5c0,0,0,0,0.1,0
		c0,0,0,0,0,0c0.1,0,0.2-0.1,0.4-0.1l0,0c0.1,0,0.2,0,0.3,0c0.3,0,0.7,0.1,1.1,0.2l2.7,3.1c0.1,0.1,0.3,0.2,0.4,0.3c0,0,0.1,0,0.1,0
		c0.2,0,0.4,0,0.6-0.2l0,0l4.4-3.8c0.1-0.1,0.3-0.3,0.3-0.5c0-0.2-0.1-0.4-0.2-0.6l-1.4-1.6c-0.1-0.1-0.1-0.2-0.2-0.2
		c-1.6-2.1-0.3-3.5-0.4-3.6c0.2-0.3,0.4-0.6,0.6-1c0,0,0,0,0.1-0.1c0-0.1,0.1-0.1,0.1-0.2c0.2-0.3,0.5-0.7,1.1-1c0,0,0.1,0,0.1,0
		c0.1,0,0.2-0.1,0.3-0.1l0.1,0l0.2,0l3.7,0.6l0.1,0c0.2,0,0.4,0,0.6-0.1c0,0,0,0,0,0c0.2-0.1,0.2-0.3,0.3-0.5l1-5.7
		c0-0.2,0-0.4-0.1-0.6c-0.1-0.2-0.3-0.3-0.5-0.3l-2.1-0.4c-0.1,0-0.2,0-0.3-0.1c-2.6-0.6-2.5-2.5-2.6-2.5c0-0.3-0.1-0.6-0.1-0.9
		l0-0.2c0,0-0.4-1.1,0.4-2.2l3.5-2.1c0.2-0.1,0.3-0.3,0.4-0.5C69.6,14.5,69.5,14.3,69.4,14.1z M50.2,36.6c-8.1,1.5-15.9-3.9-17.4-12
		S36.6,8.7,44.7,7.2c8.1-1.5,15.9,3.9,17.4,12S58.3,35.1,50.2,36.6z"/>
	<path class="st0" d="M70.1,58.2C65.9,59,63.2,63,64,67.2c0.8,4.1,4.7,6.9,8.9,6.1c4.1-0.8,6.9-4.7,6.1-8.9
		C78.2,60.2,74.2,57.5,70.1,58.2z M72.3,70.3c-2,0.4-3.9-0.9-4.2-2.9c-0.4-2,0.9-3.9,2.9-4.3c2-0.4,3.9,0.9,4.2,2.9
		C75.6,68,74.3,69.9,72.3,70.3z"/>
	<path class="st0" d="M93.4,57.9l-2.9-5c-0.1-0.2-0.2-0.3-0.4-0.3c0,0,0,0-0.1,0c-0.2-0.1-0.4,0-0.6,0.1l0,0l-1.8,1.1
		c-0.1,0-0.2,0.1-0.3,0.1c-0.3,0.1-0.5,0.3-0.8,0.3c-0.1,0-0.1,0-0.2,0.1l-0.1,0c-0.1,0-0.3,0.1-0.4,0.1l-0.1,0
		c-1.3,0.1-2-0.8-2-0.7c-0.3-0.2-0.5-0.5-0.8-0.7c0,0-1-0.6-1.1-1.9l1.4-3.9c0.1-0.2,0.1-0.4,0-0.6C83,46.2,82.8,46,82.6,46L77.2,44
		l0,0c-0.2-0.1-0.4-0.1-0.6,0c0,0-0.1,0-0.1,0.1c-0.2,0.1-0.3,0.2-0.3,0.4l-0.7,2c0,0.1-0.1,0.2-0.1,0.3c-0.5,1.2-1.2,1.7-1.8,1.9
		c-0.1,0-0.1,0.1-0.2,0.1c0,0,0,0,0,0c-0.2,0-0.3,0.1-0.4,0.1c0,0-0.1,0-0.1,0c-0.2,0-0.4,0-0.4,0c-0.4,0-0.7,0-1.1,0
		c0,0-1.1,0.2-2.1-0.8l-1.4-3.9c-0.1-0.2-0.2-0.4-0.4-0.4c-0.1,0-0.1,0-0.1-0.1c-0.2,0-0.3,0-0.5,0l-0.2,0.1l-5.2,2
		c-0.2,0.1-0.4,0.2-0.5,0.4s-0.1,0.4,0,0.6l0.7,2c0,0.1,0.1,0.2,0.1,0.3c0.8,2.5-0.9,3.4-0.9,3.5c-0.3,0.2-0.6,0.5-0.8,0.7
		c0,0,0,0-0.1,0.1c-0.1,0-0.1,0.1-0.1,0.1c-0.2,0.1-0.4,0.3-0.8,0.4c-0.1,0-0.1,0-0.2,0.1c-0.1,0-0.3,0.1-0.4,0.1c0,0-0.1,0-0.1,0
		c-0.1,0-0.2,0-0.4,0l-3.6-2c0,0-0.1,0-0.1,0c-0.2-0.1-0.3-0.1-0.5,0c-0.1,0-0.2,0.1-0.2,0.1c-0.1,0.1-0.2,0.2-0.3,0.3l-2.8,5.1
		c-0.1,0.2-0.1,0.4-0.1,0.6c0.1,0.2,0.2,0.4,0.4,0.5l1.9,1c0.1,0.1,0.2,0.1,0.2,0.2c2.3,1.4,1.5,3.2,1.5,3.2
		c-0.1,0.5-0.2,1.1-0.3,1.6c-0.1,0.4-0.4,1-1,1.5l-4,0.8c-0.2,0-0.4,0.1-0.5,0.3c-0.1,0.2-0.2,0.4-0.1,0.6l1.1,5.7
		c0,0.2,0.1,0.4,0.3,0.5c0.2,0.1,0.4,0.2,0.6,0.1l2.1-0.4c0.1,0,0.2,0,0.3,0c2.6-0.4,3.2,1.5,3.2,1.5c0.3,0.5,0.5,1,0.8,1.5
		c0.2,0.4,0.3,1,0.1,1.7l-2.6,3.2c-0.1,0.2-0.2,0.4-0.2,0.6s0.1,0.4,0.3,0.5l4.5,3.7c0.1,0.1,0.2,0.1,0.3,0.2c0.1,0,0.2,0,0.2,0
		c0.2,0,0.3-0.1,0.5-0.2c0,0,0.1-0.1,0.1-0.1l1.3-1.6c0.1-0.1,0.1-0.1,0.2-0.2c0.5-0.6,1.1-0.9,1.6-1.1c0,0,0.1,0,0.1,0
		c0.1,0,0.3-0.1,0.4-0.1c0.1,0,0.1,0,0.2,0c0.7,0,1.1,0.3,1.1,0.3c0.5,0.2,1,0.4,1.6,0.6c0.4,0.2,0.9,0.5,1.2,1.2l0,4.1
		c0,0.2,0.1,0.4,0.2,0.6c0.1,0.2,0.3,0.2,0.5,0.2l5.6,0l0.2,0c0.2,0,0.3-0.1,0.5-0.1c0,0,0.1-0.1,0.1-0.1c0.2-0.2,0.2-0.4,0.2-0.6
		l0-2.1c0-0.1,0-0.2,0-0.3c0.1-2.7,2-2.9,2-2.9c0.5-0.2,1-0.3,1.4-0.5c0,0,0,0,0.1,0c0,0,0,0,0,0c0.1,0,0.2-0.1,0.4-0.1l0,0
		c0.1,0,0.2,0,0.3,0c0.3,0,0.7,0.1,1.1,0.2l2.7,3.1c0.1,0.1,0.3,0.2,0.4,0.3c0,0,0.1,0,0.1,0c0.2,0,0.4,0,0.6-0.2l0,0l4.4-3.8
		c0.1-0.1,0.3-0.3,0.3-0.5c0-0.2-0.1-0.4-0.2-0.6l-1.4-1.6c-0.1-0.1-0.1-0.2-0.2-0.2c-1.6-2.1-0.3-3.5-0.4-3.6
		c0.2-0.3,0.4-0.6,0.6-1c0,0,0,0,0.1-0.1c0-0.1,0.1-0.1,0.1-0.2c0.2-0.3,0.5-0.7,1.1-1c0,0,0.1,0,0.1,0c0.1,0,0.2-0.1,0.3-0.1l0.1,0
		l0.2,0l3.7,0.6l0.1,0c0.2,0,0.4,0,0.6-0.1c0,0,0,0,0,0c0.2-0.1,0.2-0.3,0.3-0.5l1-5.7c0-0.2,0-0.4-0.1-0.6
		c-0.1-0.2-0.3-0.3-0.5-0.3l-2.1-0.4c-0.1,0-0.2,0-0.3-0.1c-2.6-0.6-2.5-2.5-2.6-2.5c0-0.3-0.1-0.6-0.1-0.9l0-0.2
		c0,0-0.4-1.1,0.4-2.2l3.5-2.1c0.2-0.1,0.3-0.3,0.4-0.5C93.5,58.2,93.5,58,93.4,57.9z M74.2,80.4c-8.1,1.5-15.9-3.9-17.4-12
		S60.6,52.5,68.7,51c8.1-1.5,15.9,3.9,17.4,12S82.3,78.9,74.2,80.4z"/>
</g>
</svg>
