<svg width="136.000000" height="136.000000" viewBox="0 0 136 136" fill="none" xmlns="http://www.w3.org/2000/svg" xmlns:xlink="http://www.w3.org/1999/xlink">
	<desc>
			Created with Pixso.
	</desc>
	<defs>
		<clipPath id="clip1_75">
			<rect id="Goods Weighing" rx="-0.500000" width="135.000000" height="135.000000" transform="translate(0.500000 0.500000)" fill="white" fill-opacity="0"/>
		</clipPath>
	</defs>
	<rect id="Goods Weighing" rx="-0.500000" width="135.000000" height="135.000000" transform="translate(0.500000 0.500000)" fill="#FFFFFF" fill-opacity="0"/>
	<g clip-path="url(#clip1_75)">
		<path id="Vector" d="M111.62 50.11L111.62 86.87L81.22 86.87L81.22 37.34C81.22 36.61 80.63 36.02 79.89 36.02L29.04 36.02C28.3 36.02 27.71 36.61 27.71 37.34L27.71 86.87L16.64 86.87C15.91 86.87 15.31 87.47 15.31 88.2L15.31 97.04L4.25 97.04C3.51 97.04 2.92 97.64 2.92 98.37L2.92 110.13C2.92 110.87 3.51 111.46 4.25 111.46L12.95 111.46C11.46 113.01 10.55 115.12 10.55 117.44C10.55 122.21 14.42 126.08 19.18 126.08C23.95 126.08 27.82 122.21 27.82 117.44C27.82 115.12 26.91 113.01 25.41 111.46L107.99 111.46C106.5 113.01 105.58 115.12 105.58 117.44C105.58 122.21 109.45 126.08 114.22 126.08C118.99 126.08 122.86 122.21 122.86 117.44C122.86 115.12 121.94 113.01 120.45 111.46L122.49 111.46C123.22 111.46 123.81 110.87 123.81 110.13L123.81 88.2C123.81 87.47 123.22 86.87 122.49 86.87L114.28 86.87L114.28 50.11C124.77 49.43 133.07 40.69 133.07 30.03C133.07 18.93 124.06 9.91 112.95 9.91C101.84 9.91 92.83 18.93 92.83 30.03C92.83 40.69 101.13 49.43 111.62 50.11ZM114.22 111.46C117.52 111.46 120.2 114.14 120.2 117.44C120.2 120.74 117.52 123.42 114.22 123.42C110.92 123.42 108.24 120.74 108.24 117.44C108.24 114.14 110.92 111.46 114.22 111.46ZM19.18 111.46C22.49 111.46 25.17 114.14 25.17 117.44C25.17 120.74 22.49 123.42 19.18 123.42C15.88 123.42 13.2 120.74 13.2 117.44C13.2 114.14 15.88 111.46 19.18 111.46ZM5.57 99.7L121.16 99.7L121.16 108.8L5.57 108.8L5.57 99.7ZM121.16 89.53L17.97 89.53L17.97 97.04L121.16 97.04L121.16 89.53ZM30.37 86.87L30.37 38.67L78.57 38.67L78.57 86.87L30.37 86.87ZM45.61 77.32L69.68 77.32C70.41 77.32 71.01 76.73 71.01 75.99C71.01 75.26 70.41 74.67 69.68 74.67L45.61 74.67C44.87 74.67 44.28 75.26 44.28 75.99C44.28 76.73 44.87 77.32 45.61 77.32ZM50.06 70.71L74.13 70.71C74.86 70.71 75.46 70.12 75.46 69.38C75.46 68.65 74.86 68.05 74.13 68.05L50.06 68.05C49.32 68.05 48.73 68.65 48.73 69.38C48.73 70.12 49.32 70.71 50.06 70.71ZM55.82 64.1L74.13 64.1C74.86 64.1 75.46 63.5 75.46 62.77C75.46 62.04 74.86 61.44 74.13 61.44L55.82 61.44C55.09 61.44 54.49 62.04 54.49 62.77C54.49 63.5 55.09 64.1 55.82 64.1ZM75.46 43.11C75.46 42.37 74.86 41.78 74.13 41.78L61.92 41.78C61.19 41.78 60.6 42.37 60.6 43.11L60.6 55.31C60.6 56.05 61.19 56.64 61.92 56.64L74.13 56.64C74.86 56.64 75.46 56.05 75.46 55.31L75.46 43.11ZM72.8 44.44L72.8 53.98L63.25 53.98L63.25 44.44L72.8 44.44ZM112.95 12.57C122.59 12.57 130.42 20.39 130.42 30.03C130.42 39.67 122.59 47.5 112.95 47.5C103.31 47.5 95.48 39.67 95.48 30.03C95.48 20.39 103.31 12.57 112.95 12.57ZM112.95 15.63C105 15.63 98.55 22.08 98.55 30.03C98.55 37.98 105 44.44 112.95 44.44C120.9 44.44 127.35 37.98 127.35 30.03C127.35 22.08 120.9 15.63 112.95 15.63ZM112.95 18.29C119.43 18.29 124.7 23.55 124.7 30.03C124.7 36.52 119.43 41.78 112.95 41.78C106.47 41.78 101.2 36.52 101.2 30.03C101.2 23.55 106.47 18.29 112.95 18.29ZM115.71 25.4L112.01 29.09C111.49 29.61 111.49 30.45 112.01 30.97C112.53 31.49 113.37 31.49 113.89 30.97L117.59 27.27L117.69 29.86C117.72 30.59 118.34 31.16 119.07 31.14C119.8 31.11 120.37 30.49 120.35 29.76L120.12 24.15C120.12 24.03 120.1 23.91 120.07 23.81C120 23.59 119.89 23.41 119.74 23.26L119.73 23.25C119.58 23.1 119.39 22.98 119.18 22.92C119.07 22.89 118.95 22.87 118.84 22.86L113.23 22.64C112.5 22.61 111.88 23.18 111.85 23.91C111.82 24.64 112.39 25.26 113.12 25.29L115.71 25.4Z" fill="#F9B50A" fill-opacity="1.000000" fill-rule="evenodd"/>
		<path id="Vector" d="M111.62 86.87L81.22 86.87L81.22 37.34C81.22 36.61 80.63 36.02 79.89 36.02L29.04 36.02C28.3 36.02 27.71 36.61 27.71 37.34L27.71 86.87L16.64 86.87C15.91 86.87 15.31 87.47 15.31 88.2L15.31 97.04L4.25 97.04C3.51 97.04 2.92 97.64 2.92 98.37L2.92 110.13C2.92 110.87 3.51 111.46 4.25 111.46L12.95 111.46C11.46 113.01 10.55 115.12 10.55 117.44C10.55 122.21 14.42 126.08 19.18 126.08C23.95 126.08 27.82 122.21 27.82 117.44C27.82 115.12 26.91 113.01 25.41 111.46L107.99 111.46C106.5 113.01 105.58 115.12 105.58 117.44C105.58 122.21 109.45 126.08 114.22 126.08C118.99 126.08 122.86 122.21 122.86 117.44C122.86 115.12 121.94 113.01 120.45 111.46L122.49 111.46C123.22 111.46 123.81 110.87 123.81 110.13L123.81 88.2C123.81 87.47 123.22 86.87 122.49 86.87L114.28 86.87L114.28 50.11C124.77 49.43 133.07 40.69 133.07 30.03C133.07 18.93 124.06 9.91 112.95 9.91C101.84 9.91 92.83 18.93 92.83 30.03C92.83 40.69 101.13 49.43 111.62 50.11L111.62 86.87ZM120.2 117.44C120.2 120.74 117.52 123.42 114.22 123.42C110.92 123.42 108.24 120.74 108.24 117.44C108.24 114.14 110.92 111.46 114.22 111.46C117.52 111.46 120.2 114.14 120.2 117.44ZM25.17 117.44C25.17 120.74 22.49 123.42 19.18 123.42C15.88 123.42 13.2 120.74 13.2 117.44C13.2 114.14 15.88 111.46 19.18 111.46C22.49 111.46 25.17 114.14 25.17 117.44ZM121.16 99.7L121.16 108.8L5.57 108.8L5.57 99.7L121.16 99.7ZM17.97 89.53L17.97 97.04L121.16 97.04L121.16 89.53L17.97 89.53ZM30.37 38.67L78.57 38.67L78.57 86.87L30.37 86.87L30.37 38.67ZM69.68 77.32C70.41 77.32 71.01 76.73 71.01 75.99C71.01 75.26 70.41 74.67 69.68 74.67L45.61 74.67C44.87 74.67 44.28 75.26 44.28 75.99C44.28 76.73 44.87 77.32 45.61 77.32L69.68 77.32ZM74.13 70.71C74.86 70.71 75.46 70.12 75.46 69.38C75.46 68.65 74.86 68.05 74.13 68.05L50.06 68.05C49.32 68.05 48.73 68.65 48.73 69.38C48.73 70.12 49.32 70.71 50.06 70.71L74.13 70.71ZM74.13 64.1C74.86 64.1 75.46 63.5 75.46 62.77C75.46 62.04 74.86 61.44 74.13 61.44L55.82 61.44C55.09 61.44 54.49 62.04 54.49 62.77C54.49 63.5 55.09 64.1 55.82 64.1L74.13 64.1ZM74.13 41.78L61.92 41.78C61.19 41.78 60.6 42.37 60.6 43.11L60.6 55.31C60.6 56.05 61.19 56.64 61.92 56.64L74.13 56.64C74.86 56.64 75.46 56.05 75.46 55.31L75.46 43.11C75.46 42.37 74.86 41.78 74.13 41.78ZM72.8 53.98L63.25 53.98L63.25 44.44L72.8 44.44L72.8 53.98ZM130.42 30.03C130.42 39.67 122.59 47.5 112.95 47.5C103.31 47.5 95.48 39.67 95.48 30.03C95.48 20.39 103.31 12.57 112.95 12.57C122.59 12.57 130.42 20.39 130.42 30.03ZM98.55 30.03C98.55 37.98 105 44.44 112.95 44.44C120.9 44.44 127.35 37.98 127.35 30.03C127.35 22.08 120.9 15.63 112.95 15.63C105 15.63 98.55 22.08 98.55 30.03ZM124.7 30.03C124.7 36.52 119.43 41.78 112.95 41.78C106.47 41.78 101.2 36.52 101.2 30.03C101.2 23.55 106.47 18.29 112.95 18.29C119.43 18.29 124.7 23.55 124.7 30.03ZM112.01 29.09C111.49 29.61 111.49 30.45 112.01 30.97C112.53 31.49 113.37 31.49 113.89 30.97L117.59 27.27L117.69 29.86C117.72 30.59 118.34 31.16 119.07 31.14C119.8 31.11 120.37 30.49 120.35 29.76L120.12 24.15C120.12 24.03 120.1 23.91 120.07 23.81C120 23.59 119.89 23.41 119.74 23.26L119.73 23.25C119.58 23.1 119.39 22.98 119.18 22.92C119.07 22.89 118.95 22.87 118.84 22.86L113.23 22.64C112.5 22.61 111.88 23.18 111.85 23.91C111.82 24.64 112.39 25.26 113.12 25.29L115.71 25.4L112.01 29.09Z" stroke="#F9B50A" stroke-opacity="1.000000" stroke-width="1.000000"/>
	</g>
</svg>
