<svg width="25.000000" height="25.000000" viewBox="0 0 25 25" fill="none" xmlns="http://www.w3.org/2000/svg" xmlns:xlink="http://www.w3.org/1999/xlink">
	<desc>
			Created with Pixso.
	</desc>
	<defs/>
	<path id="insta" d="M5 0L20 0C22.7617 0 25 2.23853 25 5L25 20C25 22.7615 22.7617 25 20 25L5 25C2.23828 25 0 22.7615 0 20L0 5C0 2.23853 2.23828 0 5 0ZM8.75391 5L16.2461 5C18.3164 5 20 6.75867 20 8.92053L20 16.0795C20 18.2413 18.3164 20 16.2461 20L8.75391 20C6.68359 20 5 18.2413 5 16.0795L5 8.92053C5 6.75867 6.68359 5 8.75391 5ZM8.75391 6.38306C7.41406 6.38306 6.32422 7.52161 6.32422 8.92053L6.32422 16.0795C6.32422 17.4784 7.41406 18.6169 8.75391 18.6169L16.2461 18.6169C17.5859 18.6169 18.6758 17.4784 18.6758 16.0795L18.6758 8.92053C18.6758 7.52161 17.5859 6.38306 16.2461 6.38306L8.75391 6.38306ZM17.2559 8.45898C17.2559 9.00122 16.833 9.44165 16.3154 9.44165C15.7959 9.44165 15.374 9.00122 15.374 8.45898C15.374 7.91675 15.7959 7.47644 16.3154 7.47644C16.834 7.47644 17.2559 7.91675 17.2559 8.45898ZM12.5 16.146C14.4248 16.146 15.9922 14.5104 15.9922 12.4991C15.9922 10.4879 14.4258 8.85242 12.5 8.85242C10.5752 8.85242 9.00879 10.4879 9.00879 12.4991C9.00879 14.5104 10.5752 16.146 12.5 16.146ZM12.5 10.2363C13.6953 10.2363 14.668 11.2517 14.668 12.5001C14.668 13.7484 13.6953 14.7638 12.5 14.7638C11.3047 14.7638 10.333 13.7484 10.333 12.5001C10.333 11.2517 11.3047 10.2363 12.5 10.2363Z" clip-rule="evenodd" fill="#F9B50A" fill-opacity="1.000000" fill-rule="evenodd"/>
</svg>
