<svg width="142" height="80" viewBox="0 0 142 80" fill="none" xmlns="http://www.w3.org/2000/svg">
<path d="M45.2269 28.2082C49.707 18.5485 59.5263 11.8306 70.8934 11.8306C82.2605 11.8306 92.0798 18.5485 96.5599 28.2082H104.292L102.162 23.541L99.762 24.1774C98.7325 22.3035 97.5184 20.5356 96.1126 18.8738L97.5894 16.8726L93.9897 13.2802L91.9804 14.7582C89.9924 13.0964 87.8482 11.6892 85.562 10.5506L86.1087 8.14633L81.3659 6.29359L80.1234 8.42919C78.0644 7.82811 75.9486 7.43918 73.776 7.24825L73.4068 4.79443H68.3019L67.9327 7.24825C65.3128 7.47454 62.8136 7.97661 60.4067 8.78984L59.0932 6.71081L54.4143 8.74034L55.0533 11.1164C53.2002 12.1276 51.3684 13.3792 49.7212 14.7511L47.8326 13.358L47.7261 13.2802L44.1193 16.8726L45.589 18.8597C43.9205 20.8326 42.5005 22.9965 41.3574 25.2665C41.3503 25.2806 41.3645 25.2523 41.3574 25.2665L39.1351 24.7432L38.9789 24.7078L37.5802 28.2082H45.2269ZM70.8863 68.1198C59.5192 68.1198 49.6857 61.3382 45.2056 51.6786L37.5376 51.6503L39.5682 56.2821L41.9467 55.6457C41.9396 55.6315 41.9538 55.6598 41.9467 55.6457C42.9833 57.6115 44.2116 59.3016 45.5961 60.9564L44.1264 62.9364L47.7332 66.5287L47.8113 66.4722L49.7283 65.0578C49.707 65.0366 49.7496 65.0791 49.7283 65.0578C51.7802 66.8045 53.896 68.141 56.1538 69.2654L55.6 71.6626L60.3499 73.5154L61.5853 71.3868C63.7508 72.0304 65.8169 72.3769 67.9327 72.5678L68.3019 75.0216H73.4068L73.776 72.5678C76.3604 72.3415 78.8809 71.8253 81.302 71.0191L82.6226 73.1052L87.2944 71.0757L86.6554 68.6926C88.5298 67.6672 90.3119 66.458 91.9733 65.0578L93.9826 66.5358L97.5823 62.9435L96.1055 60.9493C97.774 58.9693 99.1869 56.8266 100.323 54.5496L102.744 55.1012L104.1 51.6503L96.5386 51.6786C92.0727 61.3382 82.2605 68.1198 70.8863 68.1198Z" fill="#F2990D"/>
<path d="M102.751 55.1012L102.595 55.0659L100.337 54.5496C100.33 54.5638 100.323 54.5709 100.323 54.585C99.187 56.8408 97.7812 58.9764 96.1198 60.9494L97.5965 62.9435L93.9969 66.5358L93.8974 66.4651L91.9875 65.0579C91.9591 65.0791 91.9379 65.1003 91.9095 65.1215C90.2693 66.4934 88.5156 67.6814 86.6696 68.6856L87.3086 71.0687L82.6369 73.0982L82.6014 73.0416L81.3233 71.0121C81.2737 71.0263 81.2311 71.0475 81.1814 71.0545C78.81 71.8395 76.3321 72.3416 73.7974 72.5608L73.4281 75.0146H68.3232L67.954 72.5608C65.7814 72.3769 63.6586 71.9809 61.6066 71.3798L61.5854 71.4223L60.3712 73.5084L60.2364 73.4589L55.6284 71.6556L56.1822 69.2584C53.896 68.1269 51.7447 66.7126 49.7567 65.0508L49.6644 65.1215L47.7616 66.5288L47.6906 66.4581L44.1264 62.9364L45.5961 60.9494C44.2045 59.2875 42.9762 57.5126 41.9467 55.6386L41.7976 55.6811L39.5682 56.2751L39.554 56.2327L37.5447 51.6432H33.9521L34.513 52.9303L36.5507 57.5833L37.6867 60.1715L40.3989 59.4502C40.7468 59.9735 41.0947 60.4968 41.471 61.0059L39.7954 63.2617L47.4137 70.8495L49.6786 69.1806C50.559 69.817 51.4608 70.411 52.3909 70.9555L51.766 73.6851L54.4072 74.7176L59.1571 76.5703L61.7912 77.5957L63.2041 75.1631C63.8218 75.2904 64.4324 75.4035 65.0572 75.5096L65.4761 78.2887H76.2468L76.6729 75.5025C77.7379 75.3257 78.7957 75.1136 79.8465 74.8449L81.3446 77.228L83.9433 76.0965L88.615 74.067L91.2136 72.9356L90.4823 70.213C91.0078 69.8736 91.526 69.52 92.0301 69.1523L94.3093 70.8353L96.3115 68.8341L99.9111 65.2418L101.913 63.2476L100.238 60.9776C100.87 60.1008 101.466 59.2027 102.02 58.2763L104.775 58.9057L105.804 56.2751L107.636 51.6291H104.093L102.751 55.1012ZM37.5944 28.2083L38.9718 24.7503L38.986 24.7149L41.2296 25.2241L41.3858 25.2594C42.5289 22.9824 43.9418 20.8397 45.6103 18.8597L44.1406 16.8726L47.7474 13.2803L49.6573 14.6875L49.7496 14.7512C51.411 13.3581 53.2002 12.1418 55.0817 11.1164L54.4427 8.74039L58.9867 6.76744L59.1216 6.71087L60.4139 8.74746L60.4352 8.78989C62.8562 7.99081 65.3767 7.46752 67.9612 7.2483L68.3303 4.79449H73.4353L73.8044 7.2483C75.9202 7.43216 77.9935 7.82109 80.0098 8.38681C80.0596 8.40096 80.1021 8.4151 80.1519 8.42924L81.3589 6.35022L81.3944 6.30072L86.1371 8.15345L85.5905 10.5578C87.8411 11.6821 89.964 13.0611 91.9236 14.6946C91.952 14.7158 91.9804 14.737 92.0089 14.7653L93.9188 13.3581L94.0181 13.2874L97.6179 16.8797L96.141 18.8809C97.5326 20.5286 98.7396 22.2894 99.7691 24.1421C99.7762 24.1563 99.7833 24.1634 99.7905 24.1775L102.041 23.5835L102.19 23.5411L104.32 28.2083L107.813 28.1658L107.253 26.8788L105.215 22.2258L104.079 19.6376L101.345 20.366C101.005 19.8497 100.65 19.3264 100.287 18.8244L101.963 16.5544L94.3519 8.97375L92.0728 10.6497C91.1924 10.0133 90.2906 9.42633 89.3676 8.87475L89.9995 6.131L87.3158 5.09149L82.5729 3.23875L79.9318 2.20631L78.5189 4.64598C77.9082 4.5187 77.2906 4.40555 76.6729 4.29948L76.2468 1.51331H65.4761L65.0572 4.29948C63.9851 4.46213 62.9272 4.68841 61.8764 4.95006L60.3783 2.57403L57.7797 3.70547L53.1079 5.735L50.5164 6.86644L51.2406 9.57483C50.7152 9.91426 50.1898 10.2678 49.6857 10.6356L47.4208 8.96668L45.4115 10.9608L41.8047 14.5532L39.7954 16.5473L41.471 18.8032C40.8391 19.68 40.2427 20.5781 39.6818 21.5045L36.9483 20.8822L35.9117 23.5128L34.0515 28.2012H37.5944V28.2083Z" fill="#020203"/>
<path d="M87.0318 51.6433C83.3824 56.6216 77.4823 59.8604 70.8367 59.8604C64.1911 59.8604 58.291 56.6216 54.6487 51.6433H49.0965C53.2855 59.323 61.4647 64.5417 70.8367 64.5417C80.2158 64.5417 88.3879 59.3159 92.584 51.6433H87.0318ZM70.8296 19.9488C77.4752 19.9488 83.3682 23.1805 87.0176 28.1588H92.5769C88.3808 20.4792 80.2087 15.2604 70.8296 15.2604C61.4576 15.2604 53.2855 20.4792 49.0894 28.1588H54.6416C58.291 23.1875 64.1911 19.9488 70.8296 19.9488Z" fill="#020203"/>
<path d="M138.827 31.8501L133.203 47.9661H47.4282L53.3141 31.8501H138.827Z" fill="white"/>
<path d="M8.17932 30.7328L1.61182 49.0763H133.998L140.396 30.7328H8.17932ZM133.203 47.9661H47.4281L53.3069 31.8501H138.826L133.203 47.9661Z" fill="#020203"/>
<path d="M13.909 45.9507C12.7375 45.9507 11.779 45.788 11.0193 45.4627C10.2596 45.1375 9.72001 44.7132 9.39341 44.1757C9.06681 43.6454 8.95321 43.0726 9.05261 42.4715C9.07391 42.3725 9.12361 42.2876 9.20171 42.2169C9.27981 42.1462 9.37211 42.1179 9.47151 42.1179H12.1553C12.3257 42.1179 12.4464 42.1462 12.5245 42.1957C12.6026 42.2452 12.6807 42.3159 12.7588 42.4079C12.8298 42.5281 12.9221 42.6483 13.0357 42.7544C13.1564 42.8604 13.3126 42.9453 13.5043 43.0089C13.7031 43.0726 13.9374 43.1009 14.2072 43.1009C14.7255 43.1009 15.1444 43.0301 15.4639 42.8887C15.7834 42.7473 15.9751 42.5564 16.0319 42.3089C16.0745 42.1179 16.0319 41.9623 15.9041 41.8351C15.7763 41.7148 15.542 41.6017 15.1941 41.4956C14.8533 41.3966 14.3847 41.2906 13.8025 41.1774C12.9576 41.0289 12.2618 40.7955 11.7009 40.4703C11.1471 40.145 10.7566 39.7207 10.5294 39.2045C10.3022 38.6812 10.2738 38.0659 10.43 37.3517C10.6572 36.2627 11.2323 35.4141 12.1695 34.7918C13.0996 34.1695 14.3137 33.8584 15.7976 33.8584C16.5431 33.8584 17.2105 33.9645 17.8069 34.1766C18.4033 34.3888 18.9074 34.6646 19.3192 35.0111C19.731 35.3505 20.0363 35.7182 20.228 36.1142C20.4268 36.5031 20.4907 36.8779 20.4197 37.2386C20.4055 37.3376 20.3629 37.4295 20.2777 37.5002C20.1925 37.5709 20.1073 37.6063 20.015 37.6063H17.1963C17.0472 37.6063 16.9336 37.5851 16.8484 37.5356C16.7632 37.4932 16.6851 37.4154 16.6212 37.3164C16.5999 37.1608 16.4863 37.0194 16.2946 36.8991C16.0958 36.7789 15.8331 36.7153 15.5136 36.7153C15.1302 36.7153 14.8178 36.7789 14.5764 36.9062C14.335 37.0335 14.1859 37.2244 14.1291 37.4719C14.0936 37.6417 14.1291 37.7831 14.2285 37.9104C14.3279 38.0306 14.5267 38.1437 14.8178 38.2357C15.1089 38.3276 15.5278 38.4337 16.0674 38.5468C17.1111 38.7024 17.9276 38.9428 18.524 39.2681C19.1133 39.5934 19.5109 40.0106 19.7026 40.5198C19.9014 41.0289 19.9227 41.6371 19.7807 42.3442C19.5251 43.5322 18.9003 44.4303 17.9205 45.0385C16.9336 45.6466 15.5988 45.9507 13.909 45.9507Z" fill="white"/>
<path d="M21.0659 45.788C20.9452 45.788 20.8529 45.7314 20.7961 45.6254C20.7393 45.5193 20.7464 45.4132 20.8103 45.3001L26.9518 34.5514C27.0228 34.4312 27.1222 34.3109 27.2571 34.1978C27.392 34.0846 27.5695 34.0281 27.7825 34.0281H30.9562C31.1692 34.0281 31.3183 34.0846 31.4106 34.1978C31.5029 34.3109 31.5526 34.4241 31.5597 34.5514L33.1288 45.3001C33.1501 45.4486 33.1146 45.5617 33.0223 45.6536C32.93 45.7456 32.8164 45.788 32.6957 45.788H30.1681C29.9764 45.788 29.8415 45.7456 29.7705 45.6536C29.6995 45.5617 29.6498 45.4769 29.6285 45.3849L29.3942 43.9918H25.3472L24.5023 45.4061C24.4597 45.4981 24.3816 45.5829 24.2751 45.6678C24.1686 45.7526 24.0195 45.7951 23.8278 45.7951H21.0659V45.788ZM26.6962 41.1491H29.2096L28.7694 37.3729L26.6962 41.1491Z" fill="white"/>
<path d="M37.1687 45.788C36.9557 45.788 36.7995 45.7314 36.7072 45.6183C36.6149 45.5051 36.5581 45.392 36.5439 45.2647L35.5144 34.4948C35.5002 34.3392 35.5428 34.219 35.6351 34.1412C35.7274 34.0634 35.8339 34.021 35.9546 34.021H38.4822C38.681 34.021 38.8301 34.0776 38.9153 34.1907C39.0005 34.3039 39.0502 34.417 39.0573 34.5301L39.5614 41.5309L43.0546 34.5301C43.0972 34.417 43.1895 34.3039 43.3244 34.1907C43.4593 34.0776 43.6297 34.021 43.8285 34.021H46.6117C46.7466 34.021 46.8318 34.0776 46.8744 34.1836C46.917 34.2897 46.9028 34.4029 46.846 34.5301L41.2654 45.2647C41.1873 45.3849 41.0808 45.5051 40.9459 45.6183C40.811 45.7314 40.6335 45.788 40.4205 45.788H37.1687Z" fill="white"/>
<path d="M58.7027 45.9507C57.5312 45.9507 56.5727 45.788 55.813 45.4627C55.0533 45.1375 54.5137 44.7132 54.1871 44.1757C53.8605 43.6454 53.7469 43.0726 53.8463 42.4715C53.8676 42.3725 53.9173 42.2876 53.9954 42.2169C54.0735 42.1462 54.1658 42.1179 54.2652 42.1179H56.949C57.1194 42.1179 57.2401 42.1462 57.3182 42.1957C57.3963 42.2452 57.4744 42.3159 57.5525 42.4079C57.6235 42.5281 57.7158 42.6483 57.8294 42.7544C57.9501 42.8604 58.1063 42.9453 58.298 43.0089C58.4968 43.0726 58.7311 43.1009 59.0009 43.1009C59.5192 43.1009 59.9381 43.0301 60.2576 42.8887C60.5771 42.7473 60.7688 42.5564 60.8256 42.3089C60.8682 42.1179 60.8256 41.9623 60.6978 41.8351C60.57 41.7148 60.3357 41.6017 59.9878 41.4956C59.647 41.3966 59.1784 41.2906 58.5962 41.1774C57.7513 41.0289 57.0555 40.7955 56.4946 40.4703C55.9408 40.145 55.5503 39.7207 55.3231 39.2045C55.0959 38.6812 55.0675 38.0659 55.2237 37.3517C55.4509 36.2627 56.026 35.4141 56.9632 34.7918C57.8933 34.1695 59.1074 33.8584 60.5913 33.8584C61.3368 33.8584 62.0042 33.9645 62.6006 34.1766C63.197 34.3888 63.7011 34.6646 64.1129 35.0111C64.5247 35.3505 64.83 35.7182 65.0217 36.1142C65.2205 36.5031 65.2844 36.8779 65.2134 37.2386C65.1992 37.3376 65.1566 37.4295 65.0714 37.5002C64.9862 37.5709 64.901 37.6063 64.8087 37.6063H61.99C61.8409 37.6063 61.7273 37.5851 61.6421 37.5356C61.5569 37.4932 61.4788 37.4154 61.4149 37.3164C61.3936 37.1608 61.28 37.0194 61.0883 36.8991C60.8895 36.7789 60.6268 36.7153 60.3073 36.7153C59.9239 36.7153 59.6115 36.7789 59.3701 36.9062C59.1287 37.0335 58.9796 37.2244 58.9228 37.4719C58.8873 37.6417 58.9228 37.7831 59.0222 37.9104C59.1216 38.0306 59.3204 38.1437 59.6115 38.2357C59.9026 38.3276 60.3215 38.4337 60.8611 38.5468C61.9048 38.7024 62.7213 38.9428 63.3177 39.2681C63.907 39.5934 64.3046 40.0106 64.4963 40.5198C64.6951 41.0289 64.7164 41.6371 64.5744 42.3442C64.3188 43.5322 63.694 44.4303 62.7142 45.0385C61.7273 45.6466 60.3925 45.9507 58.7027 45.9507Z" fill="#020203"/>
<path d="M66.1576 45.788C66.0369 45.788 65.9375 45.7456 65.8594 45.6607C65.7884 45.5759 65.76 45.4769 65.7813 45.3496L68.1243 34.4665C68.1456 34.3463 68.2095 34.2402 68.3089 34.1554C68.4083 34.0705 68.5219 34.0281 68.6497 34.0281H76.9141C77.0348 34.0281 77.1342 34.0705 77.1981 34.1554C77.2691 34.2402 77.2904 34.3463 77.2691 34.4665L76.8502 36.4465C76.8289 36.5597 76.765 36.6587 76.6585 36.7506C76.552 36.8425 76.4384 36.885 76.3106 36.885H71.0992L70.73 38.5468H75.5722C75.6929 38.5468 75.7923 38.5892 75.8704 38.6741C75.9414 38.7589 75.9698 38.865 75.9485 38.9852L75.5438 40.8026C75.5225 40.9228 75.4586 41.0289 75.3521 41.1137C75.2456 41.1986 75.132 41.241 75.0042 41.241H70.162L69.807 42.9382H75.1533C75.274 42.9382 75.3734 42.9806 75.4373 43.0725C75.5012 43.1645 75.5296 43.2705 75.5012 43.3908L75.0823 45.3566C75.061 45.4769 74.9971 45.5829 74.8977 45.6678C74.7983 45.7526 74.6847 45.7951 74.5569 45.7951H66.1576V45.788Z" fill="#020203"/>
<path d="M77.8159 45.788C77.7023 45.788 77.6171 45.7456 77.5461 45.6607C77.4822 45.5759 77.4538 45.4769 77.4822 45.3496L79.811 34.4665C79.8323 34.3463 79.8962 34.2402 80.0027 34.1554C80.1092 34.0705 80.2157 34.0281 80.3293 34.0281H85.136C86.6625 34.0281 87.7914 34.3746 88.5156 35.0676C89.2398 35.7606 89.467 36.7294 89.1972 37.974C89.0268 38.7589 88.7073 39.4236 88.2245 39.9752C87.7488 40.5268 87.1879 40.9582 86.5489 41.2693L87.8837 45.2364C87.8979 45.2718 87.905 45.3001 87.9121 45.3283C87.9192 45.3566 87.9121 45.3849 87.905 45.4203C87.8837 45.5193 87.8269 45.6112 87.7417 45.6819C87.6565 45.7526 87.5642 45.788 87.4648 45.788H84.6177C84.4047 45.788 84.2556 45.7314 84.1704 45.6254C84.0852 45.5193 84.0355 45.4203 84.0071 45.3283L83.0628 41.8704H81.8487L81.1103 45.3496C81.089 45.4698 81.0251 45.5759 80.9186 45.6607C80.8121 45.7456 80.6985 45.788 80.5707 45.788H77.8159ZM82.4309 39.0984H84.0355C84.426 39.0984 84.7455 38.9923 84.9869 38.7731C85.2283 38.5538 85.3845 38.2851 85.4484 37.9598C85.5194 37.6204 85.4768 37.3375 85.3419 37.1042C85.1999 36.8708 84.9301 36.7506 84.5254 36.7506H82.9208L82.4309 39.0984Z" fill="#020203"/>
<path d="M92.8181 45.788C92.6051 45.788 92.4489 45.7314 92.3566 45.6183C92.2643 45.5051 92.2075 45.392 92.1933 45.2647L91.1638 34.4948C91.1496 34.3392 91.1922 34.219 91.2845 34.1412C91.3768 34.0634 91.4833 34.021 91.604 34.021H94.1316C94.3304 34.021 94.4795 34.0776 94.5647 34.1907C94.6499 34.3039 94.6996 34.417 94.7067 34.5301L95.2108 41.5309L98.704 34.5301C98.7466 34.417 98.8389 34.3039 98.9738 34.1907C99.1087 34.0776 99.2791 34.021 99.4779 34.021H102.261C102.396 34.021 102.481 34.0776 102.524 34.1836C102.566 34.2897 102.552 34.4029 102.495 34.5301L96.9148 45.2647C96.8367 45.3849 96.7302 45.5051 96.5953 45.6183C96.4604 45.7314 96.2829 45.788 96.0699 45.788H92.8181Z" fill="#020203"/>
<path d="M102.347 45.788C102.233 45.788 102.141 45.7456 102.07 45.6607C101.999 45.5759 101.97 45.4769 101.992 45.3496L104.335 34.4665C104.356 34.3463 104.42 34.2402 104.519 34.1554C104.619 34.0705 104.732 34.0281 104.86 34.0281H107.707C107.828 34.0281 107.927 34.0705 107.991 34.1554C108.055 34.2402 108.083 34.3463 108.055 34.4665L105.726 45.3496C105.705 45.4698 105.641 45.5759 105.542 45.6607C105.442 45.7456 105.329 45.788 105.201 45.788H102.347Z" fill="#020203"/>
<path d="M113.529 45.9507C112.762 45.9507 112.059 45.8588 111.42 45.6749C110.781 45.491 110.242 45.2082 109.801 44.8334C109.361 44.4586 109.049 43.9848 108.864 43.412C108.68 42.8392 108.644 42.1674 108.772 41.3966C108.85 40.937 108.949 40.442 109.07 39.9187C109.191 39.3954 109.304 38.8862 109.418 38.4054C109.688 37.3942 110.093 36.5526 110.632 35.8809C111.172 35.202 111.846 34.6999 112.663 34.3605C113.479 34.021 114.431 33.8584 115.524 33.8584C116.22 33.8584 116.887 33.9433 117.533 34.12C118.172 34.2968 118.733 34.5514 119.209 34.8979C119.685 35.2444 120.04 35.6758 120.26 36.1991C120.487 36.7224 120.53 37.3305 120.395 38.0235C120.373 38.1225 120.317 38.2145 120.231 38.2852C120.146 38.3559 120.054 38.3912 119.954 38.3912H117.086C116.93 38.3912 116.816 38.3559 116.738 38.2922C116.667 38.2215 116.617 38.1084 116.596 37.9387C116.582 37.4649 116.454 37.1467 116.199 36.9699C115.943 36.7931 115.616 36.7082 115.212 36.7082C114.715 36.7082 114.296 36.8426 113.941 37.1042C113.586 37.3659 113.33 37.8326 113.174 38.4902C112.94 39.4095 112.734 40.35 112.57 41.3118C112.45 41.9694 112.499 42.4361 112.734 42.6978C112.961 42.9594 113.33 43.0938 113.82 43.0938C114.225 43.0938 114.594 43.0019 114.928 42.8251C115.261 42.6483 115.538 42.3301 115.765 41.8704C115.858 41.6936 115.95 41.5734 116.042 41.5098C116.135 41.4461 116.27 41.4178 116.44 41.4178H119.308C119.408 41.4178 119.493 41.4532 119.55 41.5168C119.614 41.5876 119.628 41.6653 119.607 41.7714C119.429 42.4644 119.159 43.0726 118.804 43.5959C118.449 44.1192 118.009 44.5505 117.484 44.9041C116.958 45.2577 116.362 45.5193 115.694 45.6961C115.027 45.8658 114.303 45.9507 113.529 45.9507Z" fill="#020203"/>
<path d="M121.133 45.788C121.012 45.788 120.913 45.7456 120.835 45.6607C120.764 45.5759 120.735 45.4769 120.757 45.3496L123.1 34.4665C123.121 34.3463 123.185 34.2402 123.284 34.1554C123.384 34.0705 123.497 34.0281 123.625 34.0281H131.889C132.01 34.0281 132.11 34.0705 132.173 34.1554C132.244 34.2402 132.266 34.3463 132.244 34.4665L131.826 36.4465C131.804 36.5597 131.74 36.6587 131.634 36.7506C131.527 36.8425 131.414 36.885 131.286 36.885H126.075L125.705 38.5468H130.548C130.668 38.5468 130.768 38.5892 130.846 38.6741C130.917 38.7589 130.945 38.865 130.924 38.9852L130.519 40.8026C130.498 40.9228 130.434 41.0289 130.327 41.1137C130.221 41.1986 130.107 41.241 129.98 41.241H125.137L124.782 42.9382H130.129C130.249 42.9382 130.349 42.9806 130.413 43.0725C130.477 43.1645 130.505 43.2705 130.477 43.3908L130.058 45.3566C130.036 45.4769 129.972 45.5829 129.873 45.6678C129.774 45.7526 129.66 45.7951 129.532 45.7951H121.133V45.788Z" fill="#020203"/>
</svg>
