<svg width="96.000000" height="96.000000" viewBox="0 0 96 96" fill="none" xmlns="http://www.w3.org/2000/svg" xmlns:xlink="http://www.w3.org/1999/xlink">
	<desc>
			Created with Pixso.
	</desc>
	<defs>
		<clipPath id="clip1_88">
			<rect id="Money" rx="-0.500000" width="95.000000" height="95.000000" transform="translate(0.500000 0.500000)" fill="white" fill-opacity="0"/>
		</clipPath>
	</defs>
	<rect id="Money" rx="-0.500000" width="95.000000" height="95.000000" transform="translate(0.500000 0.500000)" fill="#FFFFFF" fill-opacity="0"/>
	<g clip-path="url(#clip1_88)">
		<path id="Vector" d="M10.71 0C9.46 0 8.27 0.5 7.38 1.38C6.5 2.27 6 3.46 6 4.71L6 42L0 42L0 96L96 96L96 42L79.62 42L81 41.93L80.92 40.5L77.93 40.65L77.99 42L74.96 42C74.96 35.82 72.61 29.85 68.31 25.38C64.5 21.42 59.45 18.88 54 18.2L54 15.18L55.08 15.34L55.54 12.37L54.14 12.16L54 12.16L54 4.72C53.99 3.47 53.49 2.27 52.61 1.39C51.73 0.5 50.53 0 49.28 0L10.71 0ZM10.71 3L12 3L12 42L9 42L9 4.71C8.99 4.48 9.03 4.26 9.12 4.05C9.2 3.84 9.33 3.65 9.49 3.49C9.65 3.33 9.84 3.2 10.05 3.12C10.26 3.03 10.48 2.99 10.71 3ZM15 3L21 3L21 42L15 42L15 3ZM24 3L49.28 3C50.25 3 51 3.74 51 4.71L51 42L48 42L48 36L45 36L45 42L39 42L39 36L30 36L30 42L24 42L24 3ZM34.5 6C32.51 6 30.6 6.79 29.2 8.2C27.79 9.6 27 11.51 27 13.5C27 15.18 27.58 16.72 28.53 17.98C27.55 19.27 27 20.85 27 22.5C27 26.62 30.37 30 34.5 30C38.62 30 42 26.62 42 22.5C42 20.85 41.44 19.27 40.46 17.98C41.45 16.69 41.99 15.12 42 13.5C42 9.37 38.62 6 34.5 6ZM34.5 9C37 9 39 10.99 39 13.5C39 14.74 38.5 15.86 37.69 16.67L37.62 16.74C37.56 16.79 37.49 16.84 37.43 16.89C37.03 17.23 36.59 17.51 36.11 17.69C36.08 17.7 36.06 17.7 36.03 17.71C35.54 17.89 35.02 18 34.5 18C33.97 18 33.45 17.89 32.96 17.71C32.93 17.7 32.91 17.7 32.88 17.69C32.4 17.5 31.95 17.23 31.56 16.89C31.5 16.84 31.43 16.79 31.37 16.74L31.3 16.67C30.88 16.25 30.55 15.76 30.33 15.21C30.11 14.67 29.99 14.08 30 13.5C30 10.99 31.99 9 34.5 9ZM58.62 12.98L57.87 15.92L58.95 16.19L58.98 16.19L60.58 16.77L61.61 13.95L59.98 13.36L59.91 13.33L59.84 13.3L58.62 12.98ZM64.49 15.24L63.19 17.93L63.89 18.27L63.93 18.3L65.66 19.36L67.22 16.8L65.36 15.67L65.3 15.62L65.24 15.59L64.49 15.24ZM69.78 18.61L67.98 21.02L68.12 21.11L68.15 21.15L70.1 22.92L72.12 20.7L70.13 18.9L70.08 18.84L70.02 18.8L69.78 18.61ZM31.01 20.09C32.06 20.64 33.23 21 34.5 21C35.71 20.98 36.91 20.67 37.98 20.09C38.53 20.81 39 21.58 39 22.5C39 25 37 27 34.5 27C31.99 27 30 25 30 22.5C30 21.58 30.46 20.8 31.01 20.09ZM54 21.24C58.63 21.9 62.9 24.09 66.15 27.46C69.89 31.37 71.98 36.58 71.97 42L67.5 42L69 41.92L68.94 40.87L65.94 41.03L65.99 42L54 42L54 27.31L54.01 27.31L54.45 27.42L55.2 24.51L54.69 24.38L54.62 24.35L54.55 24.35L54 24.27L54 21.24ZM74.32 23.14L71.92 24.94L73.4 26.91L73.59 27.25L76.16 25.69L75.91 25.28L75.87 25.22L75.83 25.16L74.32 23.14ZM45 24L45 33L48 33L48 24L45 24ZM58.32 25.56L57.01 28.26L58.14 28.81L59.36 29.55L59.39 29.58L59.39 29.58L59.44 29.61L59.78 29.06L61.18 27.18L61.12 27.12L61.06 27.08L61 27.04L59.64 26.22L59.58 26.18L59.51 26.15L58.31 25.56L58.32 25.56ZM77.73 28.41L75.02 29.71L75.87 31.47L76.18 32.32L79 31.29L78.66 30.38L78.64 30.31L78.6 30.25L77.73 28.41ZM63.6 29.15L61.97 30.96L61.56 31.34L61.59 31.38L61.61 31.41L61.65 31.45L62.52 32.41L62.54 32.41L63.32 33.46L65.73 31.66L64.93 30.6L64.89 30.54L64.83 30.49L63.78 29.32L63.72 29.26L63.67 29.21L63.6 29.15ZM79.96 34.29L77.05 35.03L77.44 36.56L77.64 37.82L80.6 37.36L80.4 36.03L80.39 35.95L80.37 35.88L79.96 34.29L79.96 34.29ZM67.36 34.51L64.65 35.82L64.8 36.14L65.31 37.51L65.53 38.37L68.44 37.62L68.2 36.72L68.19 36.64L68.16 36.57L67.61 35.05L67.58 34.99L67.55 34.92L67.35 34.51L67.36 34.51ZM33 39L36 39L36 42L33 42L33 39ZM3 45L93 45L93 93L3 93L3 45ZM15 48L15 49.5C15 53.66 11.66 57 7.5 57L6 57L6 81L7.5 81C11.66 81 15 84.33 15 88.5L15 90L81 90L81 88.5C81 84.33 84.33 81 88.5 81L90 81L90 57L88.5 57C87.51 57 86.53 56.81 85.62 56.43C84.71 56.05 83.88 55.5 83.18 54.81C82.49 54.11 81.94 53.28 81.56 52.37C81.18 51.46 80.99 50.48 81 49.5L81 48L15 48ZM17.69 51L78.3 51C78.62 53.19 79.64 55.22 81.2 56.79C82.77 58.35 84.8 59.37 87 59.69L87 78.3C84.8 78.62 82.77 79.64 81.2 81.2C79.64 82.77 78.62 84.8 78.3 87L17.69 87C17.37 84.8 16.35 82.77 14.79 81.2C13.22 79.64 11.19 78.62 9 78.3L9 59.69C11.19 59.37 13.22 58.35 14.79 56.79C16.35 55.22 17.37 53.19 17.69 51ZM40.58 57L40.58 57.03L40.51 57.03L40.51 60.03L43.59 60.03C46.39 60.03 47.8 61.35 48.31 63L40.58 63L40.58 66L48.31 66C47.8 67.64 46.39 68.97 43.59 68.97L40.5 68.97L40.5 71.97L41.39 71.97L50.54 81L52.65 78.87L45.47 71.77C48.72 71.09 50.81 68.67 51.39 66L55.48 66L55.48 63L51.39 63C51.15 61.92 50.65 60.9 49.95 60L55.48 60L55.48 57L40.58 57ZM18 66C16.36 66 15 67.36 15 69C15 70.63 16.36 72 18 72C19.63 72 21 70.63 21 69C21 67.36 19.63 66 18 66ZM78 66C76.36 66 75 67.36 75 69C75 70.63 76.36 72 78 72C79.63 72 81 70.63 81 69C81 67.36 79.63 66 78 66Z" fill="#F9B50A" fill-opacity="1.000000" fill-rule="nonzero"/>
	</g>
</svg>
