<svg width="110.000000" height="110.000000" viewBox="0 0 110 110" fill="none" xmlns="http://www.w3.org/2000/svg" xmlns:xlink="http://www.w3.org/1999/xlink">
	<desc>
			Created with Pixso.
	</desc>
	<defs>
		<clipPath id="clip1_67">
			<rect id="Money" rx="-0.500000" width="109.000000" height="109.000000" transform="translate(0.500000 0.500000)" fill="white" fill-opacity="0"/>
		</clipPath>
	</defs>
	<rect id="Money" rx="-0.500000" width="109.000000" height="109.000000" transform="translate(0.500000 0.500000)" fill="#FFFFFF" fill-opacity="0"/>
	<g clip-path="url(#clip1_67)">
		<path id="Vector" d="M55 79.06C58.39 79.06 61.72 78.05 64.54 76.16C67.37 74.27 69.57 71.59 70.87 68.45C72.18 65.31 72.52 61.85 71.85 58.52C71.19 55.18 69.55 52.12 67.15 49.72C64.74 47.31 61.68 45.68 58.35 45.01C55.01 44.35 51.56 44.69 48.42 45.99C45.28 47.29 42.59 49.49 40.7 52.32C38.82 55.15 37.81 58.47 37.81 61.87C37.81 66.43 39.62 70.8 42.85 74.02C46.07 77.24 50.44 79.05 55 79.06ZM55 48.12C57.71 48.12 60.37 48.93 62.63 50.44C64.9 51.95 66.66 54.1 67.7 56.61C68.74 59.12 69.01 61.89 68.48 64.55C67.95 67.22 66.64 69.67 64.72 71.59C62.79 73.52 60.34 74.83 57.68 75.36C55.01 75.89 52.25 75.61 49.73 74.57C47.22 73.53 45.07 71.77 43.56 69.51C42.05 67.25 41.25 64.59 41.25 61.87C41.25 58.22 42.7 54.73 45.28 52.15C47.85 49.57 51.35 48.12 55 48.12Z" fill="#F9B50A" fill-opacity="1.000000" fill-rule="nonzero"/>
		<path id="Vector" d="M55 67.03C54.54 67.03 54.1 66.85 53.78 66.52C53.46 66.2 53.28 65.76 53.28 65.31C53.28 64.85 53.1 64.41 52.77 64.09C52.45 63.77 52.01 63.59 51.56 63.59C51.1 63.59 50.66 63.77 50.34 64.09C50.02 64.41 49.84 64.85 49.84 65.31C49.84 66.37 50.18 67.41 50.79 68.27C51.41 69.14 52.27 69.79 53.28 70.15L53.28 72.18C53.28 72.64 53.46 73.08 53.78 73.4C54.1 73.72 54.54 73.9 55 73.9C55.45 73.9 55.89 73.72 56.21 73.4C56.53 73.08 56.71 72.64 56.71 72.18L56.71 70.15C57.86 69.74 58.83 68.95 59.44 67.9C60.06 66.85 60.28 65.62 60.07 64.42C59.87 63.23 59.25 62.14 58.32 61.36C57.39 60.58 56.21 60.15 55 60.15C54.66 60.15 54.32 60.05 54.04 59.86C53.76 59.67 53.54 59.4 53.41 59.09C53.28 58.78 53.24 58.43 53.31 58.1C53.38 57.76 53.54 57.46 53.78 57.22C54.02 56.98 54.33 56.81 54.66 56.75C54.99 56.68 55.34 56.71 55.65 56.84C55.97 56.97 56.24 57.2 56.42 57.48C56.61 57.76 56.71 58.09 56.71 58.43C56.71 58.89 56.89 59.33 57.22 59.65C57.54 59.97 57.98 60.15 58.43 60.15C58.89 60.15 59.33 59.97 59.65 59.65C59.97 59.33 60.15 58.89 60.15 58.43C60.15 57.37 59.81 56.33 59.2 55.47C58.58 54.6 57.72 53.95 56.71 53.59L56.71 51.56C56.71 51.1 56.53 50.66 56.21 50.34C55.89 50.02 55.45 49.84 55 49.84C54.54 49.84 54.1 50.02 53.78 50.34C53.46 50.66 53.28 51.1 53.28 51.56L53.28 53.59C52.13 54 51.16 54.79 50.55 55.84C49.93 56.89 49.71 58.12 49.92 59.32C50.12 60.51 50.74 61.6 51.67 62.38C52.6 63.16 53.78 63.59 55 63.59C55.45 63.59 55.89 63.77 56.21 64.09C56.53 64.41 56.71 64.85 56.71 65.31C56.71 65.76 56.53 66.2 56.21 66.52C55.89 66.85 55.45 67.03 55 67.03Z" fill="#F9B50A" fill-opacity="1.000000" fill-rule="nonzero"/>
		<path id="Vector" d="M101.78 61.87L90.64 61.87C88.02 53.34 83.08 45.71 76.37 39.84L66.82 31.48C67.56 30.89 68.13 30.1 68.45 29.21C68.77 28.32 68.83 27.36 68.64 26.43C68.44 25.51 68 24.65 67.34 23.96C66.69 23.28 65.86 22.78 64.95 22.54L73.61 9.54C73.82 9.23 73.92 8.86 73.9 8.49C73.88 8.12 73.74 7.76 73.5 7.48C73.46 7.43 73.4 7.4 73.35 7.36L73.37 7.34C70.72 4.85 67.23 3.45 63.59 3.43C60.72 3.44 57.92 4.32 55.56 5.95C50.22 3.62 44.68 1.28 36.78 7.21C36.42 7.48 36.19 7.87 36.11 8.3C36.04 8.73 36.13 9.18 36.38 9.54L45.05 22.54C44.22 22.76 43.46 23.18 42.84 23.77C42.22 24.36 41.76 25.09 41.49 25.9C41.23 26.72 41.17 27.58 41.33 28.42C41.49 29.26 41.86 30.05 42.4 30.71L34.27 38.3L36.61 40.81L45.36 32.65L62.94 32.65L74.11 42.42C80.07 47.64 84.53 54.35 87.03 61.87L80.4 61.87C79.13 61.87 77.92 62.38 77.02 63.27C76.13 64.17 75.62 65.38 75.62 66.65L75.62 70.84C75.62 71.96 76.03 73.05 76.76 73.9C76.03 74.75 75.62 75.84 75.62 76.96L75.62 81.15C75.63 81.65 75.71 82.15 75.88 82.63C74.83 82.88 73.89 83.47 73.22 84.31C72.55 85.15 72.19 86.2 72.18 87.27L72.18 91.46C72.19 92.53 72.55 93.58 73.22 94.42C73.89 95.26 74.83 95.85 75.88 96.1C75.71 96.58 75.63 97.08 75.62 97.58L75.62 101.77C75.63 101.97 75.65 102.17 75.68 102.37C73.99 102.86 72.23 103.11 70.46 103.12L70.25 103.12C70.38 102.69 70.46 102.23 70.46 101.78L70.46 97.59C70.46 96.47 70.05 95.38 69.32 94.53C70.05 93.67 70.46 92.59 70.46 91.46L70.46 87.28C70.46 86.01 69.96 84.79 69.06 83.9C68.17 83 66.95 82.5 65.68 82.5L44.31 82.5C43.04 82.5 41.82 83 40.93 83.9C40.03 84.79 39.53 86.01 39.53 87.28L39.53 91.46C39.53 92.59 39.94 93.67 40.67 94.53C39.94 95.38 39.53 96.47 39.53 97.59L39.53 101.78C39.53 102.23 39.61 102.69 39.74 103.12L39.53 103.12C37.76 103.12 36.01 102.87 34.31 102.38C34.34 102.18 34.36 101.98 34.37 101.78L34.37 97.59C34.36 97.09 34.28 96.59 34.11 96.11C35.16 95.86 36.1 95.27 36.77 94.43C37.44 93.59 37.8 92.55 37.81 91.47L37.81 87.28C37.8 86.2 37.44 85.16 36.77 84.31C36.1 83.47 35.16 82.88 34.11 82.64C34.28 82.16 34.36 81.66 34.37 81.16L34.37 76.96C34.37 75.84 33.96 74.75 33.23 73.9C33.96 73.05 34.37 71.96 34.37 70.84L34.37 66.65C34.37 65.38 33.86 64.17 32.97 63.27C32.07 62.38 30.86 61.87 29.59 61.87L22.66 61.87C24.83 54.89 28.67 48.56 33.85 43.41L31.45 40.97C25.6 46.76 21.34 53.96 19.07 61.87L8.21 61.87C6.95 61.87 5.73 62.38 4.83 63.27C3.94 64.17 3.43 65.38 3.43 66.65L3.43 70.84C3.44 71.96 3.84 73.05 4.57 73.9C3.84 74.75 3.44 75.84 3.43 76.96L3.43 81.15C3.44 82.23 3.8 83.27 4.47 84.11C5.14 84.96 6.08 85.55 7.13 85.79C6.96 86.27 6.88 86.77 6.87 87.27L6.87 91.46C6.88 91.96 6.96 92.46 7.13 92.94C6.08 93.18 5.14 93.78 4.47 94.62C3.8 95.46 3.43 96.51 3.43 97.59L3.43 101.78C3.43 103.04 3.94 104.26 4.83 105.16C5.73 106.05 6.95 106.56 8.21 106.56L29.59 106.56C30.69 106.55 31.76 106.16 32.61 105.45C34.84 106.18 37.18 106.56 39.53 106.56L70.46 106.56C72.81 106.56 75.15 106.18 77.38 105.45C78.23 106.16 79.3 106.55 80.4 106.56L101.78 106.56C103.04 106.56 104.26 106.05 105.16 105.16C106.05 104.26 106.56 103.04 106.56 101.78L106.56 97.59C106.55 96.51 106.19 95.47 105.52 94.63C104.85 93.78 103.91 93.19 102.86 92.95C103.03 92.47 103.11 91.97 103.12 91.47L103.12 87.28C103.11 86.77 103.03 86.27 102.86 85.8C103.91 85.55 104.85 84.96 105.52 84.12C106.19 83.28 106.55 82.23 106.56 81.16L106.56 76.96C106.55 75.84 106.15 74.75 105.42 73.9C106.15 73.05 106.55 71.96 106.56 70.84L106.56 66.65C106.56 65.38 106.05 64.17 105.16 63.27C104.26 62.38 103.04 61.87 101.78 61.87ZM68.48 8.07C65.57 8.82 62.5 8.66 59.69 7.62C60.93 7.13 62.25 6.87 63.59 6.87C65.29 6.89 66.96 7.31 68.48 8.07ZM54.33 9.17C58.19 10.86 62.46 12.74 68.05 11.7L60.95 22.34L49.04 22.34L40.17 9.04C45.8 5.43 49.6 7.09 54.33 9.16L54.33 9.17ZM46.4 29.21C45.95 29.21 45.51 29.03 45.19 28.71C44.86 28.39 44.68 27.95 44.68 27.5C44.68 27.04 44.86 26.6 45.19 26.28C45.51 25.96 45.95 25.78 46.4 25.78L63.59 25.78C64.04 25.78 64.48 25.96 64.8 26.28C65.13 26.6 65.31 27.04 65.31 27.5C65.31 27.95 65.13 28.39 64.8 28.71C64.48 29.03 64.04 29.21 63.59 29.21L46.4 29.21ZM34.37 91.46C34.37 91.82 34.23 92.16 33.98 92.41C33.72 92.67 33.38 92.81 33.03 92.81L11.65 92.81C11.3 92.81 10.95 92.67 10.7 92.41C10.45 92.16 10.31 91.82 10.31 91.46L10.31 87.28C10.31 86.92 10.45 86.58 10.7 86.33C10.95 86.07 11.3 85.93 11.65 85.93L13.75 85.93L13.75 89.37L17.18 89.37L17.18 85.93L20.62 85.93L20.62 89.37L24.06 89.37L24.06 85.93L27.5 85.93L27.5 89.37L30.93 89.37L30.93 85.93L33.03 85.93C33.38 85.93 33.72 86.07 33.98 86.33C34.23 86.58 34.37 86.92 34.37 87.28L34.37 91.46ZM6.87 66.65C6.87 66.3 7.01 65.95 7.26 65.7C7.52 65.45 7.86 65.31 8.21 65.31L10.31 65.31L10.31 68.75L13.75 68.75L13.75 65.31L17.18 65.31L17.18 68.75L20.62 68.75L20.62 65.31L24.06 65.31L24.06 68.75L27.5 68.75L27.5 65.31L29.59 65.31C29.94 65.31 30.29 65.45 30.54 65.7C30.79 65.95 30.93 66.3 30.93 66.65L30.93 70.84C30.93 71.19 30.79 71.54 30.54 71.79C30.29 72.04 29.94 72.18 29.59 72.18L8.21 72.18C7.86 72.18 7.52 72.04 7.26 71.79C7.01 71.54 6.87 71.19 6.87 70.84L6.87 66.65ZM6.87 76.96C6.87 76.61 7.01 76.27 7.26 76.01C7.52 75.76 7.86 75.62 8.21 75.62L10.31 75.62L10.31 79.06L13.75 79.06L13.75 75.62L17.18 75.62L17.18 79.06L20.62 79.06L20.62 75.62L24.06 75.62L24.06 79.06L27.5 79.06L27.5 75.62L29.59 75.62C29.94 75.62 30.29 75.76 30.54 76.01C30.79 76.27 30.93 76.61 30.93 76.96L30.93 81.15C30.93 81.51 30.79 81.85 30.54 82.1C30.29 82.35 29.94 82.49 29.59 82.5L8.21 82.5C7.86 82.49 7.52 82.35 7.26 82.1C7.01 81.85 6.87 81.51 6.87 81.15L6.87 76.96ZM30.93 101.78C30.93 102.13 30.79 102.47 30.54 102.73C30.29 102.98 29.94 103.12 29.59 103.12L8.21 103.12C7.86 103.12 7.52 102.98 7.26 102.73C7.01 102.47 6.87 102.13 6.87 101.78L6.87 97.59C6.87 97.23 7.01 96.89 7.26 96.64C7.52 96.39 7.86 96.25 8.21 96.25L10.31 96.25L10.31 99.68L13.75 99.68L13.75 96.25L17.18 96.25L17.18 99.68L20.62 99.68L20.62 96.25L24.06 96.25L24.06 99.68L27.5 99.68L27.5 96.25L29.59 96.25C29.94 96.25 30.29 96.39 30.54 96.64C30.79 96.89 30.93 97.23 30.93 97.59L30.93 101.78ZM42.96 87.28C42.96 86.92 43.11 86.58 43.36 86.33C43.61 86.07 43.95 85.93 44.31 85.93L46.4 85.93L46.4 89.37L49.84 89.37L49.84 85.93L53.28 85.93L53.28 89.37L56.71 89.37L56.71 85.93L60.15 85.93L60.15 89.37L63.59 89.37L63.59 85.93L65.68 85.93C66.04 85.93 66.38 86.07 66.63 86.33C66.88 86.58 67.03 86.92 67.03 87.28L67.03 91.46C67.03 91.82 66.88 92.16 66.63 92.41C66.38 92.67 66.04 92.81 65.68 92.81L44.31 92.81C43.95 92.81 43.61 92.67 43.36 92.41C43.11 92.16 42.96 91.82 42.96 91.46L42.96 87.28ZM44.31 103.12C43.95 103.12 43.61 102.98 43.36 102.73C43.11 102.47 42.96 102.13 42.96 101.78L42.96 97.59C42.96 97.23 43.11 96.89 43.36 96.64C43.61 96.39 43.95 96.25 44.31 96.25L46.4 96.25L46.4 99.68L49.84 99.68L49.84 96.25L53.28 96.25L53.28 99.68L56.71 99.68L56.71 96.25L60.15 96.25L60.15 99.68L63.59 99.68L63.59 96.25L65.68 96.25C66.04 96.25 66.38 96.39 66.63 96.64C66.88 96.89 67.03 97.23 67.03 97.59L67.03 101.78C67.03 102.13 66.88 102.47 66.63 102.73C66.38 102.98 66.04 103.12 65.68 103.12L44.31 103.12ZM79.06 66.65C79.06 66.3 79.2 65.95 79.45 65.7C79.7 65.45 80.05 65.31 80.4 65.31L82.5 65.31L82.5 68.75L85.93 68.75L85.93 65.31L89.37 65.31L89.37 68.75L92.81 68.75L92.81 65.31L96.25 65.31L96.25 68.75L99.68 68.75L99.68 65.31L101.78 65.31C102.13 65.31 102.47 65.45 102.73 65.7C102.98 65.95 103.12 66.3 103.12 66.65L103.12 70.84C103.12 71.19 102.98 71.54 102.73 71.79C102.47 72.04 102.13 72.18 101.78 72.18L80.4 72.18C80.05 72.18 79.7 72.04 79.45 71.79C79.2 71.54 79.06 71.19 79.06 70.84L79.06 66.65ZM75.62 87.28C75.62 86.92 75.76 86.58 76.01 86.33C76.27 86.07 76.61 85.93 76.96 85.93L79.06 85.93L79.06 89.37L82.5 89.37L82.5 85.93L85.93 85.93L85.93 89.37L89.37 89.37L89.37 85.93L92.81 85.93L92.81 89.37L96.25 89.37L96.25 85.93L98.34 85.93C98.69 85.93 99.04 86.07 99.29 86.33C99.54 86.58 99.68 86.92 99.68 87.28L99.68 91.46C99.68 91.82 99.54 92.16 99.29 92.41C99.04 92.67 98.69 92.81 98.34 92.81L76.96 92.81C76.61 92.81 76.27 92.67 76.01 92.41C75.76 92.16 75.62 91.82 75.62 91.46L75.62 87.28ZM103.12 101.78C103.12 102.13 102.98 102.47 102.73 102.73C102.47 102.98 102.13 103.12 101.78 103.12L80.4 103.12C80.05 103.12 79.7 102.98 79.45 102.73C79.2 102.47 79.06 102.13 79.06 101.78L79.06 97.59C79.06 97.23 79.2 96.89 79.45 96.64C79.7 96.39 80.05 96.25 80.4 96.25L82.5 96.25L82.5 99.68L85.93 99.68L85.93 96.25L89.37 96.25L89.37 99.68L92.81 99.68L92.81 96.25L96.25 96.25L96.25 99.68L99.68 99.68L99.68 96.25L101.78 96.25C102.13 96.25 102.47 96.39 102.73 96.64C102.98 96.89 103.12 97.23 103.12 97.59L103.12 101.78ZM103.12 81.15C103.12 81.51 102.98 81.85 102.73 82.1C102.47 82.35 102.13 82.49 101.78 82.5L80.4 82.5C80.05 82.49 79.7 82.35 79.45 82.1C79.2 81.85 79.06 81.51 79.06 81.15L79.06 76.96C79.06 76.61 79.2 76.27 79.45 76.01C79.7 75.76 80.05 75.62 80.4 75.62L82.5 75.62L82.5 79.06L85.93 79.06L85.93 75.62L89.37 75.62L89.37 79.06L92.81 79.06L92.81 75.62L96.25 75.62L96.25 79.06L99.68 79.06L99.68 75.62L101.78 75.62C102.13 75.62 102.47 75.76 102.73 76.01C102.98 76.27 103.12 76.61 103.12 76.96L103.12 81.15Z" fill="#F9B50A" fill-opacity="1.000000" fill-rule="nonzero"/>
	</g>
</svg>
