<svg width="114.000000" height="114.000000" viewBox="0 0 114 114" fill="none" xmlns="http://www.w3.org/2000/svg" xmlns:xlink="http://www.w3.org/1999/xlink">
	<desc>
			Created with Pixso.
	</desc>
	<defs>
		<clipPath id="clip1_81">
			<rect id="online consulting" rx="-0.500000" width="113.000000" height="113.000000" transform="translate(0.500000 0.500000)" fill="white" fill-opacity="0"/>
		</clipPath>
	</defs>
	<rect id="online consulting" rx="-0.500000" width="113.000000" height="113.000000" transform="translate(0.500000 0.500000)" fill="#FFFFFF" fill-opacity="0"/>
	<g clip-path="url(#clip1_81)">
		<path id="Vector" d="M113.98 96.71C113.96 96.38 113.87 96.05 113.64 95.74L100.14 77.52L100.14 30.02C100.14 25.66 96.59 22.12 92.23 22.12L88.74 22.12L88.74 12.2C88.74 8.94 86.09 6.29 82.83 6.29L60.62 6.29C54.5 6.29 49.53 11.27 49.53 17.39L49.53 22.12L21.78 22.12C17.42 22.12 13.87 25.66 13.87 30.02L13.87 77.52L0.37 95.74C0.1 96.11 -0.03 96.75 0.01 97.56C0.18 101.09 3.48 107.7 10.94 107.7L103.09 107.7C109.42 107.7 114.23 102.26 113.98 96.71ZM5.34 95.01L16.55 79.89L97.46 79.89L108.66 95.01L5.34 95.01ZM26.56 76.33C27.44 69.74 33.07 64.64 39.89 64.64C46.71 64.64 52.35 69.74 53.23 76.33L26.56 76.33ZM53.09 17.39C53.09 13.23 56.47 9.86 60.62 9.86L82.83 9.86C84.13 9.86 85.18 10.91 85.18 12.2L85.18 22.39C85.18 26.54 81.8 29.92 77.64 29.92L58.44 29.92C57.8 29.92 57.21 30.26 56.89 30.82L53.09 37.43L53.09 17.39L53.09 17.39ZM17.43 30.02C17.43 27.63 19.38 25.68 21.77 25.68L49.53 25.68L49.53 38.12C49.53 41.58 54.11 42.8 55.83 39.8L59.46 33.48L77.64 33.48C82.62 33.48 86.83 30.19 88.24 25.68L92.23 25.68C94.63 25.68 96.58 27.63 96.58 30.02L96.58 76.33L56.83 76.33C55.93 67.77 48.68 61.08 39.89 61.08C31.11 61.08 23.86 67.77 22.96 76.33L17.43 76.33L17.43 30.02ZM103.09 104.14L10.94 104.14C7.5 104.14 4.61 101.77 3.81 98.58L110.21 98.58C109.41 101.77 106.52 104.14 103.09 104.14Z" fill="#F9B50A" fill-opacity="1.000000" fill-rule="nonzero"/>
		<path id="Vector" d="M76.99 85.67L37.02 85.67C36.04 85.67 35.24 86.47 35.24 87.45C35.24 88.44 36.04 89.23 37.02 89.23L76.99 89.23C77.97 89.23 78.77 88.44 78.77 87.45C78.77 86.47 77.97 85.67 76.99 85.67ZM39.9 57.29C44.06 57.29 47.44 53.9 47.44 49.74L47.44 45.41C47.44 41.25 44.06 37.87 39.9 37.87C35.74 37.87 32.35 41.25 32.35 45.41L32.35 49.74C32.35 53.9 35.74 57.29 39.9 57.29ZM35.91 45.41C35.91 43.22 37.7 41.43 39.9 41.43C42.09 41.43 43.88 43.22 43.88 45.41L43.88 49.74C43.88 51.94 42.09 53.73 39.9 53.73C37.7 53.73 35.91 51.94 35.91 49.74L35.91 45.41ZM60.31 18.04L77.95 18.04C78.94 18.04 79.73 17.24 79.73 16.25C79.73 15.27 78.94 14.47 77.95 14.47L60.31 14.47C59.33 14.47 58.53 15.27 58.53 16.25C58.53 17.24 59.33 18.04 60.31 18.04ZM60.31 25.3L73.39 25.3C74.38 25.3 75.17 24.51 75.17 23.52C75.17 22.54 74.38 21.74 73.39 21.74L60.31 21.74C59.33 21.74 58.53 22.54 58.53 23.52C58.53 24.51 59.33 25.3 60.31 25.3Z" fill="#F9B50A" fill-opacity="1.000000" fill-rule="nonzero"/>
	</g>
</svg>
