<svg width="98.000000" height="98.000000" viewBox="0 0 98 98" fill="none" xmlns="http://www.w3.org/2000/svg" xmlns:xlink="http://www.w3.org/1999/xlink">
	<desc>
			Created with Pixso.
	</desc>
	<defs>
		<clipPath id="clip1_94">
			<rect id="Repair Tools" rx="-0.500000" width="97.000000" height="97.000000" transform="translate(0.500000 0.500000)" fill="white" fill-opacity="0"/>
		</clipPath>
	</defs>
	<rect id="Repair Tools" rx="-0.500000" width="97.000000" height="97.000000" transform="translate(0.500000 0.500000)" fill="#FFFFFF" fill-opacity="0"/>
	<g clip-path="url(#clip1_94)">
		<path id="Vector" d="M62.78 35.21C56.72 35.21 50.8 37.01 45.76 40.38C40.73 43.74 36.8 48.52 34.48 54.12C32.16 59.72 31.56 65.87 32.74 71.81C33.92 77.75 36.84 83.21 41.12 87.49C45.4 91.78 50.86 94.69 56.8 95.88C62.74 97.06 68.9 96.45 74.5 94.13C80.09 91.81 84.87 87.89 88.24 82.85C91.61 77.82 93.4 71.9 93.4 65.84C93.4 57.72 90.17 49.93 84.43 44.18C78.69 38.44 70.9 35.21 62.78 35.21ZM83.3 84.21L79.18 80.09L77 82.27L81.15 86.36C76.51 90.56 70.56 93.05 64.31 93.4L64.31 87.28L61.25 87.28L61.25 93.4C54.99 93.05 49.05 90.56 44.4 86.36L48.52 82.24L46.35 80.06L42.26 84.21C38.08 79.56 35.62 73.62 35.29 67.37L41.34 67.37L41.34 64.31L35.29 64.31C35.62 58.06 38.08 52.12 42.26 47.46L46.38 51.58L48.55 49.41L44.4 45.32C49.06 41.14 55 38.68 61.25 38.35L61.25 44.4L64.31 44.4L64.31 38.35C70.55 38.68 76.5 41.14 81.15 45.32L77.03 49.44L79.21 51.61L83.3 47.46C87.5 52.11 89.99 58.05 90.34 64.31L84.21 64.31L84.21 67.37L90.34 67.37C89.99 73.62 87.5 79.57 83.3 84.21Z" fill="#F9B50A" fill-opacity="1.000000" fill-rule="nonzero"/>
		<path id="Vector" d="M62.78 47.46C59.14 47.46 55.59 48.54 52.57 50.56C49.55 52.58 47.19 55.45 45.8 58.81C44.41 62.16 44.05 65.86 44.75 69.42C45.46 72.99 47.21 76.26 49.78 78.83C52.35 81.4 55.63 83.15 59.19 83.86C62.76 84.57 66.45 84.21 69.81 82.82C73.17 81.42 76.04 79.07 78.05 76.05C80.07 73.03 81.15 69.47 81.15 65.84C81.15 60.97 79.22 56.29 75.77 52.85C72.32 49.4 67.65 47.46 62.78 47.46ZM78.09 65.84C78.09 67.21 77.9 68.57 77.52 69.88L70.43 65.84L77.49 61.8C77.88 63.11 78.08 64.47 78.09 65.84ZM47.46 65.84C47.46 64.47 47.65 63.11 48.03 61.8L55.12 65.84L48.06 69.88C47.68 68.57 47.47 67.21 47.46 65.84ZM65.84 65.84C65.84 66.44 65.66 67.04 65.32 67.54C64.99 68.04 64.51 68.44 63.95 68.67C63.39 68.9 62.77 68.96 62.18 68.84C61.58 68.72 61.04 68.43 60.61 68C60.18 67.58 59.89 67.03 59.77 66.44C59.65 65.84 59.72 65.23 59.95 64.67C60.18 64.11 60.57 63.63 61.07 63.29C61.58 62.96 62.17 62.78 62.78 62.78C63.59 62.78 64.37 63.1 64.94 63.67C65.52 64.25 65.84 65.03 65.84 65.84ZM65.84 60.59C65.59 60.45 65.36 60.3 65.12 60.19L69.71 52.2C70.69 52.7 71.61 53.3 72.45 53.99L65.84 60.59ZM59.71 60.59L53.13 53.99C53.98 53.3 54.9 52.7 55.87 52.2L60.46 60.19C60.16 60.3 59.93 60.45 59.71 60.59ZM57.52 62.78C57.39 63.02 57.23 63.25 57.13 63.5L49.13 58.9C49.63 57.93 50.23 57.01 50.92 56.16L57.52 62.78ZM57.13 68.24C57.23 68.49 57.39 68.72 57.52 68.96L50.92 75.55C50.23 74.7 49.63 73.78 49.13 72.81L57.13 68.24ZM59.71 71.09C59.96 71.23 60.19 71.38 60.43 71.49L55.84 79.48C54.87 78.98 53.95 78.38 53.1 77.69L59.71 71.09ZM65.84 71.09L72.42 77.69C71.57 78.38 70.66 78.98 69.68 79.48L65.09 71.49C65.39 71.38 65.62 71.23 65.84 71.09ZM68.03 68.9C68.17 68.66 68.32 68.43 68.43 68.18L76.42 72.78C75.92 73.75 75.32 74.67 74.63 75.52L68.03 68.9ZM68.43 63.43C68.32 63.19 68.17 62.96 68.03 62.72L74.63 56.13C75.32 56.98 75.92 57.9 76.42 58.87L68.43 63.43ZM66.9 51.06L62.78 58.18L58.73 51.12C61.38 50.37 64.18 50.37 66.82 51.12L66.9 51.06ZM58.73 80.58L62.78 73.5L66.82 80.55C64.18 81.31 61.38 81.31 58.73 80.55L58.73 80.58ZM24.5 70.54L24.5 40.79C27.01 39.52 29.09 37.51 30.44 35.04C31.8 32.56 32.36 29.73 32.07 26.92C31.78 24.12 30.65 21.47 28.81 19.32C26.98 17.17 24.54 15.64 21.82 14.91C21.59 14.85 21.34 14.84 21.11 14.89C20.88 14.94 20.66 15.05 20.48 15.2C20.29 15.34 20.14 15.53 20.04 15.75C19.94 15.97 19.89 16.2 19.9 16.44L19.9 24.5C19.9 25.31 19.58 26.09 19 26.66C18.43 27.23 17.65 27.56 16.84 27.56C16.03 27.56 15.25 27.23 14.67 26.66C14.1 26.09 13.78 25.31 13.78 24.5L13.78 16.39C13.78 16.16 13.74 15.92 13.64 15.7C13.54 15.49 13.39 15.3 13.2 15.15C13.02 15 12.8 14.9 12.57 14.85C12.33 14.8 12.09 14.8 11.86 14.86C9.12 15.58 6.67 17.12 4.82 19.27C2.98 21.42 1.83 24.08 1.54 26.9C1.25 29.71 1.83 32.55 3.19 35.04C4.56 37.52 6.65 39.52 9.18 40.79L9.18 70.54C6.65 71.8 4.56 73.81 3.19 76.29C1.83 78.77 1.25 81.61 1.54 84.43C1.83 87.25 2.98 89.91 4.82 92.06C6.67 94.21 9.12 95.75 11.86 96.46C12.09 96.52 12.32 96.53 12.55 96.48C12.78 96.43 13 96.33 13.18 96.19C13.37 96.04 13.52 95.85 13.63 95.63C13.73 95.41 13.78 95.17 13.78 94.93L13.78 87.28C13.78 86.67 13.96 86.08 14.3 85.57C14.64 85.07 15.13 84.68 15.69 84.45C16.25 84.22 16.87 84.17 17.46 84.29C18.06 84.42 18.6 84.71 19.03 85.15C19.31 85.43 19.53 85.76 19.68 86.12C19.83 86.49 19.9 86.88 19.9 87.28L19.9 94.93C19.9 95.34 20.06 95.73 20.35 96.02C20.64 96.3 21.03 96.46 21.43 96.46C21.56 96.48 21.69 96.48 21.82 96.46C24.56 95.75 27.01 94.21 28.86 92.06C30.7 89.91 31.84 87.25 32.13 84.43C32.43 81.61 31.85 78.77 30.49 76.29C29.12 73.81 27.03 71.8 24.5 70.54ZM22.96 92.76L22.96 87.28C22.97 86.48 22.81 85.69 22.51 84.95C22.2 84.22 21.75 83.55 21.19 82.99C20.33 82.13 19.25 81.54 18.06 81.3C16.87 81.06 15.64 81.17 14.52 81.63C13.4 82.09 12.44 82.87 11.76 83.88C11.08 84.88 10.72 86.06 10.71 87.28L10.71 92.82C8.83 91.9 7.25 90.46 6.17 88.67C5.09 86.88 4.54 84.82 4.6 82.72C4.66 80.63 5.33 78.6 6.52 76.88C7.7 75.15 9.36 73.81 11.3 73.01C11.59 72.89 11.84 72.68 12.01 72.41C12.18 72.15 12.26 71.83 12.25 71.52L12.25 39.81C12.25 39.5 12.16 39.2 11.99 38.95C11.82 38.7 11.58 38.5 11.3 38.38C9.36 37.58 7.7 36.23 6.52 34.51C5.33 32.79 4.66 30.76 4.6 28.66C4.54 26.57 5.09 24.51 6.17 22.72C7.25 20.92 8.83 19.48 10.71 18.57L10.71 24.5C10.71 26.12 11.36 27.68 12.51 28.83C13.66 29.97 15.21 30.62 16.84 30.62C18.46 30.62 20.02 29.97 21.17 28.83C22.32 27.68 22.96 26.12 22.96 24.5L22.96 18.57C24.85 19.48 26.42 20.92 27.51 22.72C28.59 24.51 29.14 26.57 29.07 28.66C29.01 30.76 28.35 32.79 27.16 34.51C25.97 36.23 24.31 37.58 22.38 38.38C22.1 38.5 21.86 38.7 21.69 38.95C21.52 39.2 21.43 39.5 21.43 39.81L21.43 71.52C21.43 71.82 21.52 72.12 21.69 72.38C21.86 72.63 22.1 72.83 22.38 72.94C24.31 73.75 25.97 75.09 27.16 76.82C28.35 78.54 29.01 80.57 29.07 82.66C29.14 84.76 28.59 86.82 27.51 88.61C26.42 90.4 24.85 91.84 22.96 92.76ZM52.06 19.9L55.12 19.9C55.32 19.9 55.52 19.86 55.71 19.79C55.89 19.71 56.06 19.6 56.21 19.46L59.27 16.39C59.41 16.25 59.52 16.08 59.6 15.9C59.68 15.71 59.71 15.51 59.71 15.31L59.71 12.25C59.71 12.04 59.68 11.84 59.6 11.66C59.52 11.47 59.41 11.3 59.27 11.16L56.21 8.1C56.06 7.95 55.89 7.84 55.71 7.76C55.52 7.69 55.32 7.65 55.12 7.65L52.06 7.65C51.86 7.65 51.66 7.69 51.47 7.76C51.28 7.84 51.11 7.95 50.97 8.1L47.91 11.16C47.77 11.3 47.65 11.47 47.58 11.66C47.5 11.84 47.46 12.04 47.46 12.25L47.46 15.31C47.46 15.51 47.5 15.71 47.58 15.9C47.65 16.08 47.77 16.25 47.91 16.39L50.97 19.46C51.11 19.6 51.28 19.71 51.47 19.79C51.66 19.86 51.86 19.9 52.06 19.9ZM50.53 12.87L52.69 10.71L54.49 10.71L56.65 12.87L56.65 14.68L54.49 16.84L52.69 16.84L50.53 14.68L50.53 12.87Z" fill="#F9B50A" fill-opacity="1.000000" fill-rule="nonzero"/>
		<path id="Vector" d="M47.91 25.58C48.05 25.72 48.22 25.84 48.41 25.91C48.59 25.99 48.79 26.03 49 26.03L58.18 26.03C58.38 26.03 58.58 25.99 58.77 25.91C58.96 25.84 59.13 25.72 59.27 25.58L65.39 19.46C65.54 19.31 65.65 19.14 65.73 18.96C65.8 18.77 65.84 18.57 65.84 18.37L65.84 9.18C65.84 8.98 65.8 8.78 65.73 8.59C65.65 8.41 65.54 8.24 65.39 8.1L59.27 1.97C59.13 1.83 58.96 1.72 58.77 1.64C58.58 1.56 58.38 1.53 58.18 1.53L49 1.53C48.79 1.53 48.59 1.56 48.41 1.64C48.22 1.72 48.05 1.83 47.91 1.97L41.78 8.1C41.64 8.24 41.53 8.41 41.45 8.59C41.38 8.78 41.34 8.98 41.34 9.18L41.34 18.37C41.34 18.57 41.38 18.77 41.45 18.96C41.53 19.14 41.64 19.31 41.78 19.46L47.91 25.58ZM44.4 9.81L49.62 4.59L57.55 4.59L62.78 9.81L62.78 17.74L57.55 22.96L49.62 22.96L44.4 17.74L44.4 9.81ZM85.75 16.84L82.68 16.84C82.48 16.84 82.28 16.88 82.09 16.95C81.91 17.03 81.74 17.14 81.6 17.28L78.53 20.35C78.39 20.49 78.28 20.66 78.2 20.84C78.13 21.03 78.09 21.23 78.09 21.43L78.09 24.5C78.09 24.7 78.13 24.9 78.2 25.08C78.28 25.27 78.39 25.44 78.53 25.58L81.6 28.64C81.74 28.79 81.91 28.9 82.09 28.98C82.28 29.05 82.48 29.09 82.68 29.09L85.75 29.09C85.95 29.09 86.15 29.05 86.33 28.98C86.52 28.9 86.69 28.79 86.83 28.64L89.89 25.58C90.04 25.44 90.15 25.27 90.23 25.08C90.3 24.9 90.34 24.7 90.34 24.5L90.34 21.43C90.34 21.23 90.3 21.03 90.23 20.84C90.15 20.66 90.04 20.49 89.89 20.35L86.83 17.28C86.69 17.14 86.52 17.03 86.33 16.95C86.15 16.88 85.95 16.84 85.75 16.84ZM87.28 23.87L85.12 26.03L83.31 26.03L81.15 23.87L81.15 22.06L83.31 19.9L85.12 19.9L87.28 22.06L87.28 23.87Z" fill="#F9B50A" fill-opacity="1.000000" fill-rule="nonzero"/>
		<path id="Vector" d="M96.02 17.28L89.89 11.16C89.75 11.02 89.58 10.9 89.4 10.83C89.21 10.75 89.01 10.71 88.81 10.71L79.62 10.71C79.42 10.71 79.22 10.75 79.03 10.83C78.85 10.9 78.68 11.02 78.53 11.16L72.41 17.28C72.27 17.43 72.15 17.6 72.08 17.78C72 17.97 71.96 18.17 71.96 18.37L71.96 27.56C71.96 27.76 72 27.96 72.08 28.15C72.15 28.33 72.27 28.5 72.41 28.64L78.53 34.77C78.68 34.91 78.85 35.02 79.03 35.1C79.22 35.18 79.42 35.22 79.62 35.21L88.81 35.21C89.01 35.22 89.21 35.18 89.4 35.1C89.58 35.02 89.75 34.91 89.89 34.77L96.02 28.64C96.16 28.5 96.27 28.33 96.35 28.15C96.43 27.96 96.47 27.76 96.46 27.56L96.46 18.37C96.47 18.17 96.43 17.97 96.35 17.78C96.27 17.6 96.16 17.43 96.02 17.28ZM93.4 26.93L88.18 32.15L80.25 32.15L75.03 26.93L75.03 19L80.25 13.78L88.18 13.78L93.4 19L93.4 26.93Z" fill="#F9B50A" fill-opacity="1.000000" fill-rule="nonzero"/>
	</g>
</svg>
