<?xml version="1.0" encoding="utf-8"?>
<!-- Generator: Adobe Illustrator 27.0.0, SVG Export Plug-In . SVG Version: 6.00 Build 0)  -->
<svg version="1.1" id="Шар_1" xmlns="http://www.w3.org/2000/svg" xmlns:xlink="http://www.w3.org/1999/xlink" x="0px" y="0px"
	 viewBox="0 0 99 90" style="enable-background:new 0 0 99 90;" xml:space="preserve">
<style type="text/css">
	.st0{fill:#A5A5A5;}
</style>
<path class="st0" d="M97,53.6l-0.4,0.1V45h0l0,0L78.1,9.5c0.1-2.9-1.1-5.8-3.5-7.7l-1.1-0.9c-1.6-1.3-3.9-1.1-5.1,0.5L43.8,31
	l-1.2-1.9v-0.2H25.1v16.5H7.6c-2.7,0-4.9,2.2-4.9,4.9v9.6c0,3.1,2.5,5.7,5.7,5.7H21v2h-9.3c-3.1,0-5.9,1.3-7.9,3.3
	c-2,2-3.3,4.8-3.3,7.9C0.5,85,5.5,90,11.7,90h42.8c3.1,0,5.9-1.3,7.9-3.3c2-2,3.3-4.8,3.3-7.9c0-6.2-5-11.2-11.2-11.2h-9v-2h2.3
	c3.1,0,5.7-2.5,5.7-5.7v-13l15.2-21.3L84,50.8v4.4l-11.3,1.5v-0.8c0-1.3-1-2.3-2.3-2.3c-0.6,0-1.2,0.3-1.6,0.7
	c-0.4,0.4-0.7,1-0.7,1.6V60c0,10.8,8.7,19.5,19.5,19.5c6,0,10.9-4.9,10.9-10.9V54.9C98.5,54.1,97.8,53.5,97,53.6z M41.4,63.4v2.2
	h-0.1v2H25.1v-4.2H41.4z M8.2,59.3c-0.9,0-1.6-0.7-1.6-1.6v-6.5c0-0.9,0.7-1.6,1.6-1.6h16.8v9.8H8.2z M56.4,71.7
	c2.8,0,5.2,2.3,5.2,5.2c0,1.4-0.6,2.7-1.5,3.6c-0.9,0.9-2.2,1.5-3.6,1.5H10c-2.8,0-5.2-2.3-5.2-5.1c0-1.4,0.6-2.7,1.5-3.6
	c0.9-0.9,2.2-1.5,3.6-1.5H56.4z M49.5,57.5c0,1.2-0.9,2.1-2.1,2.1H29V33.3h4.2v14.4c0,0.2-0.3,3,2.8,6.1c2.6,2.5,7,3.2,12.2,3.2
	c0.4,0,0.8,0,1.2,0V57.5z M49.5,53.5c-4.6,0.1-7.8-0.1-10.7-2.3c-1.3-1-1.8-3.2-1.8-3.3l0-14.5h3.3l9.2,14.1V53.5z M50.2,40.6
	l-3.8-5.8L69.6,5.4C70.4,4.4,72,4.2,73.1,5c0.7,0.5,1,1.3,1,2.1c0,0.5-0.2,1.1-0.5,1.5L50.2,40.6z M72.7,19.9l3.6-5.1
	c0.1-0.1,0.2-0.3,0.3-0.4l15.6,28.7c0.3,0.6,0.4,1.3,0.4,1.9l-0.1,0.6l-0.3,0.6c-0.3,0.5-0.7,0.9-1.3,1.1c-0.5,0.2-2.2,0.2-3-1.3
	L72.7,19.9z M88.4,51.2l3.7-0.3v3.3l-3.7,0.5V51.2z M89.8,71.7c-7.3,1.4-14.2-3.4-15.6-10.7l20.3-3.8l0.1,7.2
	C94.7,68.4,93.7,71,89.8,71.7z"/>
</svg>
