<svg width="25.000000" height="25.000000" viewBox="0 0 25 25" fill="none" xmlns="http://www.w3.org/2000/svg" xmlns:xlink="http://www.w3.org/1999/xlink">
	<desc>
			Created with Pixso.
	</desc>
	<defs/>
	<path id="tel" d="M5 0L20 0C22.7617 0 25 2.23853 25 5L25 20C25 22.7615 22.7617 25 20 25L5 25C2.23828 25 0 22.7615 0 20L0 5C0 2.23853 2.23828 0 5 0ZM4.49609 11.8745C4.46289 11.8907 4.42871 11.908 4.39453 11.926L4.39258 11.925C4.25 12.0009 4.11523 12.0938 4.04492 12.2407C3.93457 12.4752 4.04004 12.771 4.22461 12.9469C4.40918 13.1228 4.65527 13.2067 4.89355 13.2842C5.3418 13.4312 5.79297 13.5737 6.24414 13.7125C6.78223 13.8785 7.3418 14.0409 7.89844 13.9579C8.51953 13.8658 9.06055 13.4799 9.57715 13.1047C11.1582 11.9548 12.7383 10.8041 14.3193 9.65417C14.4453 9.56311 14.6035 9.46741 14.7412 9.53784C14.9727 9.65601 14.8398 10.0258 14.6719 10.2305C13.4756 11.6825 11.8672 12.7286 10.7529 14.251C10.6191 14.4341 10.4873 14.6396 10.4854 14.8706C10.4814 15.2539 10.8213 15.5299 11.126 15.7408C12.4082 16.6301 13.6914 17.5194 14.9736 18.4086C15.2832 18.6223 15.5977 18.8397 15.9551 18.9435C16.3125 19.0463 16.7246 19.0192 17.0137 18.7766C17.3555 18.4897 17.4453 17.9919 17.5107 17.5383C17.9912 14.2321 18.4707 10.9249 18.9502 7.61865C19.0195 7.14429 19.0654 6.59045 18.7393 6.25317C18.6719 6.18201 18.5898 6.12512 18.501 6.08459C18.2441 5.96826 17.9492 5.98987 17.6816 6.04309C17.54 6.07104 17.4033 6.12146 17.2627 6.14771C17.0957 6.17834 16.9268 6.28296 16.7705 6.35327C16.0703 6.66711 15.3682 6.98193 14.667 7.29578C13.9658 7.60962 13.2646 7.92432 12.5635 8.23816C11.8623 8.55212 11.1602 8.86682 10.459 9.18066C9.75879 9.49451 9.05664 9.80933 8.35547 10.1232L7.30371 10.5948C7.12793 10.6732 6.95312 10.7517 6.77832 10.8302C6.69043 10.8699 6.60254 10.9087 6.51562 10.9484C6.46973 10.9691 6.42383 10.9889 6.37793 11.0096C6.34766 11.0223 6.29492 11.061 6.2627 11.061C5.67188 11.3262 5.08008 11.5914 4.49609 11.8745Z" clip-rule="evenodd" fill="#F9B50A" fill-opacity="1.000000" fill-rule="evenodd"/>
</svg>
