<?xml version="1.0" encoding="utf-8"?>
<!-- Generator: Adobe Illustrator 27.0.0, SVG Export Plug-In . SVG Version: 6.00 Build 0)  -->
<svg version="1.1" id="tires" class="svg" xmlns="http://www.w3.org/2000/svg" xmlns:xlink="http://www.w3.org/1999/xlink" x="0px" y="0px"
	 viewBox="0 0 85.9 90" style="enable-background:new 0 0 85.9 90;" xml:space="preserve" fill="#a5a5a5">
<!-- <style type="text/css">
	.st0{fill:#A5A5A5;}
</style> -->
<g>
	<path class="st0" d="M43,0C19.3,0,0,20.1,0,45c0,24.9,19.3,45,43,45s43-20.1,43-45C86,20.1,66.7,0,43,0z M80.4,49.4
		c0.8,0.4,1.2,1.1,1.2,1.8c0,1-0.7,2.1-2,2.1c-1.2,0-2,1.1-2,2.1c0,0.6,0.3,1.2,0.8,1.6c0.6,0.4,0.8,1,0.8,1.6c0,1.2-1,2.3-2.4,2.1
		c-0.1,0-0.3,0-0.4,0c-1.7,0-2.7,2-1.5,3.4c0.4,0.4,0.5,0.9,0.5,1.3c0,1.3-1.4,2.5-2.9,1.9c-0.3-0.1-0.5-0.2-0.8-0.2
		c-1.5,0-2.6,1.6-1.8,3.1c0.2,0.3,0.3,0.7,0.3,1c0,1.5-1.8,2.7-3.2,1.7c-0.4-0.3-0.8-0.4-1.2-0.4c-1.3,0-2.4,1.2-2,2.7
		c0.1,0.2,0.1,0.4,0.1,0.6c0,1.7-2.2,2.8-3.6,1.4c-0.4-0.4-1-0.6-1.5-0.6c-1.1,0-2.2,0.9-2.1,2.2c0,0.1,0,0.1,0,0.2
		c0,2-2.7,2.9-3.8,1.1c-0.4-0.7-1.1-1-1.7-1c-1,0-1.9,0.7-2.1,1.8c-0.2,1.2-1.1,1.8-2.1,1.8c-0.8,0-1.6-0.4-1.9-1.4
		c-0.3-0.9-1.1-1.4-2-1.4s-1.6,0.5-2,1.4c-0.3,0.9-1.1,1.4-1.9,1.4c-1,0-1.9-0.6-2.1-1.8c-0.2-1.1-1.1-1.8-2.1-1.8
		c-0.7,0-1.3,0.3-1.7,1c-0.4,0.7-1.1,1-1.7,1c-1.1,0-2.2-0.9-2.1-2.2c0-0.1,0-0.1,0-0.2c0-1.8-2.3-2.8-3.6-1.4
		c-0.4,0.5-1,0.6-1.5,0.6c-1.3,0-2.4-1.2-2-2.7c0.1-0.2,0.1-0.4,0.1-0.6c0-1.6-1.8-2.7-3.2-1.7c-0.4,0.3-0.8,0.4-1.2,0.4
		c-1.4,0-2.6-1.6-1.8-3.1c0.2-0.3,0.3-0.7,0.3-1c0-1.4-1.4-2.5-2.9-1.9c-0.3,0.1-0.6,0.2-0.8,0.2c-1.6,0-2.8-2-1.5-3.4
		c0.3-0.4,0.5-0.9,0.5-1.3c0-1.2-1.1-2.3-2.4-2c-0.1,0-0.3,0-0.4,0c-1.9,0-2.8-2.5-1.2-3.7c0.6-0.4,0.8-1,0.8-1.6c0-1-0.8-2-2-2.1
		c-1.3,0-2-1.1-2-2.1c0-0.7,0.4-1.5,1.2-1.8c0.8-0.4,1.2-1.1,1.2-1.9c0-0.9-0.5-1.8-1.6-2c-1.1-0.3-1.6-1.1-1.6-2
		c0-0.9,0.5-1.8,1.6-2c1-0.2,1.6-1.1,1.6-2c0-0.7-0.4-1.5-1.2-1.9c-0.8-0.4-1.2-1.1-1.2-1.8c0-1,0.7-2.1,2-2.1c1.2,0,2-1.1,2-2.1
		c0-0.6-0.2-1.2-0.8-1.6c-0.6-0.4-0.8-1-0.8-1.6c0-1.2,1-2.3,2.4-2.1c0.1,0,0.3,0,0.4,0c1.7,0,2.7-2,1.5-3.4
		c-0.4-0.4-0.5-0.9-0.5-1.3c0-1.3,1.4-2.5,2.9-1.9c0.3,0.1,0.5,0.2,0.8,0.2c1.5,0,2.6-1.6,1.8-3.1c-0.2-0.3-0.3-0.7-0.3-1
		c0-1.5,1.8-2.7,3.3-1.7c0.4,0.3,0.8,0.4,1.2,0.4c1.3,0,2.4-1.2,2-2.7c-0.1-0.2-0.1-0.4-0.1-0.6c0-1.7,2.2-2.8,3.6-1.4
		c0.4,0.4,1,0.6,1.5,0.6c1.1,0,2.2-0.9,2.1-2.2c0-0.1,0-0.1,0-0.2c0-2,2.7-2.9,3.8-1.1c0.4,0.7,1.1,1,1.7,1c1,0,1.9-0.7,2.1-1.8
		c0.2-1.2,1.1-1.8,2.1-1.8c0.8,0,1.6,0.4,1.9,1.4c0.3,0.9,1.1,1.4,2,1.4s1.6-0.5,2-1.4c0.7-2,3.7-1.7,4,0.4C49.1,7.3,50.1,8,51,8
		c0.7,0,1.3-0.3,1.7-1c0.4-0.7,1.1-1,1.7-1c1.1,0,2.2,0.9,2.1,2.2c0,0.1,0,0.1,0,0.2c0,1.8,2.3,2.8,3.6,1.4c0.4-0.5,1-0.7,1.5-0.7
		c1.3,0,2.4,1.2,2,2.7c-0.1,0.2-0.1,0.4-0.1,0.6c0,1.6,1.8,2.7,3.3,1.7c0.4-0.3,0.8-0.4,1.2-0.4c1.4,0,2.6,1.6,1.8,3.1
		c-0.2,0.3-0.3,0.7-0.3,1c0,1.4,1.4,2.5,2.9,1.9c0.3-0.1,0.6-0.2,0.8-0.2c1.6,0,2.8,2,1.5,3.4c-0.3,0.4-0.5,0.9-0.5,1.3
		c0,1.2,1.1,2.3,2.4,2c0.1,0,0.3,0,0.4,0c1.9,0,2.8,2.5,1.2,3.7c-0.6,0.4-0.8,1-0.8,1.6c0,1,0.8,2.1,2,2.1c1.3,0,2,1.1,2,2.1
		c0,0.7-0.4,1.5-1.2,1.8c-0.8,0.4-1.2,1.1-1.2,1.9c0,0.9,0.6,1.8,1.6,2c1.1,0.2,1.6,1.1,1.6,2c0,0.9-0.5,1.8-1.6,2
		c-1,0.2-1.6,1.1-1.6,2C79.2,48.3,79.6,49,80.4,49.4z"/>
	<path class="st0" d="M41.8,13.2c-16.3,0-29.5,13.2-29.5,29.5c0,16.3,13.2,29.5,29.5,29.5c16.3,0,29.5-13.2,29.5-29.5
		C71.3,26.4,58.1,13.2,41.8,13.2z M43.2,65.4c-0.4,0-0.8-0.1-1.1-0.3c-0.4-0.3-0.8-0.8-0.8-1.4l-0.2-5.4l3.6-0.1l0.2,5.4
		C45,64.6,44.2,65.4,43.2,65.4z M32.5,48.5l-8,2.3c-1.1,0.3-2.2-0.2-2.6-1.3c-0.1-0.4-0.1-0.9,0-1.3c0.2-0.6,0.6-1.1,1.3-1.3l8-2.3
		L32.5,48.5z M29.8,25.2c0.4-0.3,0.8-0.4,1.2-0.4c0.6,0,1.2,0.3,1.6,0.8L38,33c-1.1,0.7-2.2,1.6-3,2.7l-5.6-7.6
		C28.7,27.2,28.9,25.9,29.8,25.2z M54.4,25.6c0.4,0,0.8,0.1,1.2,0.4c0.9,0.7,1.1,1.9,0.4,2.8L51.5,35l-3.3-2.4l4.5-6.2
		C53.1,25.9,53.7,25.6,54.4,25.6z M36.2,42.7c0-3.8,3.1-6.8,6.8-6.8s6.8,3.1,6.8,6.8c0,3.8-3.1,6.8-6.8,6.8S36.2,46.5,36.2,42.7z
		 M61.4,30.1c3,3.6,4.9,8.1,5.4,13l-12.4-3.2L61.4,30.1z M55,44.4l7.9,2.6c0.6,0.2,1.1,0.7,1.3,1.3c0.1,0.4,0.1,0.8,0,1.3
		c-0.4,1.1-1.5,1.6-2.6,1.2l-7.6-1.6L55,44.4z M50,22.3l-6.8,9.3c-0.1,0-0.2,0-0.3,0l-7.3-10c1.9-0.4,3.9-0.7,5.9-0.7
		C44.6,20.9,47.4,21.4,50,22.3z M23.6,28.2l8.6,11.8l-15.7,4.4C16.6,38.1,19.3,32.4,23.6,28.2z M20,57.6l15.2-4.9
		c0.6,0.7,1.3,1.4,2.1,1.9l-1.7,14.1C29,67.2,23.4,63.1,20,57.6z M49.8,68.2l-0.7-13.9c0.4-0.3,0.7-0.6,1.1-1l13.4,3.8
		C60.6,62.3,55.7,66.2,49.8,68.2z"/>
</g>
</svg>
