<?xml version="1.0" encoding="utf-8"?>
<!-- Generator: Adobe Illustrator 27.0.0, SVG Export Plug-In . SVG Version: 6.00 Build 0)  -->
<svg version="1.1" id="Шар_1" xmlns="http://www.w3.org/2000/svg" xmlns:xlink="http://www.w3.org/1999/xlink" x="0px" y="0px"
	 viewBox="0 0 92 90" style="enable-background:new 0 0 92 90;" xml:space="preserve">
<style type="text/css">
	.st0{fill:#A5A5A5;}
</style>
<g>
	<path class="st0" d="M81.8,71.1L60.4,49.9c0,0-0.1-0.1-0.1-0.1l2.2-2.2c8,2,16.6,0,22.7-6c7.3-7.3,8.7-18.2,4.3-27.3l-0.1-0.2
		c-0.2-0.5-0.5-0.9-0.9-1.3c-1.2-1.2-3-1.5-4.5-1L71.8,24c-1.1,1.1-2.9,1.1-4,0L67,23.3c-1.1-1.1-1.1-2.9,0-4L78.4,8
		c1.4-1.4,1.4-3.7,0-5.1l-0.5-0.5c-0.5-0.5-1.1-0.8-1.7-0.9c-0.1,0-0.1-0.1-0.1-0.1c0,0,0,0,0,0c-0.1,0-0.1,0-0.2-0.1
		c-8.5-2.9-19.4-1.3-25.9,5.2C43,13.3,41.3,23.3,44.7,32l-3.9,3.8l-13.1-13c-0.3-0.3-0.5-0.6-0.7-0.9l-4.2-7.5L9.9,4.8
		C9,4.1,7.7,4.2,6.9,5L1,10.8c-0.5,0.5-0.8,1.2-0.8,1.9L0,17.8c0,0.6,0.2,1.2,0.6,1.7l10,11.7l5.6,2.3l13.5,13.4L5.6,70.7
		c-2.5,2.5-2.5,6.5,0,8.9l7.8,7.7c2.5,2.4,6.5,2.4,9,0l20.9-20.7c0,0,0.1,0.1,0.1,0.1l21.4,21.2c2.8,2.8,7.4,2.8,10.3,0l6.7-6.6
		C84.6,78.5,84.6,73.9,81.8,71.1z M19.4,27.9l-8.5-5.1L4,12.7l4.1-4.1l10.1,7.3l4.5,8.7l14.7,14.6l-3.3,3.3L19.4,27.9z M64.1,41.4
		c-1.7-0.2-3.3-0.6-4.9-1.3L20.4,78.4c-1.2,1.2-3.1,1.2-4.2,0l-4-4c-1.2-1.2-1.2-3,0-4.2l37.9-37.6c-0.7-1.1-1.3-2.1-1.7-3.3
		c-2.9-7.1-1.5-15.5,4.3-21.3c4.9-4.9,12.9-6.5,19.5-5c0.6,0.1,1.1,0.3,1.7,0.4L62.1,15.2c-0.1,0.1-0.2,0.2-0.3,0.3
		c-2.1,2.4-2,6.2,0.3,8.5l4.2,4.2c2.4,2.4,6.4,2.4,8.9,0l10.7-10.6c0.3,1.1,0.4,2.3,0.5,3.4c0.3,5.3-1.6,10.7-5.7,14.8
		C76.1,40.3,69.9,42.1,64.1,41.4z M71.1,79.8c-1.1,1.1-3,1.1-4.1,0L48.5,61.5l2.8-2.8l12.1,12c0.9,0.9,2.5,0.8,3.3-0.3
		c0.6-0.9,0.4-2.1-0.3-2.8l-12-11.9l2.8-2.8l18.6,18.4c1.1,1.1,1.1,2.9,0,4.1L71.1,79.8z"/>
</g>
</svg>
