<svg width="25.000000" height="25.000000" viewBox="0 0 25 25" fill="none" xmlns="http://www.w3.org/2000/svg" xmlns:xlink="http://www.w3.org/1999/xlink">
	<desc>
			Created with Pixso.
	</desc>
	<defs/>
	<path id="viber" d="M0 5C0 2.23 2.23 0 5 0L20 0C22.76 0 25 2.23 25 5L25 20C25 22.76 22.76 25 20 25L5 25C2.23 25 0 22.76 0 20L0 5ZM8.49 5.38C10.8 4.87 13.19 4.87 15.5 5.38L15.75 5.43C17.12 5.73 18.21 6.77 18.56 8.12C19.14 10.4 19.14 12.78 18.56 15.06C18.21 16.41 17.12 17.45 15.75 17.75L15.5 17.8C14.05 18.12 12.57 18.24 11.09 18.16L9.17 19.86C9.02 19.99 8.81 20.03 8.62 19.96C8.44 19.9 8.3 19.74 8.27 19.55L7.95 17.67C6.71 17.29 5.76 16.31 5.43 15.06C4.85 12.78 4.85 10.4 5.43 8.12C5.78 6.77 6.87 5.73 8.24 5.43L8.49 5.38ZM15.26 6.42C13.11 5.95 10.88 5.95 8.73 6.42L8.48 6.48C7.5 6.69 6.74 7.43 6.49 8.39C5.95 10.49 5.95 12.69 6.49 14.79C6.74 15.75 7.5 16.49 8.48 16.7L8.55 16.72C8.76 16.76 8.93 16.94 8.96 17.15L9.18 18.41L10.54 17.21C10.65 17.11 10.79 17.07 10.94 17.08C12.38 17.18 13.84 17.07 15.26 16.76L15.51 16.7C16.49 16.49 17.25 15.75 17.5 14.79C18.04 12.69 18.04 10.49 17.5 8.39C17.25 7.43 16.49 6.69 15.51 6.48L15.26 6.42ZM12.13 7.61C12.13 7.41 12.29 7.25 12.49 7.25C13.58 7.25 14.53 7.61 15.28 8.31L15.28 8.32C15.66 8.7 15.96 9.15 16.16 9.64C16.35 10.14 16.44 10.67 16.42 11.2C16.41 11.39 16.24 11.55 16.04 11.54C15.84 11.53 15.68 11.36 15.69 11.17C15.71 10.74 15.64 10.31 15.48 9.9C15.32 9.5 15.08 9.13 14.77 8.82C14.17 8.26 13.41 7.96 12.49 7.96C12.29 7.96 12.13 7.8 12.13 7.61ZM9.14 8.11C9.01 8.09 8.87 8.11 8.75 8.18L8.74 8.18C8.47 8.34 8.22 8.54 8.01 8.77C7.84 8.97 7.75 9.17 7.72 9.36C7.71 9.48 7.72 9.59 7.75 9.7L7.76 9.71C7.96 10.28 8.22 10.82 8.53 11.34C8.93 12.06 9.43 12.72 10 13.32L10.02 13.35L10.04 13.37L10.06 13.39L10.08 13.4C10.69 13.97 11.37 14.46 12.1 14.86C12.94 15.31 13.45 15.52 13.75 15.61L13.75 15.62C13.84 15.64 13.92 15.66 14.01 15.66C14.27 15.64 14.51 15.53 14.71 15.36C14.94 15.15 15.14 14.91 15.29 14.64L15.29 14.64C15.44 14.37 15.39 14.11 15.18 13.93C14.76 13.57 14.3 13.25 13.82 12.97C13.49 12.8 13.16 12.9 13.03 13.08L12.74 13.43C12.6 13.61 12.33 13.58 12.33 13.58L12.32 13.59C10.34 13.09 9.81 11.11 9.81 11.11C9.81 11.11 9.79 10.84 9.97 10.71L10.33 10.42C10.5 10.28 10.62 9.96 10.44 9.64C10.16 9.16 9.83 8.71 9.46 8.29C9.38 8.2 9.27 8.13 9.14 8.11L9.14 8.11ZM12.46 8.42C12.26 8.42 12.1 8.58 12.1 8.78C12.1 8.98 12.26 9.14 12.46 9.14L12.48 9.14C13.14 9.18 13.62 9.4 13.96 9.76C14.3 10.13 14.48 10.58 14.47 11.15C14.46 11.35 14.62 11.51 14.82 11.51C15.02 11.52 15.19 11.36 15.19 11.17C15.21 10.42 14.97 9.78 14.49 9.27C14 8.75 13.32 8.48 12.51 8.42L12.5 8.42L12.46 8.42ZM12.07 9.96C12.08 9.76 12.25 9.61 12.45 9.62C12.88 9.64 13.27 9.78 13.55 10.06C13.83 10.34 13.96 10.72 13.99 11.15C14 11.34 13.84 11.51 13.64 11.52C13.44 11.53 13.27 11.38 13.26 11.18C13.24 10.88 13.15 10.68 13.03 10.56C12.91 10.44 12.72 10.35 12.41 10.34C12.21 10.33 12.06 10.16 12.07 9.96Z" fill="#F9B50A" fill-opacity="1.000000" fill-rule="evenodd"/>
</svg>
