<svg version="1.1" id="Шар_1" xmlns="http://www.w3.org/2000/svg" x="0" y="0" viewBox="0 0 100.3 90" style="enable-background:new 0 0 100.3 90" xml:space="preserve"><style>.st0{fill:#a5a5a5}</style><path class="st0" d="M99.6 51.4c-.1-3.3-1.4-6.5-2.5-9.1-1.4-3.4-3.5-8.6-5.5-14.3-2.1-5.8-5.7-8.8-8.4-10.2-2.2-1.2-4.7-1.8-7.3-1.8H60.2v35.4h-4.4V39.2L16.2 1.4C15.3.5 14 0 12.8 0c-1.4 0-2.7.5-3.7 1.6-3.1 3.3-3.3 8.5-.4 12.1l.8 1v15.8c0 1.2 1.2 1.6 2.2 2.2 1.6 1 2.4 1.7 2.4 3.7 0 1.9-1.6 3.5-3.5 3.5s-3.5-1.6-3.5-3.5c0-1.2-1-2.2-2.2-2.2s-2.2 1-2.2 2.2c0 4.4 3.5 7.9 7.9 7.9s7.9-3.5 7.9-7.9c0-3.7-2-6.8-4.8-7.7v-8.8l19.5 24.4v7.1H4.4c-2.1 0-3.7 1.7-3.7 3.7v17c0 4.9 4 8.9 8.9 8.9h5c2.1 5.3 6.6 9 11.9 9 5.3 0 9.9-3.7 11.9-9h22.9c2 5.3 6.6 9 11.9 9s9.9-3.7 11.9-9h5.7c4.9 0 8.9-4 8.9-8.9l-.1-20.7zM11.9 7.1c-.5-.6-.5-1.4 0-2 .3-.4.8-.6 1.3-.6.4 0 .8.2 1.1.5l37.2 35.7v10.7h-14l-.1-11.7L11.9 7.1zm24 65.5c0 3.6-2 6.7-5 8.4-1.4.7-2.9 1.2-4.5 1.2s-3.2-.4-4.5-1.2c-3-1.6-5-4.8-5-8.4 0-5.3 4.2-9.5 9.5-9.5s9.5 4.3 9.5 9.5zm46.8 0c0 3.6-2 6.7-5 8.4-1.4.7-2.9 1.2-4.5 1.2s-3.2-.4-4.5-1.2c-3-1.6-5-4.8-5-8.4 0-5.3 4.2-9.5 9.5-9.5 5.2 0 9.5 4.3 9.5 9.5zm11.4 0h-7.9c-.9-7.5-6.3-13.2-13-13.2-6.6 0-12.1 5.8-13 13.2H39.4c-.9-7.5-6.3-13.2-13-13.2-6.6 0-12.1 5.8-13 13.2h-7c-.7 0-1.3-.6-1.3-1.3V56.5c0-.7.6-1.3 1.3-1.3h58.4V20.4h11c1.9 0 3.7.4 5.2 1.3 2.9 1.6 5.1 4.2 6.4 7.9 2.1 5.8 4.2 11.1 5.6 14.5 1 2.5 2.2 5.2 2.2 7.8v5.6l.2 13.9c0 .7-.6 1.2-1.3 1.2z"/><path class="st0" d="M73.2 24.3v17.6c0 2.4 1.9 4.2 3.5 5.3 1.2.9 2.7 1.3 4.2 1.3h8.6s-6.3-15.3-8.7-20c-2.3-4.7-7.6-4.2-7.6-4.2z"/></svg>