<svg version="1.1" id="Шар_1" xmlns="http://www.w3.org/2000/svg" x="0" y="0" viewBox="0 0 95 90" style="enable-background:new 0 0 95 90" xml:space="preserve"><style>.st0{fill:#a5a5a5}</style><path class="st0" d="M21.7 56.9c-4.1.8-6.9 4.7-6.1 8.9.8 4.1 4.7 6.9 8.9 6.1 4.1-.8 6.9-4.7 6.1-8.9-.8-4.2-4.7-6.9-8.9-6.1zm2.3 12c-2 .4-3.9-.9-4.2-2.9-.4-2 .9-3.9 2.9-4.3 2-.4 3.9.9 4.2 2.9.3 2-1 3.9-2.9 4.3z"/><path class="st0" d="m45.1 56.5-2.9-5c-.1-.2-.2-.3-.4-.3h-.1c-.2-.1-.4 0-.6.1l-1.8 1.1c-.1 0-.2.1-.3.1-.3.1-.5.3-.8.3-.1 0-.1 0-.2.1h-.1c-.1 0-.3.1-.4.1h-.1c-1.3.1-2-.8-2-.7-.3-.2-.5-.5-.8-.7 0 0-1-.6-1.1-1.9l1.4-3.9c.1-.2.1-.4 0-.6-.1-.2-.3-.3-.4-.4l-5.4-1.9c-.2-.1-.4-.1-.6 0 0 0-.1 0-.1.1-.2.1-.3.2-.3.4l-.7 2c0 .1-.1.2-.1.3-.5 1.2-1.2 1.7-1.8 1.9-.1 0-.1.1-.2.1-.2 0-.3.1-.4.1h-1.6s-1.1.2-2.1-.8l-1.4-3.9c-.1-.2-.2-.4-.4-.4-.1 0-.1 0-.1-.1h-.5l-.2.1-5.2 2c-.2.1-.4.2-.5.4s-.1.4 0 .6l.7 2c0 .1.1.2.1.3.8 2.5-.9 3.4-.9 3.5-.3.2-.6.5-.8.7l-.1.1c-.1 0-.1.1-.1.1-.2.1-.4.3-.8.4-.1 0-.1 0-.2.1-.1 0-.3.1-.4.1h-.5l-3.6-2h-.1c-.2-.1-.3-.1-.5 0-.1 0-.2.1-.2.1-.5-.3-.5-.2-.6-.1L2 56.1c-.1.2-.1.4-.1.6.1.2.3.3.4.4l1.9 1c.1.1.2.1.2.2 2.3 1.4 1.5 3.2 1.5 3.2-.1.5-.2 1.1-.3 1.6-.1.4-.4 1-1 1.5l-4 .8c-.2 0-.4.1-.5.3-.1.2-.1.4-.1.6L1.1 72c0 .2.1.4.3.5.2.1.4.2.6.1l2.1-.4h.3c2.6-.4 3.2 1.5 3.2 1.5.3.5.5 1 .8 1.5.2.4.3 1 .1 1.7L6 80c-.1.2-.2.4-.2.6 0 .2.1.4.3.5l4.5 3.7c.1.1.2.1.3.2h.2c.2 0 .3-.1.5-.2l.1-.1 1.3-1.6.2-.2c.5-.6 1.1-.9 1.6-1.1h.1c.1 0 .3-.1.4-.1h.2c.7 0 1.1.3 1.1.3.5.2 1 .4 1.6.6.4.2.9.5 1.2 1.2v4.1c0 .2.1.4.2.6.1.2.3.2.5.2h5.8c.2 0 .3-.1.5-.1l.1-.1c.2-.2.2-.4.2-.6v-2.4c.1-2.7 2-2.9 2-2.9.5-.2 1-.3 1.4-.5h.1c.1 0 .2-.1.4-.1h.3c.3 0 .7.1 1.1.2l2.7 3.1c.1.1.3.2.4.3h.1c.2 0 .4 0 .6-.2l4.4-3.8c.1-.1.3-.3.3-.5s-.1-.4-.2-.6L39 78.7c-.1-.1-.1-.2-.2-.2-1.6-2.1-.3-3.5-.4-3.6.2-.3.4-.6.6-1l.1-.1c0-.1.1-.1.1-.2.2-.3.5-.7 1.1-1h.1c.1 0 .2-.1.3-.1h.3l3.7.6h.1c.2 0 .4 0 .6-.1.2-.1.2-.3.3-.5l1-5.7c0-.2 0-.4-.1-.6-.1-.2-.3-.3-.5-.3l-2.1-.4c-.1 0-.2 0-.3-.1-2.7-.5-2.6-2.4-2.6-2.4 0-.3-.1-.6-.1-.9v-.2s-.4-1.1.4-2.2l3.5-2.1c.2-.1.3-.3.4-.5-.1-.2-.1-.5-.2-.6zM25.8 79c-8.1 1.5-15.9-3.9-17.4-12s3.8-15.9 11.9-17.4c8.1-1.5 15.9 3.9 17.4 12S33.9 77.5 25.8 79zm20.3-64.5c-4.1.8-6.9 4.7-6.1 8.9.8 4.1 4.7 6.9 8.9 6.1 4.1-.8 6.9-4.7 6.1-8.9-.8-4.1-4.8-6.9-8.9-6.1zm2.2 12c-2 .4-3.9-.9-4.2-2.9-.4-2 .9-3.9 2.9-4.3 2-.4 3.9.9 4.2 2.9.4 2-.9 3.9-2.9 4.3z"/><path class="st0" d="m69.4 14.1-2.9-5c-.1-.2-.2-.3-.4-.3H66c-.2-.1-.4 0-.6.1L63.6 10c-.1 0-.2.1-.3.1-.3.1-.5.3-.8.3-.1 0-.1 0-.2.1h-.1c-.1 0-.3.1-.4.1h-.1c-1.3.1-2-.8-2-.7-.3-.2-.5-.5-.8-.7 0 0-1-.6-1.1-1.9l1.4-3.9c.1-.2.1-.4 0-.6-.1-.2-.3-.3-.4-.4L53.4.5c-.2-.1-.4-.1-.6 0 0 0-.1 0-.1.1-.2.1-.3.2-.3.4l-.7 2c0 .1-.1.2-.1.3-.5 1.2-1.2 1.7-1.8 1.9-.1 0-.1.1-.2.1-.2 0-.3.1-.4.1h-1.6s-1.1.2-2.1-.8L44.1.7c-.1-.2-.2-.4-.4-.4-.1 0-.1 0-.1-.1h-.5l-.2.1-5.2 2c-.2.1-.4.2-.5.4-.1.2-.1.4 0 .6l.7 2c0 .1.1.2.1.3.8 2.5-.9 3.4-.9 3.5-.3.2-.6.5-.8.7l-.1.1c-.1 0-.1.1-.1.1-.2.1-.4.3-.8.4-.1 0-.1 0-.2.1-.1 0-.3.1-.4.1h-.5l-3.6-2h-.1c-.2-.1-.3-.1-.5 0-.1 0-.2.1-.2.1l-.3.3-2.8 5.1c-.1.2-.1.4-.1.6.1.2.2.4.4.5l1.9 1c.1.1.2.1.2.2 2.3 1.4 1.5 3.2 1.5 3.2-.1.5-.2 1.1-.3 1.6-.1.4-.4 1-1 1.5L25 23c-.2 0-.4.1-.5.3-.1.2-.2.4-.1.6l1.1 5.7c0 .2.1.4.3.5.2.1.4.2.6.1l2.1-.4h.3c2.6-.4 3.2 1.5 3.2 1.5.3.5.5 1 .8 1.5.2.4.3 1 .1 1.7l-2.6 3.2c-.1.2-.2.4-.2.6 0 .2.1.4.3.5l4.5 3.7c.1.1.2.1.3.2h.2c.2 0 .3-.1.5-.2l.1-.1 1.3-1.6.2-.2c.5-.6 1.1-.9 1.6-1.1h.1c.1 0 .3-.1.4-.1h.2c.7 0 1.1.3 1.1.3.5.2 1 .4 1.6.6.4.2.9.5 1.2 1.2v4.1c0 .2.1.4.2.6.1.2.3.2.5.2h5.8c.2 0 .3-.1.5-.1l.1-.1c.2-.2.2-.4.2-.6v-2.4c.1-2.7 2-2.9 2-2.9.5-.2 1-.3 1.4-.5h.1c.1 0 .2-.1.4-.1h.3c.3 0 .7.1 1.1.2L59 43c.1.1.3.2.4.3h.1c.2 0 .4 0 .6-.2l4.4-3.8c.1-.1.3-.3.3-.5s-.1-.4-.2-.6l-1.4-1.6c-.1-.1-.1-.2-.2-.2-1.6-2.1-.3-3.5-.4-3.6.2-.3.4-.6.6-1l.1-.1c0-.1.1-.1.1-.2.2-.3.5-.7 1.1-1h.1c.1 0 .2-.1.3-.1h.3l3.7.6h.1c.2 0 .4 0 .6-.1.2-.1.2-.3.3-.5l1-5.7c0-.2 0-.4-.1-.6-.1-.2-.3-.3-.5-.3l-2.1-.4c-.1 0-.2 0-.3-.1-2.6-.6-2.5-2.5-2.6-2.5 0-.3-.1-.6-.1-.9v-.2s-.4-1.1.4-2.2l3.5-2.1c.2-.1.3-.3.4-.5.1-.4 0-.6-.1-.8zM50.2 36.6c-8.1 1.5-15.9-3.9-17.4-12S36.6 8.7 44.7 7.2c8.1-1.5 15.9 3.9 17.4 12s-3.8 15.9-11.9 17.4zm19.9 21.6c-4.2.8-6.9 4.8-6.1 9 .8 4.1 4.7 6.9 8.9 6.1 4.1-.8 6.9-4.7 6.1-8.9-.8-4.2-4.8-6.9-8.9-6.2zm2.2 12.1c-2 .4-3.9-.9-4.2-2.9-.4-2 .9-3.9 2.9-4.3 2-.4 3.9.9 4.2 2.9.4 2-.9 3.9-2.9 4.3z"/><path class="st0" d="m93.4 57.9-2.9-5c-.1-.2-.2-.3-.4-.3H90c-.2-.1-.4 0-.6.1l-1.8 1.1c-.1 0-.2.1-.3.1-.3.1-.5.3-.8.3-.1 0-.1 0-.2.1h-.1c-.1 0-.3.1-.4.1h-.1c-1.3.1-2-.8-2-.7-.3-.2-.5-.5-.8-.7 0 0-1-.6-1.1-1.9l1.4-3.9c.1-.2.1-.4 0-.6-.2-.4-.4-.6-.6-.6l-5.4-2c-.2-.1-.4-.1-.6 0 0 0-.1 0-.1.1-.2.1-.3.2-.3.4l-.7 2c0 .1-.1.2-.1.3-.5 1.2-1.2 1.7-1.8 1.9-.1 0-.1.1-.2.1-.2 0-.3.1-.4.1h-1.6s-1.1.2-2.1-.8l-1.4-3.9c-.1-.2-.2-.4-.4-.4-.1 0-.1 0-.1-.1h-.5l-.2.1-5.2 2c-.2.1-.4.2-.5.4s-.1.4 0 .6l.7 2c0 .1.1.2.1.3.8 2.5-.9 3.4-.9 3.5-.3.2-.6.5-.8.7l-.1.1c-.1 0-.1.1-.1.1-.2.1-.4.3-.8.4-.1 0-.1 0-.2.1-.1 0-.3.1-.4.1H58l-3.6-2h-.1c-.2-.1-.3-.1-.5 0-.1 0-.2.1-.2.1l-.3.3-2.8 5.1c-.1.2-.1.4-.1.6.1.2.2.4.4.5l1.9 1c.1.1.2.1.2.2 2.3 1.4 1.5 3.2 1.5 3.2-.1.5-.2 1.1-.3 1.6-.1.4-.4 1-1 1.5l-4 .8c-.2 0-.4.1-.5.3-.1.2-.2.4-.1.6l1.1 5.7c0 .2.1.4.3.5.2.1.4.2.6.1l2.1-.4h.3c2.6-.4 3.2 1.5 3.2 1.5.3.5.5 1 .8 1.5.2.4.3 1 .1 1.7l-2.6 3.2c-.1.2-.2.4-.2.6s.1.4.3.5l4.5 3.7c.1.1.2.1.3.2h.2c.2 0 .3-.1.5-.2l.1-.1 1.3-1.6.2-.2c.5-.6 1.1-.9 1.6-1.1h.1c.1 0 .3-.1.4-.1h.2c.7 0 1.1.3 1.1.3.5.2 1 .4 1.6.6.4.2.9.5 1.2 1.2v4.1c0 .2.1.4.2.6.1.2.3.2.5.2h5.8c.2 0 .3-.1.5-.1l.1-.1c.2-.2.2-.4.2-.6v-2.4c.1-2.7 2-2.9 2-2.9.5-.2 1-.3 1.4-.5h.1c.1 0 .2-.1.4-.1h.3c.3 0 .7.1 1.1.2l2.7 3.1c.1.1.3.2.4.3h.1c.2 0 .4 0 .6-.2l4.4-3.8c.1-.1.3-.3.3-.5s-.1-.4-.2-.6l-1.4-1.6c-.1-.1-.1-.2-.2-.2-1.6-2.1-.3-3.5-.4-3.6.2-.3.4-.6.6-1l.1-.1c0-.1.1-.1.1-.2.2-.3.5-.7 1.1-1h.1c.1 0 .2-.1.3-.1h.3l3.7.6h.1c.2 0 .4 0 .6-.1.2-.1.2-.3.3-.5l1-5.7c0-.2 0-.4-.1-.6-.1-.2-.3-.3-.5-.3l-2.1-.4c-.1 0-.2 0-.3-.1-2.6-.6-2.5-2.5-2.6-2.5 0-.3-.1-.6-.1-.9v-.2s-.4-1.1.4-2.2l3.5-2.1c.2-.1.3-.3.4-.5-.1-.7-.1-.9-.2-1zM74.2 80.4c-8.1 1.5-15.9-3.9-17.4-12S60.6 52.5 68.7 51c8.1-1.5 15.9 3.9 17.4 12s-3.8 15.9-11.9 17.4z"/></svg>