<svg width="136" height="136" fill="none" xmlns="http://www.w3.org/2000/svg"><defs><clipPath id="a"><rect rx="-.5" width="135" height="135" transform="translate(.5 .5)" fill="#fff" fill-opacity="0"/></clipPath></defs><rect rx="-.5" width="135" height="135" transform="translate(.5 .5)"/><g clip-path="url(#a)"><path d="M111.62 50.11v36.76h-30.4V37.34c0-.73-.59-1.32-1.33-1.32H29.04c-.74 0-1.33.59-1.33 1.32v49.53H16.64c-.73 0-1.33.6-1.33 1.33v8.84H4.25c-.74 0-1.33.6-1.33 1.33v11.76c0 .74.59 1.33 1.33 1.33h8.7a8.6 8.6 0 0 0-2.4 5.98c0 4.77 3.87 8.64 8.63 8.64 4.77 0 8.64-3.87 8.64-8.64 0-2.32-.91-4.43-2.41-5.98h82.58a8.609 8.609 0 0 0-2.41 5.98c0 4.77 3.87 8.64 8.64 8.64 4.77 0 8.64-3.87 8.64-8.64 0-2.32-.92-4.43-2.41-5.98h2.04c.73 0 1.32-.59 1.32-1.33V88.2c0-.73-.59-1.33-1.32-1.33h-8.21V50.11c10.49-.68 18.79-9.42 18.79-20.08 0-11.1-9.01-20.12-20.12-20.12-11.11 0-20.12 9.02-20.12 20.12 0 10.66 8.3 19.4 18.79 20.08Zm2.6 61.35c3.3 0 5.98 2.68 5.98 5.98 0 3.3-2.68 5.98-5.98 5.98-3.3 0-5.98-2.68-5.98-5.98 0-3.3 2.68-5.98 5.98-5.98Zm-95.04 0c3.31 0 5.99 2.68 5.99 5.98a5.986 5.986 0 0 1-11.97 0c0-3.3 2.68-5.98 5.98-5.98ZM5.57 99.7h115.59v9.1H5.57v-9.1Zm115.59-10.17H17.97v7.51h103.19v-7.51Zm-90.79-2.66v-48.2h48.2v48.2h-48.2Zm15.24-9.55h24.07c.73 0 1.33-.59 1.33-1.33 0-.73-.6-1.32-1.33-1.32H45.61c-.74 0-1.33.59-1.33 1.32 0 .74.59 1.33 1.33 1.33Zm4.45-6.61h24.07a1.33 1.33 0 1 0 0-2.66H50.06c-.74 0-1.33.6-1.33 1.33 0 .74.59 1.33 1.33 1.33Zm5.76-6.61h18.31c.73 0 1.33-.6 1.33-1.33 0-.73-.6-1.33-1.33-1.33H55.82c-.73 0-1.33.6-1.33 1.33 0 .73.6 1.33 1.33 1.33Zm19.64-20.99c0-.74-.6-1.33-1.33-1.33H61.92c-.73 0-1.32.59-1.32 1.33v12.2c0 .74.59 1.33 1.32 1.33h12.21c.73 0 1.33-.59 1.33-1.33v-12.2Zm-2.66 1.33v9.54h-9.55v-9.54h9.55Zm40.15-31.87c9.64 0 17.47 7.82 17.47 17.46s-7.83 17.47-17.47 17.47c-9.64 0-17.47-7.83-17.47-17.47 0-9.64 7.83-17.46 17.47-17.46Zm0 3.06c-7.95 0-14.4 6.45-14.4 14.4s6.45 14.41 14.4 14.41 14.4-6.46 14.4-14.41-6.45-14.4-14.4-14.4Zm0 2.66c6.48 0 11.75 5.26 11.75 11.74 0 6.49-5.27 11.75-11.75 11.75s-11.75-5.26-11.75-11.75c0-6.48 5.27-11.74 11.75-11.74Zm2.76 7.11-3.7 3.69c-.52.52-.52 1.36 0 1.88.52.52 1.36.52 1.88 0l3.7-3.7.1 2.59c.03.73.65 1.3 1.38 1.28.73-.03 1.3-.65 1.28-1.38l-.23-5.61c0-.12-.02-.24-.05-.34-.07-.22-.18-.4-.33-.55l-.01-.01a1.29 1.29 0 0 0-.55-.33 2.02 2.02 0 0 0-.34-.06l-5.61-.22c-.73-.03-1.35.54-1.38 1.27-.03.73.54 1.35 1.27 1.38l2.59.11Z" fill="#F9B50A" fill-rule="evenodd"/><path d="M111.62 86.87h-30.4V37.34c0-.73-.59-1.32-1.33-1.32H29.04c-.74 0-1.33.59-1.33 1.32v49.53H16.64c-.73 0-1.33.6-1.33 1.33v8.84H4.25c-.74 0-1.33.6-1.33 1.33v11.76c0 .74.59 1.33 1.33 1.33h8.7a8.6 8.6 0 0 0-2.4 5.98c0 4.77 3.87 8.64 8.63 8.64 4.77 0 8.64-3.87 8.64-8.64 0-2.32-.91-4.43-2.41-5.98h82.58a8.609 8.609 0 0 0-2.41 5.98c0 4.77 3.87 8.64 8.64 8.64 4.77 0 8.64-3.87 8.64-8.64 0-2.32-.92-4.43-2.41-5.98h2.04c.73 0 1.32-.59 1.32-1.33V88.2c0-.73-.59-1.33-1.32-1.33h-8.21V50.11c10.49-.68 18.79-9.42 18.79-20.08 0-11.1-9.01-20.12-20.12-20.12-11.11 0-20.12 9.02-20.12 20.12 0 10.66 8.3 19.4 18.79 20.08v36.76Zm8.58 30.57c0 3.3-2.68 5.98-5.98 5.98-3.3 0-5.98-2.68-5.98-5.98 0-3.3 2.68-5.98 5.98-5.98 3.3 0 5.98 2.68 5.98 5.98Zm-95.03 0a5.986 5.986 0 0 1-11.97 0 5.986 5.986 0 0 1 11.97 0Zm95.99-17.74v9.1H5.57v-9.1h115.59ZM17.97 89.53v7.51h103.19v-7.51H17.97Zm12.4-50.86h48.2v48.2h-48.2v-48.2Zm39.31 38.65c.73 0 1.33-.59 1.33-1.33 0-.73-.6-1.32-1.33-1.32H45.61c-.74 0-1.33.59-1.33 1.32 0 .74.59 1.33 1.33 1.33h24.07Zm4.45-6.61a1.33 1.33 0 1 0 0-2.66H50.06c-.74 0-1.33.6-1.33 1.33 0 .74.59 1.33 1.33 1.33h24.07Zm0-6.61c.73 0 1.33-.6 1.33-1.33 0-.73-.6-1.33-1.33-1.33H55.82c-.73 0-1.33.6-1.33 1.33 0 .73.6 1.33 1.33 1.33h18.31Zm0-22.32H61.92c-.73 0-1.32.59-1.32 1.33v12.2c0 .74.59 1.33 1.32 1.33h12.21c.73 0 1.33-.59 1.33-1.33v-12.2c0-.74-.6-1.33-1.33-1.33Zm-1.33 12.2h-9.55v-9.54h9.55v9.54Zm57.62-23.95c0 9.64-7.83 17.47-17.47 17.47-9.64 0-17.47-7.83-17.47-17.47 0-9.64 7.83-17.46 17.47-17.46 9.64 0 17.47 7.82 17.47 17.46Zm-31.87 0c0 7.95 6.45 14.41 14.4 14.41s14.4-6.46 14.4-14.41-6.45-14.4-14.4-14.4-14.4 6.45-14.4 14.4Zm26.15 0c0 6.49-5.27 11.75-11.75 11.75s-11.75-5.26-11.75-11.75c0-6.48 5.27-11.74 11.75-11.74s11.75 5.26 11.75 11.74Zm-12.69-.94c-.52.52-.52 1.36 0 1.88.52.52 1.36.52 1.88 0l3.7-3.7.1 2.59c.03.73.65 1.3 1.38 1.28.73-.03 1.3-.65 1.28-1.38l-.23-5.61c0-.12-.02-.24-.05-.34-.07-.22-.18-.4-.33-.55l-.01-.01a1.29 1.29 0 0 0-.55-.33 2.02 2.02 0 0 0-.34-.06l-5.61-.22c-.73-.03-1.35.54-1.38 1.27-.03.73.54 1.35 1.27 1.38l2.59.11-3.7 3.69Z" stroke="#F9B50A"/></g></svg>