<svg width="25" height="25" fill="none" xmlns="http://www.w3.org/2000/svg"><path d="M5 0h15a5 5 0 0 1 5 5v15a5 5 0 0 1-5 5H5a5 5 0 0 1-5-5V5a5 5 0 0 1 5-5Zm3.754 5h7.492C18.316 5 20 6.759 20 8.92v7.16c0 2.16-1.684 3.92-3.754 3.92H8.754C6.684 20 5 18.241 5 16.08V8.92C5 6.76 6.684 5 8.754 5Zm0 1.383c-1.34 0-2.43 1.139-2.43 2.538v7.159c0 1.398 1.09 2.537 2.43 2.537h7.492c1.34 0 2.43-1.139 2.43-2.538V8.921c0-1.4-1.09-2.538-2.43-2.538H8.754Zm8.502 2.076c0 .542-.423.983-.94.983-.52 0-.942-.44-.942-.983 0-.542.422-.983.941-.983.519 0 .94.44.94.983ZM12.5 16.146c1.925 0 3.492-1.636 3.492-3.647S14.426 8.852 12.5 8.852c-1.925 0-3.491 1.636-3.491 3.647s1.566 3.647 3.491 3.647Zm0-5.91c1.195 0 2.168 1.016 2.168 2.264 0 1.248-.973 2.264-2.168 2.264-1.195 0-2.167-1.016-2.167-2.264 0-1.248.972-2.264 2.167-2.264Z" clip-rule="evenodd" fill="#F9B50A" fill-rule="evenodd"/></svg>