<svg width="142" height="80" fill="none" xmlns="http://www.w3.org/2000/svg"><path d="M45.227 28.208c4.48-9.66 14.3-16.377 25.666-16.377 11.367 0 21.187 6.718 25.667 16.377h7.732l-2.13-4.667-2.4.636a32.192 32.192 0 0 0-3.65-5.303l1.477-2.001-3.6-3.593-2.009 1.478a32.777 32.777 0 0 0-6.418-4.207l.547-2.405-4.743-1.852-1.243 2.135a32.849 32.849 0 0 0-6.347-1.18l-.37-2.455h-5.104l-.37 2.454c-2.62.227-5.118.729-7.525 1.542l-1.314-2.08-4.679 2.03.64 2.376a33.604 33.604 0 0 0-5.333 3.635l-1.888-1.393-.107-.078-3.607 3.593 1.47 1.987a32.748 32.748 0 0 0-4.232 6.407c-.007.014.008-.015 0 0l-2.222-.524-.156-.035-1.399 3.5h7.647Zm25.66 39.912c-11.368 0-21.201-6.782-25.681-16.441l-7.668-.029 2.03 4.632 2.379-.636c-.007-.014.007.014 0 0 1.036 1.965 2.265 3.656 3.65 5.31l-1.47 1.98 3.606 3.593.078-.057 1.917-1.414c-.021-.021.022.021 0 0 2.052 1.746 4.168 3.083 6.426 4.207l-.554 2.398 4.75 1.852 1.235-2.128c2.166.643 4.232.99 6.348 1.18l.369 2.455h5.105l.369-2.454a32.862 32.862 0 0 0 7.526-1.549l1.32 2.086 4.672-2.03-.639-2.382a32.273 32.273 0 0 0 5.318-3.635l2.01 1.478 3.6-3.593-1.477-1.994a32.32 32.32 0 0 0 4.217-6.4l2.421.552 1.356-3.45-7.561.028c-4.466 9.66-14.279 16.44-25.653 16.44Z" fill="#F2990D"/><path d="m102.751 55.101-.156-.035-2.258-.516c-.007.014-.014.02-.014.035a32.74 32.74 0 0 1-4.203 6.364l1.477 1.995-3.6 3.592-.1-.07-1.91-1.408c-.028.021-.05.042-.078.063a31.967 31.967 0 0 1-5.24 3.565l.64 2.383-4.672 2.03-.036-.057-1.278-2.03c-.05.014-.092.035-.142.043a32.358 32.358 0 0 1-7.384 1.506l-.369 2.454h-5.105l-.369-2.454a32.228 32.228 0 0 1-6.347-1.181l-.022.042-1.214 2.086-.135-.05-4.608-1.802.554-2.398a32.508 32.508 0 0 1-6.425-4.207l-.093.07-1.902 1.408-.071-.07-3.565-3.523 1.47-1.987a33.147 33.147 0 0 1-3.65-5.31l-.148.042-2.23.594-.014-.042-2.01-4.59h-3.592l.561 1.287 2.038 4.653 1.136 2.589 2.712-.722c.348.523.696 1.047 1.072 1.556l-1.676 2.256 7.619 7.588 2.265-1.67c.88.637 1.782 1.231 2.712 1.775l-.625 2.73 2.641 1.033 4.75 1.852 2.634 1.026 1.413-2.433c.618.127 1.228.24 1.853.347l.42 2.779h10.77l.426-2.787a37.72 37.72 0 0 0 3.174-.657l1.498 2.383 2.598-1.131 4.672-2.03 2.599-1.131-.732-2.723a33.12 33.12 0 0 0 1.548-1.06l2.28 1.682 2.001-2 3.6-3.593 2.002-1.994-1.675-2.27a37.788 37.788 0 0 0 1.782-2.702l2.755.63 1.029-2.63 1.832-4.647h-3.543l-1.342 3.472ZM37.594 28.208l1.378-3.458.014-.035 2.244.51.156.034a32.666 32.666 0 0 1 4.224-6.4l-1.47-1.986 3.607-3.593 1.91 1.408.093.063a32.528 32.528 0 0 1 5.332-3.635l-.64-2.376 4.545-1.973.135-.056 1.292 2.036.021.043a32.852 32.852 0 0 1 7.526-1.542l.37-2.454h5.104l.37 2.454c2.115.184 4.188.573 6.205 1.139l.142.042 1.207-2.079.035-.05 4.743 1.853-.546 2.405a32.689 32.689 0 0 1 6.418 4.207l1.91-1.407.1-.07 3.599 3.592-1.477 2a32.925 32.925 0 0 1 3.628 5.262c.007.014.014.021.021.035l2.251-.593.149-.043 2.13 4.667 3.493-.042-.56-1.287-2.038-4.653-1.136-2.588-2.734.728c-.34-.516-.695-1.04-1.058-1.542l1.676-2.27-7.611-7.58-2.28 1.676a37.027 37.027 0 0 0-2.704-1.775L90 6.13l-2.684-1.04-4.743-1.852-2.641-1.033-1.413 2.44c-.61-.127-1.228-.24-1.846-.347l-.426-2.786h-10.77l-.42 2.786c-1.072.163-2.13.39-3.18.651l-1.499-2.376-2.598 1.131-4.672 2.03-2.592 1.131.725 2.709c-.526.34-1.051.693-1.555 1.06L47.42 8.968l-2.01 1.994-3.606 3.592-2.01 1.994 1.676 2.256a40.433 40.433 0 0 0-1.79 2.701l-2.733-.622-1.036 2.63-1.86 4.69h3.542v.006Z" fill="#020203"/><path d="M87.032 51.643c-3.65 4.979-9.55 8.217-16.195 8.217a20.025 20.025 0 0 1-16.188-8.217h-5.553c4.19 7.68 12.369 12.899 21.74 12.899 9.38 0 17.552-5.226 21.748-12.899h-5.552ZM70.83 19.95c6.645 0 12.538 3.231 16.188 8.21h5.559c-4.197-7.681-12.368-12.9-21.747-12.9-9.372 0-17.544 5.22-21.74 12.899h5.552c3.649-4.971 9.55-8.21 16.188-8.21Z" fill="#020203"/><path d="m138.827 31.85-5.624 16.116H47.428l5.886-16.116h85.513Z" fill="#fff"/><path d="M8.18 30.733 1.611 49.076h132.386l6.398-18.343H8.179Zm125.023 17.233H47.428l5.879-16.116h85.519l-5.623 16.116Z" fill="#020203"/><path d="M13.909 45.95c-1.171 0-2.13-.162-2.89-.487-.76-.325-1.299-.75-1.626-1.287a2.414 2.414 0 0 1-.34-1.705.47.47 0 0 1 .149-.254.387.387 0 0 1 .27-.1h2.683c.17 0 .291.03.37.079.078.05.156.12.234.212.07.12.163.24.277.346.12.106.277.191.468.255.2.064.433.092.703.092.518 0 .937-.07 1.257-.212.32-.142.511-.333.568-.58a.477.477 0 0 0-.128-.474c-.128-.12-.362-.233-.71-.34-.34-.098-.81-.204-1.392-.318-.844-.148-1.54-.382-2.101-.707-.554-.325-.944-.75-1.172-1.265-.227-.524-.255-1.14-.099-1.853.227-1.09.802-1.938 1.74-2.56.93-.623 2.144-.934 3.628-.934.745 0 1.412.107 2.009.319.596.212 1.1.488 1.512.834.412.34.717.707.909 1.103.199.39.263.764.192 1.125a.403.403 0 0 1-.142.261.404.404 0 0 1-.263.106h-2.819a.69.69 0 0 1-.348-.07.607.607 0 0 1-.227-.22c-.021-.155-.135-.297-.326-.417-.2-.12-.462-.184-.781-.184-.384 0-.696.064-.938.191a.831.831 0 0 0-.447.566c-.035.17 0 .311.1.438.099.12.298.234.589.326.29.092.71.198 1.25.31 1.043.156 1.86.397 2.456.722.59.325.987.743 1.179 1.252.198.509.22 1.117.078 1.824-.256 1.188-.88 2.086-1.86 2.694-.987.609-2.322.913-4.012.913Zm7.157-.162a.29.29 0 0 1-.27-.163c-.057-.106-.05-.212.014-.325l6.142-10.749c.07-.12.17-.24.305-.353a.794.794 0 0 1 .525-.17h3.174c.213 0 .362.057.455.17a.6.6 0 0 1 .149.353l1.569 10.75a.386.386 0 0 1-.107.353.451.451 0 0 1-.326.134h-2.528c-.192 0-.326-.042-.398-.134a.706.706 0 0 1-.142-.27l-.234-1.392h-4.047l-.845 1.414a.762.762 0 0 1-.227.262c-.106.085-.255.127-.447.127h-2.762v-.007Zm5.63-4.639h2.514l-.44-3.776-2.074 3.776Zm10.473 4.639c-.213 0-.37-.057-.462-.17a.672.672 0 0 1-.163-.353l-1.03-10.77c-.014-.156.029-.276.121-.354a.485.485 0 0 1 .32-.12h2.527c.199 0 .348.057.433.17a.638.638 0 0 1 .142.34l.504 7 3.494-7a.873.873 0 0 1 .27-.34.762.762 0 0 1 .503-.17h2.784c.135 0 .22.057.262.163.043.106.029.219-.028.346l-5.58 10.735a1.62 1.62 0 0 1-.32.353.795.795 0 0 1-.526.17h-3.25Z" fill="#fff"/><path d="M58.703 45.95c-1.172 0-2.13-.162-2.89-.487-.76-.325-1.3-.75-1.626-1.287a2.414 2.414 0 0 1-.34-1.705.47.47 0 0 1 .148-.254.387.387 0 0 1 .27-.1h2.684c.17 0 .291.03.37.079.077.05.155.12.233.212.072.12.164.24.277.346.121.106.277.191.469.255.199.064.433.092.703.092.518 0 .937-.07 1.257-.212.32-.142.51-.333.568-.58a.477.477 0 0 0-.128-.474c-.128-.12-.362-.233-.71-.34-.341-.098-.81-.204-1.392-.318-.845-.148-1.54-.382-2.101-.707-.554-.325-.945-.75-1.172-1.265-.227-.524-.255-1.14-.1-1.853.228-1.09.803-1.938 1.74-2.56.93-.623 2.144-.934 3.628-.934.746 0 1.413.107 2.01.319.596.212 1.1.488 1.512.834.412.34.717.707.909 1.103.198.39.262.764.191 1.125a.403.403 0 0 1-.142.261.404.404 0 0 1-.262.106H61.99a.69.69 0 0 1-.348-.07.607.607 0 0 1-.227-.22c-.021-.155-.135-.297-.327-.417-.199-.12-.461-.184-.78-.184-.384 0-.697.064-.938.191a.831.831 0 0 0-.447.566.5.5 0 0 0 .1.438c.099.12.297.234.588.326.292.092.71.198 1.25.31 1.044.156 1.86.397 2.457.722.589.325.987.743 1.178 1.252.2.509.22 1.117.078 1.824-.255 1.188-.88 2.086-1.86 2.694-.987.609-2.322.913-4.011.913Zm7.455-.162a.387.387 0 0 1-.299-.127.362.362 0 0 1-.078-.311l2.343-10.883a.528.528 0 0 1 .185-.312.51.51 0 0 1 .34-.127h8.265c.12 0 .22.043.284.127.071.085.092.191.071.312l-.419 1.98a.53.53 0 0 1-.191.304.514.514 0 0 1-.348.134h-5.212l-.369 1.662h4.842c.12 0 .22.042.298.127.071.085.1.191.078.311l-.404 1.818a.505.505 0 0 1-.192.31.542.542 0 0 1-.348.128h-4.842l-.355 1.697h5.346c.121 0 .22.043.284.134a.384.384 0 0 1 .064.319l-.419 1.966a.528.528 0 0 1-.184.31.51.51 0 0 1-.341.128h-8.4v-.007Zm11.658 0a.33.33 0 0 1-.27-.127.357.357 0 0 1-.064-.311l2.329-10.883a.505.505 0 0 1 .192-.312.515.515 0 0 1 .326-.127h4.807c1.526 0 2.655.347 3.38 1.04.724.693.951 1.661.681 2.906-.17.785-.49 1.45-.972 2.001a5.204 5.204 0 0 1-1.676 1.294l1.335 3.967a.703.703 0 0 1 .028.092c.007.029 0 .057-.007.092a.47.47 0 0 1-.163.262.425.425 0 0 1-.277.106h-2.847c-.213 0-.362-.057-.448-.163a.893.893 0 0 1-.163-.297l-.944-3.458h-1.214l-.739 3.48a.505.505 0 0 1-.191.31.542.542 0 0 1-.348.128h-2.755Zm4.615-6.69h1.605c.39 0 .71-.106.95-.325a1.45 1.45 0 0 0 .462-.813c.071-.34.029-.623-.106-.856-.142-.233-.412-.353-.817-.353h-1.604l-.49 2.347Zm10.387 6.69c-.213 0-.37-.057-.461-.17a.672.672 0 0 1-.164-.353l-1.03-10.77c-.013-.156.03-.276.121-.354a.485.485 0 0 1 .32-.12h2.528c.198 0 .347.057.433.17a.638.638 0 0 1 .142.34l.504 7 3.493-7a.873.873 0 0 1 .27-.34.762.762 0 0 1 .504-.17h2.783c.135 0 .22.057.263.163.042.106.028.219-.029.346l-5.58 10.735a1.62 1.62 0 0 1-.32.353.795.795 0 0 1-.525.17h-3.252Zm9.529 0a.344.344 0 0 1-.277-.127.36.36 0 0 1-.078-.311l2.343-10.883a.527.527 0 0 1 .184-.312.511.511 0 0 1 .341-.127h2.847c.121 0 .22.043.284.127a.365.365 0 0 1 .064.312l-2.329 10.883a.527.527 0 0 1-.184.31.511.511 0 0 1-.341.128h-2.854Zm11.182.162c-.767 0-1.47-.091-2.109-.275-.639-.184-1.178-.467-1.619-.842a3.061 3.061 0 0 1-.937-1.421c-.184-.573-.22-1.245-.092-2.015.078-.46.177-.955.298-1.478.121-.524.234-1.033.348-1.514.27-1.01.675-1.852 1.214-2.524a4.983 4.983 0 0 1 2.031-1.52c.816-.34 1.768-.503 2.861-.503.696 0 1.363.085 2.009.262.639.177 1.2.431 1.676.778.476.346.831.778 1.051 1.301.227.523.27 1.132.135 1.825a.472.472 0 0 1-.164.261.424.424 0 0 1-.277.106h-2.868c-.156 0-.27-.035-.348-.099-.071-.07-.121-.184-.142-.353-.014-.474-.142-.792-.397-.97-.256-.176-.583-.26-.987-.26-.497 0-.916.134-1.271.395-.355.262-.611.729-.767 1.386-.234.92-.44 1.86-.604 2.822-.12.657-.071 1.124.164 1.386.227.261.596.396 1.086.396a2.33 2.33 0 0 0 1.108-.269c.333-.177.61-.495.837-.955.093-.176.185-.297.277-.36.093-.064.228-.092.398-.092h2.868c.1 0 .185.035.242.099.064.07.078.148.057.254a5.787 5.787 0 0 1-.803 1.825 4.838 4.838 0 0 1-1.32 1.308 5.866 5.866 0 0 1-1.79.792 8.776 8.776 0 0 1-2.165.255Zm7.604-.162a.386.386 0 0 1-.298-.127.36.36 0 0 1-.078-.311l2.343-10.883a.527.527 0 0 1 .184-.312.511.511 0 0 1 .341-.127h8.264a.34.34 0 0 1 .284.127c.071.085.093.191.071.312l-.418 1.98a.537.537 0 0 1-.192.304.514.514 0 0 1-.348.134h-5.211l-.37 1.662h4.843c.12 0 .22.042.298.127a.369.369 0 0 1 .078.311l-.405 1.818a.502.502 0 0 1-.192.31.54.54 0 0 1-.347.128h-4.843l-.355 1.697h5.347c.12 0 .22.043.284.134a.386.386 0 0 1 .064.319l-.419 1.966a.534.534 0 0 1-.185.31.51.51 0 0 1-.341.128h-8.399v-.007Z" fill="#020203"/></svg>