<svg width="110" height="110" fill="none" xmlns="http://www.w3.org/2000/svg"><defs><clipPath id="a"><rect rx="-.5" width="109" height="109" transform="translate(.5 .5)" fill="#fff" fill-opacity="0"/></clipPath></defs><rect rx="-.5" width="109" height="109" transform="translate(.5 .5)"/><g clip-path="url(#a)" fill="#F9B50A"><path d="M55 79.06c3.39 0 6.72-1.01 9.54-2.9a17.16 17.16 0 0 0 6.33-7.71c1.31-3.14 1.65-6.6.98-9.93-.66-3.34-2.3-6.4-4.7-8.8a17.241 17.241 0 0 0-8.8-4.71 17.215 17.215 0 0 0-17.65 7.31 17.26 17.26 0 0 0-2.89 9.55c0 4.56 1.81 8.93 5.04 12.15 3.22 3.22 7.59 5.03 12.15 5.04Zm0-30.94c2.71 0 5.37.81 7.63 2.32 2.27 1.51 4.03 3.66 5.07 6.17s1.31 5.28.78 7.94a13.76 13.76 0 0 1-10.8 10.81 13.786 13.786 0 0 1-14.12-5.85 13.749 13.749 0 0 1-2.31-7.64c0-3.65 1.45-7.14 4.03-9.72A13.72 13.72 0 0 1 55 48.12Z"/><path d="M55 67.03c-.46 0-.9-.18-1.22-.51-.32-.32-.5-.76-.5-1.21 0-.46-.18-.9-.51-1.22a1.725 1.725 0 0 0-2.43 0c-.32.32-.5.76-.5 1.22 0 1.06.34 2.1.95 2.96.62.87 1.48 1.52 2.49 1.88v2.03c0 .46.18.9.5 1.22a1.725 1.725 0 0 0 2.43 0c.32-.32.5-.76.5-1.22v-2.03a5.14 5.14 0 0 0 2.73-2.25c.62-1.05.84-2.28.63-3.48-.2-1.19-.82-2.28-1.75-3.06A5.178 5.178 0 0 0 55 60.15c-.34 0-.68-.1-.96-.29-.28-.19-.5-.46-.63-.77a1.68 1.68 0 0 1-.1-.99 1.72 1.72 0 0 1 1.35-1.35 1.677 1.677 0 0 1 1.76.73c.19.28.29.61.29.95 0 .46.18.9.51 1.22a1.725 1.725 0 0 0 2.43 0c.32-.32.5-.76.5-1.22 0-1.06-.34-2.1-.95-2.96a5.175 5.175 0 0 0-2.49-1.88v-2.03c0-.46-.18-.9-.5-1.22a1.725 1.725 0 0 0-2.43 0c-.32.32-.5.76-.5 1.22v2.03a5.14 5.14 0 0 0-2.73 2.25 5.101 5.101 0 0 0-.63 3.48c.2 1.19.82 2.28 1.75 3.06.93.78 2.11 1.21 3.33 1.21.45 0 .89.18 1.21.5a1.725 1.725 0 0 1 0 2.43c-.32.33-.76.51-1.21.51Z"/><path d="M101.78 61.87H90.64a47.985 47.985 0 0 0-14.27-22.03l-9.55-8.36a5.14 5.14 0 0 0 1.63-2.27c.32-.89.38-1.85.19-2.78-.2-.92-.64-1.78-1.3-2.47a5.137 5.137 0 0 0-2.39-1.42l8.66-13a1.709 1.709 0 0 0-.11-2.06c-.04-.05-.1-.08-.15-.12l.02-.02a14.395 14.395 0 0 0-9.78-3.91c-2.87.01-5.67.89-8.03 2.52-5.34-2.33-10.88-4.67-18.78 1.26-.36.27-.59.66-.67 1.09-.07.43.02.88.27 1.24l8.67 13c-.83.22-1.59.64-2.21 1.23-.62.59-1.08 1.32-1.35 2.13-.26.82-.32 1.68-.16 2.52.16.84.53 1.63 1.07 2.29l-8.13 7.59 2.34 2.51 8.75-8.16h17.58l11.17 9.77a44.523 44.523 0 0 1 12.92 19.45H80.4c-1.27 0-2.48.51-3.38 1.4-.89.9-1.4 2.11-1.4 3.38v4.19c0 1.12.41 2.21 1.14 3.06-.73.85-1.14 1.94-1.14 3.06v4.19c.01.5.09 1 .26 1.48-1.05.25-1.99.84-2.66 1.68-.67.84-1.03 1.89-1.04 2.96v4.19c.01 1.07.37 2.12 1.04 2.96.67.84 1.61 1.43 2.66 1.68-.17.48-.25.98-.26 1.48v4.19c.01.2.03.4.06.6-1.69.49-3.45.74-5.22.75h-.21c.13-.43.21-.89.21-1.34v-4.19c0-1.12-.41-2.21-1.14-3.06.73-.86 1.14-1.94 1.14-3.07v-4.18c0-1.27-.5-2.49-1.4-3.38a4.75 4.75 0 0 0-3.38-1.4H44.31c-1.27 0-2.49.5-3.38 1.4-.9.89-1.4 2.11-1.4 3.38v4.18c0 1.13.41 2.21 1.14 3.07-.73.85-1.14 1.94-1.14 3.06v4.19c0 .45.08.91.21 1.34h-.21c-1.77 0-3.52-.25-5.22-.74.03-.2.05-.4.06-.6v-4.19c-.01-.5-.09-1-.26-1.48 1.05-.25 1.99-.84 2.66-1.68.67-.84 1.03-1.88 1.04-2.96v-4.19a4.854 4.854 0 0 0-1.04-2.97 4.763 4.763 0 0 0-2.66-1.67c.17-.48.25-.98.26-1.48v-4.2c0-1.12-.41-2.21-1.14-3.06.73-.85 1.14-1.94 1.14-3.06v-4.19c0-1.27-.51-2.48-1.4-3.38a4.81 4.81 0 0 0-3.38-1.4h-6.93a44.755 44.755 0 0 1 11.19-18.46l-2.4-2.44a48.055 48.055 0 0 0-12.38 20.9H8.21c-1.26 0-2.48.51-3.38 1.4-.89.9-1.4 2.11-1.4 3.38v4.19c.01 1.12.41 2.21 1.14 3.06-.73.85-1.13 1.94-1.14 3.06v4.19c.01 1.08.37 2.12 1.04 2.96.67.85 1.61 1.44 2.66 1.68-.17.48-.25.98-.26 1.48v4.19c.01.5.09 1 .26 1.48a4.779 4.779 0 0 0-3.7 4.65v4.19c0 1.26.51 2.48 1.4 3.38.9.89 2.12 1.4 3.38 1.4h21.38c1.1-.01 2.17-.4 3.02-1.11 2.23.73 4.57 1.11 6.92 1.11h30.93c2.35 0 4.69-.38 6.92-1.11.85.71 1.92 1.1 3.02 1.11h21.38c1.26 0 2.48-.51 3.38-1.4.89-.9 1.4-2.12 1.4-3.38v-4.19a4.804 4.804 0 0 0-1.04-2.96 4.726 4.726 0 0 0-2.66-1.68c.17-.48.25-.98.26-1.48v-4.19c-.01-.51-.09-1.01-.26-1.48 1.05-.25 1.99-.84 2.66-1.68.67-.84 1.03-1.89 1.04-2.96v-4.2a4.767 4.767 0 0 0-1.14-3.06c.73-.85 1.13-1.94 1.14-3.06v-4.19c0-1.27-.51-2.48-1.4-3.38-.9-.89-2.12-1.4-3.38-1.4Zm-33.3-53.8c-2.91.75-5.98.59-8.79-.45 1.24-.49 2.56-.75 3.9-.75 1.7.02 3.37.44 4.89 1.2Zm-14.15 1.1c3.86 1.69 8.13 3.57 13.72 2.53l-7.1 10.64H49.04l-8.87-13.3c5.63-3.61 9.43-1.95 14.16.12v.01ZM46.4 29.21c-.45 0-.89-.18-1.21-.5-.33-.32-.51-.76-.51-1.21 0-.46.18-.9.51-1.22.32-.32.76-.5 1.21-.5h17.19c.45 0 .89.18 1.21.5.33.32.51.76.51 1.22 0 .45-.18.89-.51 1.21-.32.32-.76.5-1.21.5H46.4ZM34.37 91.46c0 .36-.14.7-.39.95-.26.26-.6.4-.95.4H11.65c-.35 0-.7-.14-.95-.4-.25-.25-.39-.59-.39-.95v-4.18c0-.36.14-.7.39-.95.25-.26.6-.4.95-.4h2.1v3.44h3.43v-3.44h3.44v3.44h3.44v-3.44h3.44v3.44h3.43v-3.44h2.1c.35 0 .69.14.95.4.25.25.39.59.39.95v4.18ZM6.87 66.65c0-.35.14-.7.39-.95.26-.25.6-.39.95-.39h2.1v3.44h3.44v-3.44h3.43v3.44h3.44v-3.44h3.44v3.44h3.44v-3.44h2.09c.35 0 .7.14.95.39s.39.6.39.95v4.19c0 .35-.14.7-.39.95s-.6.39-.95.39H8.21c-.35 0-.69-.14-.95-.39-.25-.25-.39-.6-.39-.95v-4.19Zm0 10.31c0-.35.14-.69.39-.95.26-.25.6-.39.95-.39h2.1v3.44h3.44v-3.44h3.43v3.44h3.44v-3.44h3.44v3.44h3.44v-3.44h2.09c.35 0 .7.14.95.39.25.26.39.6.39.95v4.19c0 .36-.14.7-.39.95s-.6.39-.95.4H8.21a1.43 1.43 0 0 1-.95-.4c-.25-.25-.39-.59-.39-.95v-4.19Zm24.06 24.82c0 .35-.14.69-.39.95-.25.25-.6.39-.95.39H8.21c-.35 0-.69-.14-.95-.39-.25-.26-.39-.6-.39-.95v-4.19c0-.36.14-.7.39-.95.26-.25.6-.39.95-.39h2.1v3.43h3.44v-3.43h3.43v3.43h3.44v-3.43h3.44v3.43h3.44v-3.43h2.09c.35 0 .7.14.95.39s.39.59.39.95v4.19Zm12.03-14.5c0-.36.15-.7.4-.95.25-.26.59-.4.95-.4h2.09v3.44h3.44v-3.44h3.44v3.44h3.43v-3.44h3.44v3.44h3.44v-3.44h2.09c.36 0 .7.14.95.4.25.25.4.59.4.95v4.18c0 .36-.15.7-.4.95-.25.26-.59.4-.95.4H44.31c-.36 0-.7-.14-.95-.4-.25-.25-.4-.59-.4-.95v-4.18Zm1.35 15.84c-.36 0-.7-.14-.95-.39-.25-.26-.4-.6-.4-.95v-4.19a1.348 1.348 0 0 1 1.35-1.34h2.09v3.43h3.44v-3.43h3.44v3.43h3.43v-3.43h3.44v3.43h3.44v-3.43h2.09a1.348 1.348 0 0 1 1.35 1.34v4.19c0 .35-.15.69-.4.95-.25.25-.59.39-.95.39H44.31Zm34.75-36.47c0-.35.14-.7.39-.95s.6-.39.95-.39h2.1v3.44h3.43v-3.44h3.44v3.44h3.44v-3.44h3.44v3.44h3.43v-3.44h2.1c.35 0 .69.14.95.39.25.25.39.6.39.95v4.19c0 .35-.14.7-.39.95-.26.25-.6.39-.95.39H80.4c-.35 0-.7-.14-.95-.39s-.39-.6-.39-.95v-4.19Zm-3.44 20.63c0-.36.14-.7.39-.95.26-.26.6-.4.95-.4h2.1v3.44h3.44v-3.44h3.43v3.44h3.44v-3.44h3.44v3.44h3.44v-3.44h2.09c.35 0 .7.14.95.4.25.25.39.59.39.95v4.18c0 .36-.14.7-.39.95-.25.26-.6.4-.95.4H76.96c-.35 0-.69-.14-.95-.4-.25-.25-.39-.59-.39-.95v-4.18Zm27.5 14.5c0 .35-.14.69-.39.95-.26.25-.6.39-.95.39H80.4c-.35 0-.7-.14-.95-.39-.25-.26-.39-.6-.39-.95v-4.19c0-.36.14-.7.39-.95s.6-.39.95-.39h2.1v3.43h3.43v-3.43h3.44v3.43h3.44v-3.43h3.44v3.43h3.43v-3.43h2.1c.35 0 .69.14.95.39.25.25.39.59.39.95v4.19Zm0-20.63c0 .36-.14.7-.39.95-.26.25-.6.39-.95.4H80.4c-.35-.01-.7-.15-.95-.4s-.39-.59-.39-.95v-4.19c0-.35.14-.69.39-.95.25-.25.6-.39.95-.39h2.1v3.44h3.43v-3.44h3.44v3.44h3.44v-3.44h3.44v3.44h3.43v-3.44h2.1c.35 0 .69.14.95.39.25.26.39.6.39.95v4.19Z"/></g></svg>