<svg width="96" height="96" fill="none" xmlns="http://www.w3.org/2000/svg"><defs><clipPath id="a"><rect rx="-.5" width="95" height="95" transform="translate(.5 .5)" fill="#fff" fill-opacity="0"/></clipPath></defs><rect rx="-.5" width="95" height="95" transform="translate(.5 .5)"/><g clip-path="url(#a)"><path d="M10.71 0C9.46 0 8.27.5 7.38 1.38 6.5 2.27 6 3.46 6 4.71V42H0v54h96V42H79.62l1.38-.07-.08-1.43-2.99.15.06 1.35h-3.03c0-6.18-2.35-12.15-6.65-16.62-3.81-3.96-8.86-6.5-14.31-7.18v-3.02l1.08.16.46-2.97-1.4-.21H54V4.72a4.768 4.768 0 0 0-1.39-3.33A4.684 4.684 0 0 0 49.28 0H10.71Zm0 3H12v39H9V4.71c-.01-.23.03-.45.12-.66.08-.21.21-.4.37-.56.16-.16.35-.29.56-.37.21-.09.43-.13.66-.12ZM15 3h6v39h-6V3Zm9 0h25.28c.97 0 1.72.74 1.72 1.71V42h-3v-6h-3v6h-6v-6h-9v6h-6V3Zm10.5 3c-1.99 0-3.9.79-5.3 2.2a7.468 7.468 0 0 0-2.2 5.3c0 1.68.58 3.22 1.53 4.48A7.468 7.468 0 0 0 27 22.5c0 4.12 3.37 7.5 7.5 7.5 4.12 0 7.5-3.38 7.5-7.5 0-1.65-.56-3.23-1.54-4.52A7.428 7.428 0 0 0 42 13.5C42 9.37 38.62 6 34.5 6Zm0 3C37 9 39 10.99 39 13.5c0 1.24-.5 2.36-1.31 3.17l-.07.07c-.06.05-.13.1-.19.15-.4.34-.84.62-1.32.8-.03.01-.05.01-.08.02-.49.18-1.01.29-1.53.29-.53 0-1.05-.11-1.54-.29-.03-.01-.05-.01-.08-.02-.48-.19-.93-.46-1.32-.8-.06-.05-.13-.1-.19-.15l-.07-.07c-.42-.42-.75-.91-.97-1.46-.22-.54-.34-1.13-.33-1.71 0-2.51 1.99-4.5 4.5-4.5Zm24.12 3.98-.75 2.94 1.08.27h.03l1.6.58 1.03-2.82-1.63-.59-.07-.03-.07-.03-1.22-.32Zm5.87 2.26-1.3 2.69.7.34.04.03 1.73 1.06 1.56-2.56-1.86-1.13-.06-.05-.06-.03-.75-.35Zm5.29 3.37-1.8 2.41.14.09.03.04 1.95 1.77 2.02-2.22-1.99-1.8-.05-.06-.06-.04-.24-.19Zm-38.77 1.48c1.05.55 2.22.91 3.49.91a7.58 7.58 0 0 0 3.48-.91c.55.72 1.02 1.49 1.02 2.41 0 2.5-2 4.5-4.5 4.5-2.51 0-4.5-2-4.5-4.5 0-.92.46-1.7 1.01-2.41ZM54 21.24c4.63.66 8.9 2.85 12.15 6.22 3.74 3.91 5.83 9.12 5.82 14.54H67.5l1.5-.08-.06-1.05-3 .16.05.97H54V27.31h.01l.44.11.75-2.91-.51-.13-.07-.03h-.07l-.55-.08v-3.03Zm20.32 1.9-2.4 1.8 1.48 1.97.19.34 2.57-1.56-.25-.41-.04-.06-.04-.06-1.51-2.02ZM45 24v9h3v-9h-3Zm13.32 1.56-1.31 2.7 1.13.55 1.22.74.03.03.05.03.34-.55 1.4-1.88-.06-.06-.06-.04-.06-.04-1.36-.82-.06-.04-.07-.03-1.2-.59h.01Zm19.41 2.85-2.71 1.3.85 1.76.31.85L79 31.29l-.34-.91-.02-.07-.04-.06-.87-1.84Zm-14.13.74-1.63 1.81-.41.38.03.04.02.03.04.04.87.96h.02l.78 1.05 2.41-1.8-.8-1.06-.04-.06-.06-.05-1.05-1.17-.06-.06-.05-.05-.07-.06Zm16.36 5.14-2.91.74.39 1.53.2 1.26 2.96-.46-.2-1.33-.01-.08-.02-.07-.41-1.59Zm-12.6.22-2.71 1.31.15.32.51 1.37.22.86 2.91-.75-.24-.9-.01-.08-.03-.07-.55-1.52-.03-.06-.03-.07-.2-.41h.01ZM33 39h3v3h-3v-3ZM3 45h90v48H3V45Zm12 3v1.5c0 4.16-3.34 7.5-7.5 7.5H6v24h1.5c4.16 0 7.5 3.33 7.5 7.5V90h66v-1.5c0-4.17 3.33-7.5 7.5-7.5H90V57h-1.5c-.99 0-1.97-.19-2.88-.57-.91-.38-1.74-.93-2.44-1.62-.69-.7-1.24-1.53-1.62-2.44-.38-.91-.57-1.89-.56-2.87V48H15Zm2.69 3H78.3c.32 2.19 1.34 4.22 2.9 5.79 1.57 1.56 3.6 2.58 5.8 2.9V78.3c-2.2.32-4.23 1.34-5.8 2.9-1.56 1.57-2.58 3.6-2.9 5.8H17.69c-.32-2.2-1.34-4.23-2.9-5.8-1.57-1.56-3.6-2.58-5.79-2.9V59.69c2.19-.32 4.22-1.34 5.79-2.9 1.56-1.57 2.58-3.6 2.9-5.79Zm22.89 6v.03h-.07v3h3.08c2.8 0 4.21 1.32 4.72 2.97h-7.73v3h7.73c-.51 1.64-1.92 2.97-4.72 2.97H40.5v3h.89L50.54 81l2.11-2.13-7.18-7.1c3.25-.68 5.34-3.1 5.92-5.77h4.09v-3h-4.09c-.24-1.08-.74-2.1-1.44-3h5.53v-3h-14.9ZM18 66c-1.64 0-3 1.36-3 3 0 1.63 1.36 3 3 3 1.63 0 3-1.37 3-3 0-1.64-1.37-3-3-3Zm60 0c-1.64 0-3 1.36-3 3 0 1.63 1.36 3 3 3 1.63 0 3-1.37 3-3 0-1.64-1.37-3-3-3Z" fill="#F9B50A"/></g></svg>