<svg width="114" height="114" fill="none" xmlns="http://www.w3.org/2000/svg"><defs><clipPath id="a"><rect rx="-.5" width="113" height="113" transform="translate(.5 .5)" fill="#fff" fill-opacity="0"/></clipPath></defs><rect rx="-.5" width="113" height="113" transform="translate(.5 .5)"/><g clip-path="url(#a)" fill="#F9B50A"><path d="M113.98 96.71c-.02-.33-.11-.66-.34-.97l-13.5-18.22v-47.5c0-4.36-3.55-7.9-7.91-7.9h-3.49V12.2c0-3.26-2.65-5.91-5.91-5.91H60.62c-6.12 0-11.09 4.98-11.09 11.1v4.73H21.78c-4.36 0-7.91 3.54-7.91 7.9v47.5L.37 95.74c-.27.37-.4 1.01-.36 1.82.17 3.53 3.47 10.14 10.93 10.14h92.15c6.33 0 11.14-5.44 10.89-10.99ZM5.34 95.01l11.21-15.12h80.91l11.2 15.12H5.34Zm21.22-18.68c.88-6.59 6.51-11.69 13.33-11.69s12.46 5.1 13.34 11.69H26.56Zm26.53-58.94c0-4.16 3.38-7.53 7.53-7.53h22.21c1.3 0 2.35 1.05 2.35 2.34v10.19c0 4.15-3.38 7.53-7.54 7.53h-19.2c-.64 0-1.23.34-1.55.9l-3.8 6.61V17.39ZM17.43 30.02c0-2.39 1.95-4.34 4.34-4.34h27.76v12.44c0 3.46 4.58 4.68 6.3 1.68l3.63-6.32h18.18c4.98 0 9.19-3.29 10.6-7.8h3.99c2.4 0 4.35 1.95 4.35 4.34v46.31H56.83c-.9-8.56-8.15-15.25-16.94-15.25-8.78 0-16.03 6.69-16.93 15.25h-5.53V30.02Zm85.66 74.12H10.94c-3.44 0-6.33-2.37-7.13-5.56h106.4c-.8 3.19-3.69 5.56-7.12 5.56Z"/><path d="M76.99 85.67H37.02c-.98 0-1.78.8-1.78 1.78 0 .99.8 1.78 1.78 1.78h39.97c.98 0 1.78-.79 1.78-1.78 0-.98-.8-1.78-1.78-1.78ZM39.9 57.29c4.16 0 7.54-3.39 7.54-7.55v-4.33c0-4.16-3.38-7.54-7.54-7.54s-7.55 3.38-7.55 7.54v4.33c0 4.16 3.39 7.55 7.55 7.55Zm-3.99-11.88c0-2.19 1.79-3.98 3.99-3.98a3.99 3.99 0 0 1 3.98 3.98v4.33c0 2.2-1.79 3.99-3.98 3.99-2.2 0-3.99-1.79-3.99-3.99v-4.33Zm24.4-27.37h17.64c.99 0 1.78-.8 1.78-1.79 0-.98-.79-1.78-1.78-1.78H60.31a1.786 1.786 0 0 0 0 3.57Zm0 7.26h13.08c.99 0 1.78-.79 1.78-1.78 0-.98-.79-1.78-1.78-1.78H60.31c-.98 0-1.78.8-1.78 1.78 0 .99.8 1.78 1.78 1.78Z"/></g></svg>