<svg width="98" height="98" fill="none" xmlns="http://www.w3.org/2000/svg"><defs><clipPath id="a"><rect rx="-.5" width="97" height="97" transform="translate(.5 .5)" fill="#fff" fill-opacity="0"/></clipPath></defs><rect rx="-.5" width="97" height="97" transform="translate(.5 .5)"/><g clip-path="url(#a)" fill="#F9B50A"><path d="M62.78 35.21c-6.06 0-11.98 1.8-17.02 5.17a30.61 30.61 0 0 0-13.02 31.43c1.18 5.94 4.1 11.4 8.38 15.68 4.28 4.29 9.74 7.2 15.68 8.39 5.94 1.18 12.1.57 17.7-1.75a30.662 30.662 0 0 0 13.74-11.28 30.549 30.549 0 0 0 5.16-17.01c0-8.12-3.23-15.91-8.97-21.66a30.625 30.625 0 0 0-21.65-8.97Zm20.52 49-4.12-4.12L77 82.27l4.15 4.09a27.393 27.393 0 0 1-16.84 7.04v-6.12h-3.06v6.12a27.42 27.42 0 0 1-16.85-7.04l4.12-4.12-2.17-2.18-4.09 4.15a27.339 27.339 0 0 1-6.97-16.84h6.05v-3.06h-6.05a27.39 27.39 0 0 1 6.97-16.85l4.12 4.12 2.17-2.17-4.15-4.09a27.39 27.39 0 0 1 16.85-6.97v6.05h3.06v-6.05c6.24.33 12.19 2.79 16.84 6.97l-4.12 4.12 2.18 2.17 4.09-4.15a27.42 27.42 0 0 1 7.04 16.85h-6.13v3.06h6.13c-.35 6.25-2.84 12.2-7.04 16.84Z"/><path d="M62.78 47.46a18.388 18.388 0 0 0-18.03 21.96c.71 3.57 2.46 6.84 5.03 9.41 2.57 2.57 5.85 4.32 9.41 5.03 3.57.71 7.26.35 10.62-1.04 3.36-1.4 6.23-3.75 8.24-6.77 2.02-3.02 3.1-6.58 3.1-10.21 0-4.87-1.93-9.55-5.38-12.99a18.372 18.372 0 0 0-12.99-5.39Zm15.31 18.38c0 1.37-.19 2.73-.57 4.04l-7.09-4.04 7.06-4.04c.39 1.31.59 2.67.6 4.04Zm-30.63 0c0-1.37.19-2.73.57-4.04l7.09 4.04-7.06 4.04c-.38-1.31-.59-2.67-.6-4.04Zm18.38 0c0 .6-.18 1.2-.52 1.7a3.03 3.03 0 0 1-3.14 1.3c-.6-.12-1.14-.41-1.57-.84a3.026 3.026 0 0 1-.66-3.33c.23-.56.62-1.04 1.12-1.38.51-.33 1.1-.51 1.71-.51a3.058 3.058 0 0 1 3.06 3.06Zm0-5.25c-.25-.14-.48-.29-.72-.4l4.59-7.99c.98.5 1.9 1.1 2.74 1.79l-6.61 6.6Zm-6.13 0-6.58-6.6c.85-.69 1.77-1.29 2.74-1.79l4.59 7.99c-.3.11-.53.26-.75.4Zm-2.19 2.19c-.13.24-.29.47-.39.72l-8-4.6c.5-.97 1.1-1.89 1.79-2.74l6.6 6.62Zm-.39 5.46c.1.25.26.48.39.72l-6.6 6.59c-.69-.85-1.29-1.77-1.79-2.74l8-4.57Zm2.58 2.85c.25.14.48.29.72.4l-4.59 7.99c-.97-.5-1.89-1.1-2.74-1.79l6.61-6.6Zm6.13 0 6.58 6.6c-.85.69-1.76 1.29-2.74 1.79l-4.59-7.99c.3-.11.53-.26.75-.4Zm2.19-2.19c.14-.24.29-.47.4-.72l7.99 4.6c-.5.97-1.1 1.89-1.79 2.74l-6.6-6.62Zm.4-5.47c-.11-.24-.26-.47-.4-.71l6.6-6.59c.69.85 1.29 1.77 1.79 2.74l-7.99 4.56ZM66.9 51.06l-4.12 7.12-4.05-7.06c2.65-.75 5.45-.75 8.09 0l.08-.06Zm-8.17 29.52 4.05-7.08 4.04 7.05c-2.64.76-5.44.76-8.09 0v.03ZM24.5 70.54V40.79c2.51-1.27 4.59-3.28 5.94-5.75 1.36-2.48 1.92-5.31 1.63-8.12-.29-2.8-1.42-5.45-3.26-7.6a13.901 13.901 0 0 0-6.99-4.41 1.55 1.55 0 0 0-.71-.02c-.23.05-.45.16-.63.31-.19.14-.34.33-.44.55-.1.22-.15.45-.14.69v8.06c0 .81-.32 1.59-.9 2.16-.57.57-1.35.9-2.16.9s-1.59-.33-2.17-.9c-.57-.57-.89-1.35-.89-2.16v-8.11c0-.23-.04-.47-.14-.69-.1-.21-.25-.4-.44-.55-.18-.15-.4-.25-.63-.3-.24-.05-.48-.05-.71.01A13.932 13.932 0 0 0 1.54 26.9c-.29 2.81.29 5.65 1.65 8.14 1.37 2.48 3.46 4.48 5.99 5.75v29.75a13.967 13.967 0 0 0-5.99 5.75 13.965 13.965 0 0 0-1.65 8.14c.29 2.82 1.44 5.48 3.28 7.63 1.85 2.15 4.3 3.69 7.04 4.4.23.06.46.07.69.02.23-.05.45-.15.63-.29.19-.15.34-.34.45-.56.1-.22.15-.46.15-.7v-7.65c0-.61.18-1.2.52-1.71.34-.5.83-.89 1.39-1.12a3.063 3.063 0 0 1 3.34.7c.28.28.5.61.65.97.15.37.22.76.22 1.16v7.65c0 .41.16.8.45 1.09.29.28.68.44 1.08.44.13.02.26.02.39 0 2.74-.71 5.19-2.25 7.04-4.4a13.92 13.92 0 0 0 3.27-7.63c.3-2.82-.28-5.66-1.64-8.14a13.967 13.967 0 0 0-5.99-5.75Zm-1.54 22.22v-5.48c.01-.8-.15-1.59-.45-2.33-.31-.73-.76-1.4-1.32-1.96a6.137 6.137 0 0 0-6.67-1.36 6.133 6.133 0 0 0-2.76 2.25c-.68 1-1.04 2.18-1.05 3.4v5.54a10.892 10.892 0 0 1-6.11-10.1c.06-2.09.73-4.12 1.92-5.84 1.18-1.73 2.84-3.07 4.78-3.87a1.551 1.551 0 0 0 .95-1.49V39.81c0-.31-.09-.61-.26-.86a1.6 1.6 0 0 0-.69-.57c-1.94-.8-3.6-2.15-4.78-3.87a10.823 10.823 0 0 1-1.92-5.85c-.06-2.09.49-4.15 1.57-5.94 1.08-1.8 2.66-3.24 4.54-4.15v5.93c0 1.62.65 3.18 1.8 4.33a6.148 6.148 0 0 0 4.33 1.79c1.62 0 3.18-.65 4.33-1.79a6.123 6.123 0 0 0 1.79-4.33v-5.93c1.89.91 3.46 2.35 4.55 4.15 1.08 1.79 1.63 3.85 1.56 5.94-.06 2.1-.72 4.13-1.91 5.85a10.9 10.9 0 0 1-4.78 3.87 1.6 1.6 0 0 0-.69.57c-.17.25-.26.55-.26.86v31.71c0 .3.09.6.26.86.17.25.41.45.69.56 1.93.81 3.59 2.15 4.78 3.88 1.19 1.72 1.85 3.75 1.91 5.84.07 2.1-.48 4.16-1.56 5.95a10.918 10.918 0 0 1-4.55 4.15Zm29.1-72.86h3.06c.2 0 .4-.04.59-.11.18-.08.35-.19.5-.33l3.06-3.07c.14-.14.25-.31.33-.49.08-.19.11-.39.11-.59v-3.06c0-.21-.03-.41-.11-.59-.08-.19-.19-.36-.33-.5L56.21 8.1c-.15-.15-.32-.26-.5-.34-.19-.07-.39-.11-.59-.11h-3.06c-.2 0-.4.04-.59.11-.19.08-.36.19-.5.34l-3.06 3.06c-.14.14-.26.31-.33.5-.08.18-.12.38-.12.59v3.06a1.518 1.518 0 0 0 .45 1.08l3.06 3.07c.14.14.31.25.5.33.19.07.39.11.59.11Zm-1.53-7.03 2.16-2.16h1.8l2.16 2.16v1.81l-2.16 2.16h-1.8l-2.16-2.16v-1.81Z"/><path d="M47.91 25.58c.14.14.31.26.5.33.18.08.38.12.59.12h9.18c.2 0 .4-.04.59-.12.19-.07.36-.19.5-.33l6.12-6.12c.15-.15.26-.32.34-.5.07-.19.11-.39.11-.59V9.18c0-.2-.04-.4-.11-.59-.08-.18-.19-.35-.34-.49l-6.12-6.13a1.507 1.507 0 0 0-1.09-.44H49c-.21 0-.41.03-.59.11-.19.08-.36.19-.5.33L41.78 8.1c-.14.14-.25.31-.33.49-.07.19-.11.39-.11.59v9.19c0 .2.04.4.11.59.08.18.19.35.33.5l6.13 6.12ZM44.4 9.81l5.22-5.22h7.93l5.23 5.22v7.93l-5.23 5.22h-7.93l-5.22-5.22V9.81Zm41.35 7.03h-3.07c-.2 0-.4.04-.59.11-.18.08-.35.19-.49.33l-3.07 3.07c-.14.14-.25.31-.33.49-.07.19-.11.39-.11.59v3.07c0 .2.04.4.11.58.08.19.19.36.33.5l3.07 3.06c.14.15.31.26.49.34.19.07.39.11.59.11h3.07c.2 0 .4-.04.58-.11.19-.08.36-.19.5-.34l3.06-3.06c.15-.14.26-.31.34-.5.07-.18.11-.38.11-.58v-3.07c0-.2-.04-.4-.11-.59-.08-.18-.19-.35-.34-.49l-3.06-3.07c-.14-.14-.31-.25-.5-.33-.18-.07-.38-.11-.58-.11Zm1.53 7.03-2.16 2.16h-1.81l-2.16-2.16v-1.81l2.16-2.16h1.81l2.16 2.16v1.81Z"/><path d="m96.02 17.28-6.13-6.12a1.518 1.518 0 0 0-1.08-.45h-9.19c-.2 0-.4.04-.59.12-.18.07-.35.19-.5.33l-6.12 6.12c-.14.15-.26.32-.33.5-.08.19-.12.39-.12.59v9.19a1.518 1.518 0 0 0 .45 1.08l6.12 6.13c.15.14.32.25.5.33.19.08.39.12.59.11h9.19c.2.01.4-.03.59-.11.18-.08.35-.19.49-.33l6.13-6.13c.14-.14.25-.31.33-.49.08-.19.12-.39.11-.59v-9.19c.01-.2-.03-.4-.11-.59-.08-.18-.19-.35-.33-.5Zm-2.62 9.65-5.22 5.22h-7.93l-5.22-5.22V19l5.22-5.22h7.93L93.4 19v7.93Z"/></g></svg>