<svg xmlns="http://www.w3.org/2000/svg" viewBox="0 0 99 90" style="enable-background:new 0 0 99 90" xml:space="preserve"><path d="m97 53.6-.4.1V45L78.1 9.5c.1-2.9-1.1-5.8-3.5-7.7L73.5.9c-1.6-1.3-3.9-1.1-5.1.5L43.8 31l-1.2-1.9v-.2H25.1v16.5H7.6c-2.7 0-4.9 2.2-4.9 4.9v9.6c0 3.1 2.5 5.7 5.7 5.7H21v2h-9.3c-3.1 0-5.9 1.3-7.9 3.3-2 2-3.3 4.8-3.3 7.9C.5 85 5.5 90 11.7 90h42.8c3.1 0 5.9-1.3 7.9-3.3 2-2 3.3-4.8 3.3-7.9 0-6.2-5-11.2-11.2-11.2h-9v-2h2.3c3.1 0 5.7-2.5 5.7-5.7v-13l15.2-21.3L84 50.8v4.4l-11.3 1.5v-.8c0-1.3-1-2.3-2.3-2.3-.6 0-1.2.3-1.6.7-.4.4-.7 1-.7 1.6V60c0 10.8 8.7 19.5 19.5 19.5 6 0 10.9-4.9 10.9-10.9V54.9c0-.8-.7-1.4-1.5-1.3zm-55.6 9.8v2.2h-.1v2H25.1v-4.2h16.3zM8.2 59.3c-.9 0-1.6-.7-1.6-1.6v-6.5c0-.9.7-1.6 1.6-1.6H25v9.8H8.2zm48.2 12.4c2.8 0 5.2 2.3 5.2 5.2 0 1.4-.6 2.7-1.5 3.6-.9.9-2.2 1.5-3.6 1.5H10c-2.8 0-5.2-2.3-5.2-5.1 0-1.4.6-2.7 1.5-3.6.9-.9 2.2-1.5 3.6-1.5h46.5zm-6.9-14.2c0 1.2-.9 2.1-2.1 2.1H29V33.3h4.2v14.4c0 .2-.3 3 2.8 6.1 2.6 2.5 7 3.2 12.2 3.2h1.2v.5zm0-4c-4.6.1-7.8-.1-10.7-2.3-1.3-1-1.8-3.2-1.8-3.3V33.4h3.3l9.2 14.1v6zm.7-12.9-3.8-5.8L69.6 5.4c.8-1 2.4-1.2 3.5-.4.7.5 1 1.3 1 2.1 0 .5-.2 1.1-.5 1.5l-23.4 32zm22.5-20.7 3.6-5.1c.1-.1.2-.3.3-.4l15.6 28.7c.3.6.4 1.3.4 1.9l-.1.6-.3.6c-.3.5-.7.9-1.3 1.1-.5.2-2.2.2-3-1.3L72.7 19.9zm15.7 31.3 3.7-.3v3.3l-3.7.5v-3.5zm1.4 20.5c-7.3 1.4-14.2-3.4-15.6-10.7l20.3-3.8.1 7.2c.1 4-.9 6.6-4.8 7.3z" style="fill:#a5a5a5"/></svg>