<svg width="25" height="25" fill="none" xmlns="http://www.w3.org/2000/svg"><path d="M5 0h15a5 5 0 0 1 5 5v15a5 5 0 0 1-5 5H5a5 5 0 0 1-5-5V5a5 5 0 0 1 5-5Zm-.504 11.874a3.719 3.719 0 0 0-.101.052l-.002-.001c-.143.076-.278.169-.348.316-.11.234-.005.53.18.706.184.176.43.26.669.337.448.147.899.29 1.35.428.538.167 1.098.329 1.654.246.622-.092 1.163-.478 1.68-.853l4.741-3.45c.126-.092.284-.188.422-.117.232.118.099.488-.07.692-1.195 1.452-2.804 2.499-3.918 4.021-.134.183-.266.389-.268.62-.004.383.336.659.641.87l3.848 2.668c.31.213.624.43.981.535.357.102.77.075 1.059-.167.341-.287.431-.785.497-1.239l1.44-9.92c.069-.474.114-1.028-.212-1.365a.767.767 0 0 0-.238-.168c-.257-.117-.552-.095-.82-.042-.141.028-.278.078-.418.105-.167.03-.336.135-.493.205l-2.103.943-2.104.942-2.104.943-2.104.942-1.051.472-.526.235-.262.118c-.046.021-.092.04-.138.062-.03.012-.083.051-.115.051-.591.265-1.183.53-1.767.813Z" clip-rule="evenodd" fill="#F9B50A" fill-rule="evenodd"/></svg>