<svg class="svg" xmlns="http://www.w3.org/2000/svg" viewBox="0 0 85.9 90" style="enable-background:new 0 0 85.9 90" xml:space="preserve" fill="#a5a5a5"><path class="st0" d="M43 0C19.3 0 0 20.1 0 45s19.3 45 43 45 43-20.1 43-45S66.7 0 43 0zm37.4 49.4c.8.4 1.2 1.1 1.2 1.8 0 1-.7 2.1-2 2.1-1.2 0-2 1.1-2 2.1 0 .6.3 1.2.8 1.6.6.4.8 1 .8 1.6 0 1.2-1 2.3-2.4 2.1h-.4c-1.7 0-2.7 2-1.5 3.4.4.4.5.9.5 1.3 0 1.3-1.4 2.5-2.9 1.9-.3-.1-.5-.2-.8-.2-1.5 0-2.6 1.6-1.8 3.1.2.3.3.7.3 1 0 1.5-1.8 2.7-3.2 1.7-.4-.3-.8-.4-1.2-.4-1.3 0-2.4 1.2-2 2.7.1.2.1.4.1.6 0 1.7-2.2 2.8-3.6 1.4-.4-.4-1-.6-1.5-.6-1.1 0-2.2.9-2.1 2.2v.2c0 2-2.7 2.9-3.8 1.1-.4-.7-1.1-1-1.7-1-1 0-1.9.7-2.1 1.8-.2 1.2-1.1 1.8-2.1 1.8-.8 0-1.6-.4-1.9-1.4-.3-.9-1.1-1.4-2-1.4s-1.6.5-2 1.4c-.3.9-1.1 1.4-1.9 1.4-1 0-1.9-.6-2.1-1.8-.2-1.1-1.1-1.8-2.1-1.8-.7 0-1.3.3-1.7 1-.4.7-1.1 1-1.7 1-1.1 0-2.2-.9-2.1-2.2v-.2c0-1.8-2.3-2.8-3.6-1.4-.4.5-1 .6-1.5.6-1.3 0-2.4-1.2-2-2.7.1-.2.1-.4.1-.6 0-1.6-1.8-2.7-3.2-1.7-.4.3-.8.4-1.2.4-1.4 0-2.6-1.6-1.8-3.1.2-.3.3-.7.3-1 0-1.4-1.4-2.5-2.9-1.9-.3.1-.6.2-.8.2-1.6 0-2.8-2-1.5-3.4.3-.4.5-.9.5-1.3 0-1.2-1.1-2.3-2.4-2h-.4c-1.9 0-2.8-2.5-1.2-3.7.6-.4.8-1 .8-1.6 0-1-.8-2-2-2.1-1.3 0-2-1.1-2-2.1 0-.7.4-1.5 1.2-1.8.8-.4 1.2-1.1 1.2-1.9 0-.9-.5-1.8-1.6-2-1.1-.3-1.6-1.1-1.6-2 0-.9.5-1.8 1.6-2 1-.2 1.6-1.1 1.6-2 0-.7-.4-1.5-1.2-1.9-.8-.4-1.2-1.1-1.2-1.8 0-1 .7-2.1 2-2.1 1.2 0 2-1.1 2-2.1 0-.6-.2-1.2-.8-1.6-.6-.4-.8-1-.8-1.6 0-1.2 1-2.3 2.4-2.1h.4c1.7 0 2.7-2 1.5-3.4-.4-.4-.5-.9-.5-1.3 0-1.3 1.4-2.5 2.9-1.9.3.1.5.2.8.2 1.5 0 2.6-1.6 1.8-3.1-.2-.3-.3-.7-.3-1 0-1.5 1.8-2.7 3.3-1.7.4.3.8.4 1.2.4 1.3 0 2.4-1.2 2-2.7-.1-.2-.1-.4-.1-.6 0-1.7 2.2-2.8 3.6-1.4.4.4 1 .6 1.5.6 1.1 0 2.2-.9 2.1-2.2v-.2c0-2 2.7-2.9 3.8-1.1.4.7 1.1 1 1.7 1 1 0 1.9-.7 2.1-1.8.2-1.2 1.1-1.8 2.1-1.8.8 0 1.6.4 1.9 1.4.3.9 1.1 1.4 2 1.4s1.6-.5 2-1.4c.7-2 3.7-1.7 4 .4-.2 1.1.8 1.8 1.7 1.8.7 0 1.3-.3 1.7-1 .4-.7 1.1-1 1.7-1 1.1 0 2.2.9 2.1 2.2v.2c0 1.8 2.3 2.8 3.6 1.4.4-.5 1-.7 1.5-.7 1.3 0 2.4 1.2 2 2.7-.1.2-.1.4-.1.6 0 1.6 1.8 2.7 3.3 1.7.4-.3.8-.4 1.2-.4 1.4 0 2.6 1.6 1.8 3.1-.2.3-.3.7-.3 1 0 1.4 1.4 2.5 2.9 1.9.3-.1.6-.2.8-.2 1.6 0 2.8 2 1.5 3.4-.3.4-.5.9-.5 1.3 0 1.2 1.1 2.3 2.4 2h.4c1.9 0 2.8 2.5 1.2 3.7-.6.4-.8 1-.8 1.6 0 1 .8 2.1 2 2.1 1.3 0 2 1.1 2 2.1 0 .7-.4 1.5-1.2 1.8-.8.4-1.2 1.1-1.2 1.9 0 .9.6 1.8 1.6 2 1.1.2 1.6 1.1 1.6 2 0 .9-.5 1.8-1.6 2-1 .2-1.6 1.1-1.6 2 .2.9.6 1.6 1.4 2z"/><path class="st0" d="M41.8 13.2c-16.3 0-29.5 13.2-29.5 29.5s13.2 29.5 29.5 29.5S71.3 59 71.3 42.7 58.1 13.2 41.8 13.2zm1.4 52.2c-.4 0-.8-.1-1.1-.3-.4-.3-.8-.8-.8-1.4l-.2-5.4 3.6-.1.2 5.4c.1 1-.7 1.8-1.7 1.8zM32.5 48.5l-8 2.3c-1.1.3-2.2-.2-2.6-1.3-.1-.4-.1-.9 0-1.3.2-.6.6-1.1 1.3-1.3l8-2.3 1.3 3.9zm-2.7-23.3c.4-.3.8-.4 1.2-.4.6 0 1.2.3 1.6.8L38 33c-1.1.7-2.2 1.6-3 2.7l-5.6-7.6c-.7-.9-.5-2.2.4-2.9zm24.6.4c.4 0 .8.1 1.2.4.9.7 1.1 1.9.4 2.8L51.5 35l-3.3-2.4 4.5-6.2c.4-.5 1-.8 1.7-.8zM36.2 42.7c0-3.8 3.1-6.8 6.8-6.8s6.8 3.1 6.8 6.8c0 3.8-3.1 6.8-6.8 6.8s-6.8-3-6.8-6.8zm25.2-12.6c3 3.6 4.9 8.1 5.4 13l-12.4-3.2 7-9.8zM55 44.4l7.9 2.6c.6.2 1.1.7 1.3 1.3.1.4.1.8 0 1.3-.4 1.1-1.5 1.6-2.6 1.2L54 49.2l1-4.8zm-5-22.1-6.8 9.3h-.3l-7.3-10c1.9-.4 3.9-.7 5.9-.7 3.1 0 5.9.5 8.5 1.4zm-26.4 5.9L32.2 40l-15.7 4.4c.1-6.3 2.8-12 7.1-16.2zM20 57.6l15.2-4.9c.6.7 1.3 1.4 2.1 1.9l-1.7 14.1C29 67.2 23.4 63.1 20 57.6zm29.8 10.6-.7-13.9c.4-.3.7-.6 1.1-1l13.4 3.8c-3 5.2-7.9 9.1-13.8 11.1z"/></svg>