<svg xmlns="http://www.w3.org/2000/svg" viewBox="0 0 92 90" style="enable-background:new 0 0 92 90" xml:space="preserve"><path d="M81.8 71.1 60.4 49.9l-.1-.1 2.2-2.2c8 2 16.6 0 22.7-6 7.3-7.3 8.7-18.2 4.3-27.3l-.1-.2c-.2-.5-.5-.9-.9-1.3-1.2-1.2-3-1.5-4.5-1L71.8 24c-1.1 1.1-2.9 1.1-4 0l-.8-.7c-1.1-1.1-1.1-2.9 0-4L78.4 8c1.4-1.4 1.4-3.7 0-5.1l-.5-.5c-.5-.5-1.1-.8-1.7-.9-.1 0-.1-.1-.1-.1-.1 0-.1 0-.2-.1C67.4-1.6 56.5 0 50 6.5c-7 6.8-8.7 16.8-5.3 25.5l-3.9 3.8-13.1-13c-.3-.3-.5-.6-.7-.9l-4.2-7.5L9.9 4.8c-.9-.7-2.2-.6-3 .2L1 10.8c-.5.5-.8 1.2-.8 1.9L0 17.8c0 .6.2 1.2.6 1.7l10 11.7 5.6 2.3 13.5 13.4L5.6 70.7c-2.5 2.5-2.5 6.5 0 8.9l7.8 7.7c2.5 2.4 6.5 2.4 9 0l20.9-20.7.1.1 21.4 21.2c2.8 2.8 7.4 2.8 10.3 0l6.7-6.6c2.8-2.8 2.8-7.4 0-10.2zM19.4 27.9l-8.5-5.1L4 12.7l4.1-4.1 10.1 7.3 4.5 8.7 14.7 14.6-3.3 3.3-14.7-14.6zm44.7 13.5c-1.7-.2-3.3-.6-4.9-1.3L20.4 78.4c-1.2 1.2-3.1 1.2-4.2 0l-4-4c-1.2-1.2-1.2-3 0-4.2l37.9-37.6c-.7-1.1-1.3-2.1-1.7-3.3-2.9-7.1-1.5-15.5 4.3-21.3 4.9-4.9 12.9-6.5 19.5-5 .6.1 1.1.3 1.7.4L62.1 15.2l-.3.3c-2.1 2.4-2 6.2.3 8.5l4.2 4.2c2.4 2.4 6.4 2.4 8.9 0l10.7-10.6c.3 1.1.4 2.3.5 3.4.3 5.3-1.6 10.7-5.7 14.8-4.6 4.5-10.8 6.3-16.6 5.6zm7 38.4c-1.1 1.1-3 1.1-4.1 0L48.5 61.5l2.8-2.8 12.1 12c.9.9 2.5.8 3.3-.3.6-.9.4-2.1-.3-2.8l-12-11.9 2.8-2.8 18.6 18.4c1.1 1.1 1.1 2.9 0 4.1l-4.7 4.4z" style="fill:#a5a5a5"/></svg>