<svg width="25" height="25" fill="none" xmlns="http://www.w3.org/2000/svg"><path d="M0 5c0-2.77 2.23-5 5-5h15c2.76 0 5 2.23 5 5v15c0 2.76-2.24 5-5 5H5c-2.77 0-5-2.24-5-5V5Zm8.49.38c2.31-.51 4.7-.51 7.01 0l.25.05a3.72 3.72 0 0 1 2.81 2.69c.58 2.28.58 4.66 0 6.94a3.72 3.72 0 0 1-2.81 2.69l-.25.05c-1.45.32-2.93.44-4.41.36l-1.92 1.7c-.15.13-.36.17-.55.1a.525.525 0 0 1-.35-.41l-.32-1.88a3.721 3.721 0 0 1-2.52-2.61c-.58-2.28-.58-4.66 0-6.94a3.72 3.72 0 0 1 2.81-2.69l.25-.05Zm6.77 1.04c-2.15-.47-4.38-.47-6.53 0l-.25.06c-.98.21-1.74.95-1.99 1.91-.54 2.1-.54 4.3 0 6.4.25.96 1.01 1.7 1.99 1.91l.07.02c.21.04.38.22.41.43l.22 1.26 1.36-1.2c.11-.1.25-.14.4-.13 1.44.1 2.9-.01 4.32-.32l.25-.06a2.62 2.62 0 0 0 1.99-1.91c.54-2.1.54-4.3 0-6.4a2.62 2.62 0 0 0-1.99-1.91l-.25-.06Zm-3.13 1.19c0-.2.16-.36.36-.36 1.09 0 2.04.36 2.79 1.06v.01c.38.38.68.83.88 1.32.19.5.28 1.03.26 1.56a.366.366 0 0 1-.73-.03c.02-.43-.05-.86-.21-1.27-.16-.4-.4-.77-.71-1.08-.6-.56-1.36-.86-2.28-.86-.2 0-.36-.16-.36-.35Zm-2.99.5c-.13-.02-.27 0-.39.07h-.01c-.27.16-.52.36-.73.59-.17.2-.26.4-.29.59-.01.12 0 .23.03.34l.01.01c.2.57.46 1.11.77 1.63.4.72.9 1.38 1.47 1.98l.02.03.02.02.02.02.02.01a9.99 9.99 0 0 0 2.02 1.46c.84.45 1.35.66 1.65.75v.01c.09.02.17.04.26.04.26-.02.5-.13.7-.3.23-.21.43-.45.58-.72.15-.27.1-.53-.11-.71a9.26 9.26 0 0 0-1.36-.96c-.33-.17-.66-.07-.79.11l-.29.35c-.14.18-.41.15-.41.15l-.01.01c-1.98-.5-2.51-2.48-2.51-2.48s-.02-.27.16-.4l.36-.29a.62.62 0 0 0 .11-.78c-.28-.48-.61-.93-.98-1.35a.541.541 0 0 0-.32-.18Zm3.32.31c-.2 0-.36.16-.36.36 0 .2.16.36.36.36h.02c.66.04 1.14.26 1.48.62.34.37.52.82.51 1.39-.01.2.15.36.35.36.2.01.37-.15.37-.34.02-.75-.22-1.39-.7-1.9-.49-.52-1.17-.79-1.98-.85h-.05Zm-.39 1.54c.01-.2.18-.35.38-.34.43.02.82.16 1.1.44.28.28.41.66.44 1.09.01.19-.15.36-.35.37a.36.36 0 0 1-.38-.34c-.02-.3-.11-.5-.23-.62-.12-.12-.31-.21-.62-.22a.36.36 0 0 1-.34-.38Z" fill="#F9B50A" fill-rule="evenodd"/></svg>